<?xml version="1.0" encoding="utf-8"?>
<!-- Generator: Adobe Illustrator 22.1.0, SVG Export Plug-In . SVG Version: 6.00 Build 0)  -->
<svg version="1.1" id="Layer_1" xmlns="http://www.w3.org/2000/svg" xmlns:xlink="http://www.w3.org/1999/xlink" x="0px" y="0px"
	 viewBox="0 0 512.7 513" style="enable-background:new 0 0 512.7 513;" xml:space="preserve">
<style type="text/css">
	.st0{fill:#AFFA16;}
	.st1{fill:#FCFEF9;}
	.st2{fill:#FBFEF6;}
	.st3{fill:#AFFA17;}
	.st4{fill:#FCFEF8;}
</style>
<path class="st0" d="M286.7,513c-105.5-1-169-28.6-219.8-83.8C17.8,375.7-3.8,311.7,0.5,239.5C4.7,170.9,33,113,83.6,66.7
	c53.6-49,117.5-70.7,189.7-66.3C341.9,4.7,399.8,33,446,83.7c48.9,53.6,70.6,117.6,66.1,189.8c-4.3,68.4-32.8,125.8-82.9,172.4
	C389,483.2,326.7,513.9,286.7,513z M158.6,360.4c0,2.3,0,4.7,0,7c0,3.5,0.1,7,0,10.5c-0.2,4.9,1.7,8.8,6.1,11.2
	c4.5,2.4,8.9,2.1,13.1-0.9c11.7-8.3,23.3-16.5,35.8-23.7c3.4-2,6.9-3,10.9-2.4c15.6,2.4,31.2,2.2,46.8,0
	c39.6-5.7,73.5-22.2,99.7-53.1c38.3-45.2,36.5-111-4.1-154.3c-28.4-30.3-63.9-46.2-104.9-49.2c-49.5-3.7-93.8,9.7-129.3,45.4
	c-31.1,31.3-43,69.1-31.8,112.5c8,31.2,27.3,54.7,53.6,72.6c3.1,2.1,4.6,4.2,4.3,8C158.3,349.4,158.6,354.9,158.6,360.4z M403.9,270
	c-2.1,7.2-4.7,13.6-7.9,19.9c-0.9,1.8-1.6,3.4-1.1,5.6c6.8,27.4-6.5,50-27.2,63.2c-6.6,4.2-10.1,8.8-9.1,16.5c0.2,1.2,0.6,3-0.6,3.7
	c-1.5,0.9-2.7-0.8-3.9-1.5c-7.1-4.5-14.4-7.2-23.1-5.8c-10.8,1.8-21.6,0.8-32.1-2c-3.3-0.9-6.4-0.9-9.7-0.1
	c-8.6,2.2-17.5,3.4-27.2,4.3c22,14.1,45.3,19.4,70.4,16.8c3.9-0.4,7.2,0,10.4,2.1c6.4,4.2,12.8,8.3,19.1,12.7
	c3.4,2.4,6.8,3.5,10.7,1.5c3.9-2.1,5.6-5.5,5.5-9.9c0-6,0.2-12-0.1-18c-0.1-3,0.8-4.9,3.3-6.6c9.4-6.3,16.9-14.4,23-23.9
	C419.9,324.5,419.8,291.6,403.9,270z"/>
<path class="st1" d="M158.6,360.4c0-5.5-0.3-11,0.1-16.5c0.3-3.8-1.2-5.9-4.3-8c-26.3-17.9-45.6-41.4-53.6-72.6
	c-11.2-43.4,0.7-81.2,31.8-112.5c35.5-35.7,79.8-49.2,129.3-45.4c41,3.1,76.5,18.9,104.9,49.2c40.6,43.3,42.4,109.1,4.1,154.3
	c-26.2,30.9-60.1,47.4-99.7,53.1c-15.6,2.3-31.2,2.4-46.8,0c-4-0.6-7.5,0.4-10.9,2.4c-12.4,7.2-24.1,15.4-35.8,23.7
	c-4.2,3-8.6,3.4-13.1,0.9c-4.4-2.4-6.2-6.2-6.1-11.2c0.1-3.5,0-7,0-10.5C158.6,365.1,158.6,362.8,158.6,360.4z M246.4,340.1
	c4.4-0.2,7.7-0.4,11-0.6c37.1-2.5,69.3-15.9,93.8-44.5c19.4-22.6,27.3-48.8,21.4-78.4c-5.3-26.7-20.5-47-42.2-62.5
	c-28.2-20.1-60-27.7-94.4-25c-34.7,2.6-64.8,15.3-89,40.8c-28.3,29.8-34.2,72.5-14.9,107.9c9.9,18.3,24.5,32.2,42.4,42.6
	c5.7,3.3,8.4,7.7,8,14.2c-0.3,5.3-0.1,10.7,0,16c0,1.2-0.7,2.9,0.8,3.6c1.4,0.6,2.4-0.8,3.5-1.4c5.7-3.3,11.4-6.8,17.2-10
	c7.8-4.3,16-6,25-4.2C235.1,339.7,241.3,339.7,246.4,340.1z"/>
<path class="st2" d="M403.9,270c15.9,21.6,15.9,54.5,0.4,78.5c-6.1,9.5-13.7,17.6-23,23.9c-2.5,1.7-3.4,3.6-3.3,6.6
	c0.2,6,0,12,0.1,18c0,4.4-1.6,7.8-5.5,9.9c-3.9,2.1-7.3,0.9-10.7-1.5c-6.3-4.4-12.7-8.5-19.1-12.7c-3.2-2.1-6.4-2.5-10.4-2.1
	c-25.1,2.6-48.4-2.7-70.4-16.8c9.7-0.9,18.5-2,27.2-4.3c3.3-0.8,6.4-0.8,9.7,0.1c10.6,2.8,21.3,3.8,32.1,2c8.7-1.4,16,1.3,23.1,5.8
	c1.2,0.8,2.4,2.4,3.9,1.5c1.2-0.7,0.7-2.5,0.6-3.7c-1-7.8,2.6-12.4,9.1-16.5c20.7-13.2,34.1-35.8,27.2-63.2
	c-0.6-2.2,0.2-3.9,1.1-5.6C399.2,283.6,401.8,277.1,403.9,270z"/>
<path class="st3" d="M246.4,340.1c-5.1-0.4-11.4-0.4-17.4-1.5c-9-1.7-17.2-0.1-25,4.2c-5.8,3.2-11.5,6.7-17.2,10
	c-1.1,0.6-2.1,2.1-3.5,1.4c-1.5-0.7-0.8-2.4-0.8-3.6c-0.1-5.3-0.3-10.7,0-16c0.4-6.6-2.4-11-8-14.2c-17.9-10.4-32.5-24.3-42.4-42.6
	c-19.2-35.5-13.4-78.1,14.9-107.9c24.2-25.5,54.3-38.2,89-40.8c34.4-2.6,66.1,4.9,94.4,25c21.8,15.5,36.9,35.8,42.2,62.5
	c5.9,29.6-2,55.9-21.4,78.4c-24.6,28.6-56.7,41.9-93.8,44.5C254.1,339.7,250.8,339.9,246.4,340.1z M267.2,239
	c-0.1-10.4-9.1-19.2-19.6-19.2c-10.6,0-19.3,8.8-19.3,19.4c0,10.6,8.8,19.1,19.5,19.1C258.3,258.3,267.3,249.4,267.2,239z
	 M312.2,258.3c11.1-0.1,19.6-8.8,19.4-19.7c-0.2-10.3-9-18.8-19.4-18.8c-10.5,0.1-19.6,9.1-19.5,19.3
	C292.6,249.6,301.7,258.5,312.2,258.3z M183.2,258.3c10.9-0.1,19.4-8.6,19.4-19.2c0-10.6-8.8-19.3-19.4-19.3
	c-10.4,0-19.6,9.1-19.6,19.3C163.6,249.5,172.7,258.4,183.2,258.3z"/>
<path class="st4" d="M267.2,239c0.1,10.4-8.9,19.4-19.4,19.4c-10.8,0-19.5-8.6-19.5-19.1c0-10.6,8.7-19.4,19.3-19.4
	C258.1,219.7,267.1,228.5,267.2,239z"/>
<path class="st4" d="M312.2,258.3c-10.5,0.1-19.5-8.8-19.6-19.2c-0.1-10.3,9.1-19.3,19.5-19.3c10.4-0.1,19.2,8.5,19.4,18.8
	C331.8,249.6,323.3,258.2,312.2,258.3z"/>
<path class="st4" d="M183.2,258.3c-10.5,0.1-19.6-8.8-19.6-19.2c-0.1-10.2,9.2-19.3,19.6-19.3c10.6,0,19.4,8.7,19.4,19.3
	C202.6,249.8,194.1,258.2,183.2,258.3z"/>
</svg>
