<svg width="24" height="24" viewBox="0 0 24 24" fill="none" xmlns="http://www.w3.org/2000/svg">
<path d="M17.9948 8.36881C17.7572 8.13259 17.4357 8 17.1007 8C16.7656 8 16.4442 8.13259 16.2065 8.36881L11.6533 12.8586L7.16348 8.36881C6.92585 8.13259 6.60439 8 6.26932 8C5.93425 8 5.6128 8.13259 5.37516 8.36881C5.25629 8.48672 5.16193 8.627 5.09754 8.78155C5.03315 8.93611 5 9.10188 5 9.26931C5 9.43675 5.03315 9.60252 5.09754 9.75708C5.16193 9.91163 5.25629 10.0519 5.37516 10.1698L10.7528 15.5474C10.8707 15.6663 11.011 15.7607 11.1655 15.8251C11.3201 15.8895 11.4859 15.9226 11.6533 15.9226C11.8207 15.9226 11.9865 15.8895 12.1411 15.8251C12.2956 15.7607 12.4359 15.6663 12.5538 15.5474L17.9948 10.1698C18.1137 10.0519 18.2081 9.91163 18.2725 9.75708C18.3368 9.60252 18.37 9.43675 18.37 9.26931C18.37 9.10188 18.3368 8.93611 18.2725 8.78155C18.2081 8.627 18.1137 8.48672 17.9948 8.36881Z" fill="#2A3646"/>
</svg>
