<svg width="1639" height="571" viewBox="0 0 1639 571" fill="none" xmlns="http://www.w3.org/2000/svg">
<g clip-path="url(#clip0_1_2)">
<path d="M285.075 28.9761V0C282.965 3.88284 279.04 11.4872 274.831 21.7697L285.075 28.9761Z" fill="#D3BD32"/>
<path d="M286.782 0V28.9761L297.88 22.3833C293.328 11.792 289.064 3.95567 286.782 0Z" fill="#D3BD32"/>
<path d="M268.57 39.973C264.182 54.1258 261.126 68.2352 259.466 82.0192L285.075 100.564V50.6554L268.813 39.203C268.728 39.4633 268.644 39.7127 268.57 39.9622V39.973Z" fill="#F8EAD7"/>
<path d="M268.856 37.8716L285.075 48.5776V31.339L274.135 23.8627C272.237 28.4554 270.47 33.153 268.856 37.8612V37.8716Z" fill="#DA1A5D"/>
<path d="M259.888 163.621C263.07 187.413 272.898 202.977 285.075 203.685V177.256L259.466 160.221C259.606 161.376 259.747 162.51 259.888 163.61V163.621Z" fill="#D3BD32"/>
<path d="M258.665 88.8717C258.262 93.3609 258.007 97.861 257.911 102.264C257.709 111.706 257.709 120.653 257.901 128.951L285.075 148.29V102.987L259.122 84.3716C258.952 85.8717 258.793 87.3717 258.665 88.8717Z" fill="#357079"/>
<path d="M257.876 134.699C258.186 143.344 258.742 151.32 259.523 158.53L285.075 175.561V150.554L257.758 131.245C257.79 132.41 257.823 133.554 257.865 134.699H257.876Z" fill="#DA1A5D"/>
<path d="M303.796 40.389C303.763 40.2813 303.72 40.1629 303.687 40.0552L286.782 51.0138V100.564L313.245 82.6085C311.545 68.7757 308.384 54.6092 303.796 40.3997V40.389Z" fill="#F8EAD7"/>
<path d="M314.007 88.427C313.886 87.0788 313.744 85.7198 313.591 84.3716L286.782 102.659V148.29L314.806 128.763C315.003 120.413 315.003 111.422 314.795 101.919C314.697 97.4944 314.434 92.9607 314.018 88.427H314.007Z" fill="#357079"/>
<path d="M297.887 23.8627L286.782 30.8857V48.5776L303.002 37.9947C301.434 33.2518 299.725 28.5088 297.887 23.8734V23.8627Z" fill="#DA1A5D"/>
<path d="M286.782 203.685C298.939 202.983 308.75 187.559 311.927 163.98C312.089 162.759 312.251 161.495 312.392 160.221L286.782 177.492V203.685Z" fill="#D3BD32"/>
<path d="M286.793 175.561L313.188 158.139C313.971 151.04 314.533 143.198 314.842 134.729C314.886 133.586 314.92 132.421 314.953 131.245L286.782 150.587V175.561H286.793Z" fill="#DA1A5D"/>
<path d="M201.418 52.828L194.279 27.2716C193.309 31.1901 191.617 38.8104 190.32 48.8771L201.406 52.8388L201.418 52.828Z" fill="#D3BD32"/>
<path d="M196.296 26.4194L203.178 51.9866L210.808 43.7123C204.522 35.3733 199.125 29.4076 196.296 26.4194Z" fill="#D3BD32"/>
<path d="M188.865 66.3532C188.224 79.7022 188.81 92.6857 190.589 105.057L218.491 115.052L206.545 71.695L188.909 65.6224C188.898 65.8588 188.876 66.106 188.865 66.3425V66.3532Z" fill="#F8EAD7"/>
<path d="M189.467 64.0353L205.686 69.8836L201.629 54.4488L190.633 50.2821C190.108 54.8344 189.729 59.4509 189.467 64.0353Z" fill="#DA1A5D"/>
<path d="M211.118 176.663C219.413 196.278 231.609 207.313 242.393 205.112L236.252 182.511L209.954 173.857C210.342 174.814 210.73 175.749 211.118 176.663Z" fill="#D3BD32"/>
<path d="M191.826 111.396C192.522 115.399 193.359 119.37 194.316 123.213C196.371 131.476 198.481 139.258 200.623 146.429L229.588 156.812L218.867 117.422L191.174 107.382C191.381 108.731 191.587 110.069 191.826 111.407V111.396Z" fill="#357079"/>
<path d="M202.313 151.281C204.595 158.786 206.929 165.654 209.285 171.798L235.564 180.675L229.764 158.743L201.418 148.29C201.716 149.305 202.015 150.298 202.313 151.292V151.281Z" fill="#DA1A5D"/>
<path d="M220.302 58.222C220.249 58.1357 220.185 58.0386 220.132 57.9522L208.247 71.5151L219.708 115.052L238.124 93.1164C233.481 81.3555 227.501 69.6377 220.302 58.222Z" fill="#F8EAD7"/>
<path d="M240.693 98.0512C240.266 96.9003 239.817 95.7494 239.368 94.5985L220.198 116.856L230.993 156.812L250.929 133.186C249.134 125.825 246.999 117.953 244.568 109.68C243.441 105.825 242.138 101.916 240.693 98.0512Z" fill="#357079"/>
<path d="M211.367 45.1686L203.125 54.0792L207.384 69.8836L219.344 56.5671C216.807 52.6982 214.125 48.8731 211.367 45.1686Z" fill="#DA1A5D"/>
<path d="M244.288 205.379C254.787 201.896 259.772 186.003 257.004 164.49C256.863 163.373 256.701 162.234 256.528 161.073L238.125 182.325L244.288 205.39V205.379Z" fill="#D3BD32"/>
<path d="M237.246 180.675L256.051 159.011C255.045 152.506 253.655 145.398 251.916 137.786C251.675 136.757 251.435 135.705 251.183 134.654L231.295 158.431L237.246 180.664V180.675Z" fill="#DA1A5D"/>
<path d="M130.555 96.2918L118.614 74.1448C118.718 78.0314 119.083 85.5589 120.356 95.2643L130.565 96.303L130.555 96.2918Z" fill="#D3BD32"/>
<path d="M119.468 74.1555L132.341 95.4507L137.394 86.1943C129.406 80.2123 122.863 76.1459 119.468 74.1448V74.1555Z" fill="#D3BD32"/>
<path d="M123.024 111.457C125.728 123.873 129.431 135.678 134.036 146.63L161.296 149.142L140.053 112.145L122.882 110.791C122.926 111.02 122.969 111.239 123.024 111.468V111.457Z" fill="#F8EAD7"/>
<path d="M122.599 109.462L139.102 110.791L131.557 97.3885L120.321 96.303C120.947 100.7 121.714 105.109 122.599 109.473V109.462Z" fill="#DA1A5D"/>
<path d="M169.855 205.967C182.069 221.928 195.693 229.085 204.832 224.457L193.825 205.246L168.126 203.685C168.702 204.46 169.279 205.224 169.845 205.967H169.855Z" fill="#D3BD32"/>
<path d="M136.41 150.938C138.031 154.407 139.771 157.832 141.576 161.106C145.47 168.14 149.298 174.711 153.007 180.732L181.784 183.231L162.371 149.936L134.833 147.437C135.355 148.611 135.877 149.786 136.41 150.938Z" fill="#357079"/>
<path d="M155.162 184.919C159.082 191.262 162.905 197.012 166.566 202.08L192.881 203.685L182.214 184.93L153.614 182.379C154.133 183.237 154.653 184.083 155.162 184.919Z" fill="#DA1A5D"/>
<path d="M149.465 96.5088C149.39 96.4438 149.315 96.3788 149.24 96.303L141.663 111.57L162.579 148.29L174.101 123.791C167.036 114.257 158.764 105.09 149.465 96.498V96.5088Z" fill="#F8EAD7"/>
<path d="M177.339 128.074C176.694 127.135 176.027 126.207 175.36 125.279L163.857 149.874L182.736 183.231L194.589 157.223C191.276 151.039 187.551 144.467 183.466 137.603C181.562 134.409 179.498 131.204 177.329 128.074H177.339Z" fill="#357079"/>
<path d="M138.145 86.9391L133.126 96.8502L140.45 109.939L147.638 95.2074C144.558 92.354 141.372 89.5871 138.135 86.9283L138.145 86.9391Z" fill="#DA1A5D"/>
<path d="M206.471 223.287C215.029 217.642 215.692 202.211 208.076 183.626C207.68 182.66 207.263 181.673 206.835 180.675L195.442 204.121L206.471 223.287Z" fill="#D3BD32"/>
<path d="M194.093 202.822L205.686 179.041C203.24 173.49 200.31 167.496 196.937 161.125C196.485 160.263 196.011 159.39 195.537 158.516L183.491 184.453L194.093 202.833V202.822Z" fill="#DA1A5D"/>
<path d="M69.9563 152.613L52.8834 136.358C53.9321 139.708 56.1311 146.15 59.7396 154.255L69.9563 152.613Z" fill="#D3BD32"/>
<path d="M54.5906 135.506L70.45 151.699L72.5172 142.211C64.3839 138.672 57.9108 136.519 54.5906 135.506Z" fill="#D3BD32"/>
<path d="M66.8323 168.847C72.2137 179.331 78.3378 189.024 85.0754 197.719L110.078 193.383L82.234 165.334L66.5417 168.273C66.6386 168.457 66.7354 168.652 66.8323 168.847Z" fill="#F8EAD7"/>
<path d="M65.764 167.039L81.0537 164.215L71.0269 154.255L60.5662 156.012C62.183 159.72 63.9192 163.417 65.7531 167.039H65.764Z" fill="#DA1A5D"/>
<path d="M131.024 242.555C146.331 253.957 160.769 257.092 168.126 250.704L153.138 236.07L128.858 240.912C129.584 241.471 130.309 242.018 131.024 242.555Z" fill="#D3BD32"/>
<path d="M88.4244 201.396C90.6948 204.121 93.0722 206.772 95.4604 209.273C100.611 214.648 105.602 219.629 110.346 224.139L136.541 219.533L111.267 194.31L86.1755 198.628C86.9145 199.558 87.6641 200.488 88.4244 201.396Z" fill="#357079"/>
<path d="M113.768 227.161C118.763 231.79 123.533 235.906 128.003 239.479L151.906 234.616L137.95 220.73L111.785 225.316C112.449 225.945 113.114 226.564 113.768 227.172V227.161Z" fill="#DA1A5D"/>
<path d="M86.2373 148.419C86.1512 148.376 86.0651 148.333 85.9898 148.29L82.761 163.859L110.604 191.754L115.2 166.932C106.482 160.086 96.7632 153.875 86.2373 148.419Z" fill="#F8EAD7"/>
<path d="M119.071 169.945C118.233 169.257 117.384 168.568 116.525 167.891L111.785 193.256L137.787 219.025L142.516 192.284C137.876 187.456 132.739 182.376 127.206 177.133C124.626 174.686 121.893 172.271 119.082 169.956L119.071 169.945Z" fill="#357079"/>
<path d="M74.0243 143.176L71.6636 153.076L82.0619 162.778L85.3219 148.137C81.6235 146.385 77.8351 144.728 74.0355 143.187L74.0243 143.176Z" fill="#DA1A5D"/>
<path d="M169.119 249.706C175.526 242.567 172.387 228.557 160.96 213.703C160.369 212.935 159.756 212.145 159.122 211.355L154.467 235.162L169.119 249.706Z" fill="#D3BD32"/>
<path d="M153.152 234.366L157.882 209.756C154.318 205.277 150.214 200.504 145.624 195.512C144.998 194.835 144.372 194.146 143.724 193.458L139.102 220.144L153.152 234.355V234.366Z" fill="#DA1A5D"/>
<path d="M46.9078 228.621L28.9813 219.878C30.7465 222.332 34.266 227.003 39.3644 232.661L46.9078 228.621Z" fill="#D3BD32"/>
<path d="M29.835 219.095L47.7615 227.548L46.8439 219.482C38.9894 218.917 32.9374 218.991 29.8459 219.106L29.835 219.095Z" fill="#D3BD32"/>
<path d="M49.0018 242.371C56.1774 249.404 63.7396 255.582 71.5167 260.785L90.4438 250.28L60.4418 235.218L48.6151 241.988C48.744 242.119 48.8729 242.251 49.0018 242.371Z" fill="#F8EAD7"/>
<path d="M47.3085 241.173L58.8589 234.632L48.025 229.252L40.0787 233.591C42.4018 236.188 44.8334 238.729 47.3085 241.184V241.173Z" fill="#DA1A5D"/>
<path d="M121.607 284.265C136.646 289.15 148.758 287.862 152.76 281.03L137.093 273.569L119.468 283.554C120.192 283.802 120.905 284.039 121.607 284.265Z" fill="#D3BD32"/>
<path d="M75.1226 263.153C77.7388 264.697 80.4092 266.167 83.0689 267.501C88.7789 270.368 94.2393 272.973 99.3632 275.273L119.468 264.581L91.8076 251.41L72.5172 261.577C73.3857 262.113 74.2541 262.649 75.1226 263.163V263.153Z" fill="#357079"/>
<path d="M102.805 276.881C108.126 279.259 113.114 281.283 117.714 282.943L135.687 272.458L120.563 265.046L100.688 275.928C101.397 276.249 102.106 276.571 102.805 276.881Z" fill="#DA1A5D"/>
<path d="M59.1009 220.763C59.0239 220.752 58.9359 220.741 58.8589 220.73L60.5639 234.505L91.2974 249.706L88.1405 227.905C79.0546 224.71 69.2977 222.311 59.1119 220.774L59.1009 220.763Z" fill="#F8EAD7"/>
<path d="M92.0957 229.348C91.2641 229.025 90.4324 228.712 89.5901 228.4L92.6432 249.831L119.468 263.342L116.036 240.823C111.182 238.226 105.898 235.565 100.255 232.882C97.6228 231.632 94.8856 230.447 92.1063 229.348H92.0957Z" fill="#357079"/>
<path d="M47.7615 219.888L48.7492 228.403L59.7125 233.513L58.0664 220.971C54.6534 220.513 51.1964 220.148 47.7615 219.878V219.888Z" fill="#DA1A5D"/>
<path d="M153.654 280.387C156.865 272.684 150.411 261.954 136.981 252.837C136.287 252.365 135.56 251.882 134.833 251.41L137.686 272.432L153.654 280.376V280.387Z" fill="#D3BD32"/>
<path d="M136.541 271.853L133.666 250.483C129.565 247.832 124.943 245.093 119.854 242.321C119.171 241.946 118.466 241.57 117.76 241.184L121.286 264.222L136.541 271.864V271.853Z" fill="#DA1A5D"/>
<path d="M50.3224 329.816L35.8104 333.838C38.0486 334.326 42.4106 335.171 48.1466 335.782L50.312 329.816H50.3224Z" fill="#D3BD32"/>
<path d="M34.9568 333.225L50.3224 328.625L45.2701 323.851C40.2947 327.917 36.7361 331.402 34.9678 333.225H34.9568Z" fill="#D3BD32"/>
<path d="M58.4476 336.562C66.5859 336.825 74.5032 336.365 82.0223 335.215L87.8829 318.737L61.5547 326.122L58.0052 336.54C58.149 336.54 58.3038 336.551 58.4476 336.562Z" fill="#F8EAD7"/>
<path d="M57.3601 336.634L60.5662 326.407L51.7648 329.089L49.4688 336.022C52.0751 336.312 54.7228 336.512 57.3497 336.634H57.3601Z" fill="#DA1A5D"/>
<path d="M123.718 323.146C135.486 318.029 142.036 310.667 140.618 304.249L127.03 308.098L122.029 323.851C122.602 323.612 123.165 323.374 123.707 323.135L123.718 323.146Z" fill="#D3BD32"/>
<path d="M85.152 334.52C87.5215 334.077 89.8695 333.548 92.1426 332.955C97.0317 331.681 101.631 330.364 105.867 329.048L111.785 311.919L88.4972 318.557L82.761 334.93C83.5544 334.8 84.3478 334.66 85.1412 334.509L85.152 334.52Z" fill="#357079"/>
<path d="M109.277 328.401C113.677 326.997 117.701 325.552 121.296 324.106L126.297 308.51L113.43 312.125L107.517 328.964C108.107 328.783 108.697 328.592 109.277 328.411V328.401Z" fill="#DA1A5D"/>
<path d="M53.8962 318.187C53.8962 318.187 53.7901 318.264 53.737 318.298L61.7416 325.555L87.0292 318.053L74.0881 306.806C67.2726 309.796 60.4889 313.608 53.8962 318.176V318.187Z" fill="#F8EAD7"/>
<path d="M77.1072 306.192C76.4272 306.448 75.7581 306.715 75.0781 306.993L88.3426 317.885L111.785 311.318L97.7109 299.988C93.3937 301.088 88.7744 302.38 83.9175 303.864C81.6618 304.548 79.3629 305.338 77.0964 306.203L77.1072 306.192Z" fill="#357079"/>
<path d="M46.0542 323.43L51.3431 328.112L60.5662 325.524L52.6653 318.737C50.4219 320.241 48.2001 321.808 46.0542 323.43Z" fill="#DA1A5D"/>
<path d="M140.798 303.131C138.631 297.21 129.146 294.508 116.371 296.247C115.707 296.34 115.032 296.434 114.346 296.537L127.142 306.806L140.809 303.131H140.798Z" fill="#D3BD32"/>
<path d="M126.297 307.405L113.338 296.579C109.503 297.227 105.318 298.092 100.827 299.172C100.215 299.323 99.603 299.475 98.9802 299.626L113.207 311.067L126.297 307.405Z" fill="#DA1A5D"/>
<path d="M58.8589 378.394L48.6151 385.212C50.4418 385.09 53.9913 384.768 58.5371 383.924L58.8589 378.394Z" fill="#D3BD32"/>
<path d="M47.7615 384.36L58.8589 378.035L53.8594 375.837C50.8104 379.647 48.7591 382.758 47.7615 384.36Z" fill="#D3BD32"/>
<path d="M66.8689 382.567C73.118 380.966 79.0291 378.858 84.5039 376.297L85.3219 362.201L66.9343 373.781L66.5417 382.655C66.6507 382.622 66.7707 382.6 66.8798 382.567H66.8689Z" fill="#F8EAD7"/>
<path d="M66.1653 382.913L66.5417 374.133L60.0674 378.37L59.7125 384.36C61.8634 383.953 64.0251 383.467 66.1653 382.925V382.913Z" fill="#DA1A5D"/>
<path d="M113.797 357.032C121.965 350.645 125.486 343.699 122.901 339.191L113.006 345.029L112.639 357.94C113.04 357.634 113.43 357.339 113.809 357.043L113.797 357.032Z" fill="#D3BD32"/>
<path d="M87.0366 374.998C88.7407 374.137 90.4131 373.222 92.0219 372.266C95.4619 370.225 98.6796 368.216 101.612 366.282L102.395 351.975L86.1157 362.147L85.3219 375.837C85.9041 375.561 86.4756 375.285 87.0472 374.998H87.0366Z" fill="#357079"/>
<path d="M103.671 364.78C106.856 362.67 109.731 360.615 112.261 358.658L112.639 345.157L103.216 350.929L102.395 365.61C102.828 365.326 103.249 365.053 103.671 364.769V364.78Z" fill="#DA1A5D"/>
<path d="M58.9544 369.484C58.9544 369.484 58.8907 369.561 58.8589 369.605L66.564 373.281L84.4683 361.804L72.104 356.236C67.4873 360.065 63.0723 364.507 58.9544 369.484Z" fill="#F8EAD7"/>
<path d="M73.9274 354.665C73.4536 355.014 72.9799 355.385 72.5172 355.745L85.451 361.349L102.395 350.914L88.7229 345.157C85.5721 346.989 82.234 349.049 78.7527 351.296C77.1333 352.343 75.5028 353.477 73.9274 354.665Z" fill="#357079"/>
<path d="M54.5906 375.054L59.469 377.542L65.688 373.433L58.4376 369.872C57.1071 371.559 55.818 373.29 54.5906 375.054Z" fill="#DA1A5D"/>
<path d="M122.871 338.25C119.787 333.895 111.746 333.808 102.197 338.085C101.701 338.305 101.194 338.546 100.688 338.776L113.09 344.304L122.882 338.239L122.871 338.25Z" fill="#D3BD32"/>
<path d="M111.785 344.629L99.6932 339.191C96.9601 340.516 94.0036 342.086 90.8769 343.892C90.4516 344.138 90.0262 344.383 89.5901 344.64L102.767 350.27L111.785 344.629Z" fill="#DA1A5D"/>
<path d="M522.389 380.233L535.193 386.916C533.98 385.119 531.53 381.7 527.98 377.542L522.4 380.233H522.389Z" fill="#D3BD32"/>
<path d="M534.34 387.769L522.389 380.951L522.811 387.051C528.116 387.679 532.23 387.769 534.329 387.769H534.34Z" fill="#D3BD32"/>
<path d="M522.124 370.342C517.141 365.322 511.85 360.872 506.383 357.088L492.511 363.86L513.72 374.985L522.389 370.61C522.301 370.524 522.212 370.428 522.124 370.331V370.342Z" fill="#F8EAD7"/>
<path d="M522.75 371.576L514.706 375.966L521.979 380.098L527.51 377.194C525.99 375.284 524.386 373.397 522.75 371.576Z" fill="#DA1A5D"/>
<path d="M472.212 339.264C461.568 335.23 452.867 335.888 449.829 340.887L460.852 346.861L473.731 339.845C473.221 339.648 472.711 339.451 472.223 339.253L472.212 339.264Z" fill="#D3BD32"/>
<path d="M503.55 355.618C501.773 354.408 499.965 353.254 498.156 352.189C494.282 349.915 490.557 347.851 487.068 346.009L472.877 353.432L491.702 363.906L505.316 356.849C504.727 356.428 504.138 356.017 503.55 355.607V355.618Z" fill="#357079"/>
<path d="M485.007 344.776C481.19 342.935 477.597 341.358 474.294 340.043L460.926 347.12L471.761 352.827L486.535 345.509C486.022 345.258 485.52 345.006 485.018 344.765L485.007 344.776Z" fill="#DA1A5D"/>
<path d="M513.693 385.18C513.746 385.18 513.799 385.201 513.852 385.212L513.023 375.819L492.511 364.758L494.138 379.634C500.231 382.027 506.792 383.887 513.682 385.18H513.693Z" fill="#F8EAD7"/>
<path d="M491.524 378.531C492.138 378.773 492.751 379.015 493.365 379.246L491.647 364.468L472.023 354.531L473.998 370.068C477.546 371.962 481.406 373.92 485.544 375.91C487.463 376.836 489.482 377.72 491.524 378.531Z" fill="#357079"/>
<path d="M521.535 386.916L521.084 380.685L513.852 376.69L514.639 385.869C516.917 386.29 519.236 386.636 521.535 386.916Z" fill="#DA1A5D"/>
<path d="M448.827 341.758C446.288 346.996 450.714 354.561 460.252 361.167C460.746 361.512 461.263 361.857 461.78 362.201L460.241 347.621L448.827 341.748V341.758Z" fill="#D3BD32"/>
<path d="M460.926 348.566L462.467 363.161C465.369 365.063 468.64 367.029 472.246 369.049C472.737 369.327 473.228 369.594 473.731 369.872L471.755 354.133L460.926 348.566Z" fill="#DA1A5D"/>
<path d="M526.657 329.645L542.022 334.078C540.298 332.413 536.883 329.27 532.088 325.555L526.668 329.645H526.657Z" fill="#D3BD32"/>
<path d="M542.022 334.854L526.657 330.669L528.514 336.634C534.807 336.106 539.596 335.314 542.022 334.854Z" fill="#D3BD32"/>
<path d="M523.728 319.184C516.973 314.591 510.023 310.72 503.018 307.658L489.096 318.558L515.427 326.407L524.096 319.432C523.977 319.345 523.858 319.259 523.728 319.184Z" fill="#F8EAD7"/>
<path d="M524.883 319.59L516.413 326.21L525.921 328.964L531.779 324.536C529.549 322.831 527.232 321.168 524.894 319.59H524.883Z" fill="#DA1A5D"/>
<path d="M459.115 294.698C446.31 292.628 436.732 295.406 434.463 301.781L448.131 305.954L460.926 295.003C460.308 294.894 459.701 294.785 459.104 294.698H459.115Z" fill="#D3BD32"/>
<path d="M499.566 305.901C497.232 304.971 494.864 304.118 492.529 303.372C487.511 301.762 482.721 300.346 478.248 299.136L463.487 310.71L487.729 317.885L501.901 306.862C501.126 306.538 500.352 306.214 499.566 305.901Z" fill="#357079"/>
<path d="M475.276 298.538C470.597 297.374 466.225 296.43 462.235 295.727L448.975 306.375L462.377 310.215L477.145 299C476.522 298.843 475.899 298.675 475.276 298.528V298.538Z" fill="#DA1A5D"/>
<path d="M517.923 337.455C517.989 337.455 518.055 337.455 518.12 337.455L514.903 326.706L488.243 318.737L493.704 335.693C501.42 337.017 509.54 337.608 517.923 337.466V337.455Z" fill="#F8EAD7"/>
<path d="M490.338 335.364C491.052 335.514 491.776 335.643 492.511 335.782L487.154 319.037L463.487 311.919L469.302 329.479C473.605 330.883 478.271 332.287 483.223 333.66C485.535 334.303 487.92 334.871 490.338 335.364Z" fill="#357079"/>
<path d="M527.51 337.024L525.435 330.059L515.559 327.26L518.78 337.487C521.682 337.411 524.619 337.261 527.51 337.024Z" fill="#DA1A5D"/>
<path d="M433.837 302.545C432.255 309.1 439.023 316.736 451.286 322.155C451.927 322.436 452.58 322.717 453.243 322.999L448.035 306.698L433.837 302.545Z" fill="#D3BD32"/>
<path d="M448.975 307.658L454.026 323.856C457.601 325.367 461.601 326.868 465.962 328.358C466.556 328.56 467.15 328.762 467.755 328.964L461.973 311.564L448.975 307.669V307.658Z" fill="#DA1A5D"/>
<path d="M528.364 223.287L547.144 213.912C543.888 213.932 537.588 214.095 529.442 214.957L528.364 223.287Z" fill="#D3BD32"/>
<path d="M547.998 214.764L529.218 224.919L537.168 229.252C542.528 222.818 546.182 217.511 547.998 214.764Z" fill="#D3BD32"/>
<path d="M515.855 216.556C505.539 218.585 495.707 221.471 486.572 225.139L483.974 248.002L514.964 230.868L516.413 216.469C516.231 216.501 516.037 216.534 515.855 216.577V216.556Z" fill="#F8EAD7"/>
<path d="M517.783 216.418L516.413 230.104L527.279 224.088L528.364 214.764C524.834 215.202 521.293 215.756 517.783 216.418Z" fill="#DA1A5D"/>
<path d="M435.121 254.534C421.783 264.578 415.645 275.967 419.271 283.796L435.258 274.848L437.024 253.115C436.372 253.588 435.731 254.061 435.111 254.534H435.121Z" fill="#D3BD32"/>
<path d="M481.87 227.102C478.945 228.381 476.062 229.758 473.296 231.199C467.359 234.296 461.806 237.361 456.724 240.319L454.097 264.194L482.223 248.697L484.828 225.843C483.835 226.252 482.853 226.661 481.881 227.091L481.87 227.102Z" fill="#357079"/>
<path d="M452.873 242.431C447.685 245.583 442.982 248.669 438.817 251.627L437.024 273.569L452.356 265.018L454.951 241.184C454.244 241.603 453.559 242.023 452.873 242.431Z" fill="#DA1A5D"/>
<path d="M528.189 239.568C528.244 239.503 528.309 239.449 528.364 239.385L515.558 232.661L483.974 249.686L504.534 259.933C512.769 254.125 520.709 247.294 528.189 239.568Z" fill="#F8EAD7"/>
<path d="M501.192 261.785C502.001 261.241 502.81 260.687 503.608 260.132L482.881 249.706L454.097 265.373L476.016 276.125C481.351 273.386 487.024 270.298 492.95 266.906C495.704 265.329 498.481 263.611 501.192 261.796V261.785Z" fill="#357079"/>
<path d="M536.047 230.134L527.707 225.843L516.413 231.615L528.802 237.775C531.286 235.303 533.716 232.739 536.047 230.134Z" fill="#DA1A5D"/>
<path d="M419.951 284.359C424.537 291.817 437.502 292.69 453.302 286.521C454.118 286.204 454.956 285.865 455.804 285.516L436.288 275.273L419.951 284.359Z" fill="#D3BD32"/>
<path d="M437.888 275.307L457.379 285.5C462.023 283.552 467.06 281.206 472.395 278.493C473.118 278.127 473.851 277.751 474.584 277.374L453.319 266.751L437.878 275.307H437.888Z" fill="#DA1A5D"/>
<path d="M501.765 151.699L517.267 136.358C514.072 137.301 507.924 139.281 500.194 142.515L501.765 151.699Z" fill="#D3BD32"/>
<path d="M518.974 137.21L502.755 153.04L512.257 155.107C515.807 146.996 517.958 140.536 518.974 137.21Z" fill="#D3BD32"/>
<path d="M486.532 148.586C476.31 153.96 466.856 160.07 458.365 166.796L462.594 191.754L489.95 163.961L487.084 148.29C486.9 148.388 486.716 148.476 486.532 148.575V148.586Z" fill="#F8EAD7"/>
<path d="M488.243 148.138L490.882 162.778L500.194 153.184L498.554 143.176C495.079 144.717 491.625 146.385 488.243 148.148V148.138Z" fill="#DA1A5D"/>
<path d="M413.768 212.565C402.891 227.185 399.894 240.977 405.993 248.001L419.951 233.694L415.33 210.503C414.795 211.201 414.271 211.889 413.768 212.576V212.565Z" fill="#D3BD32"/>
<path d="M454.042 170.095C451.393 172.331 448.808 174.653 446.372 177.007C441.137 182.06 436.296 186.962 431.902 191.617L436.381 217.321L460.926 192.52L456.724 167.891C455.819 168.622 454.915 169.353 454.032 170.095H454.042Z" fill="#357079"/>
<path d="M428.871 194.576C424.239 199.568 420.109 204.33 416.536 208.797L421.409 232.661L435.317 218.726L430.728 192.606C430.105 193.274 429.483 193.931 428.871 194.587V194.576Z" fill="#DA1A5D"/>
<path d="M506.039 168.717C506.083 168.631 506.126 168.556 506.169 168.471L490.877 165.334L463.487 192.404L487.866 196.867C494.592 188.39 500.689 178.939 506.05 168.706L506.039 168.717Z" fill="#F8EAD7"/>
<path d="M484.545 200.538C485.216 199.728 485.876 198.896 486.535 198.065L461.98 193.458L437.024 218.702L462.91 223.287C467.583 218.778 472.505 213.8 477.579 208.427C479.948 205.932 482.284 203.273 484.534 200.538H484.545Z" fill="#357079"/>
<path d="M511.291 156.474L501.372 154.255L491.657 163.991L506.326 167.039C508.078 163.571 509.744 160.028 511.291 156.463V156.474Z" fill="#DA1A5D"/>
<path d="M406.293 248.998C413.442 255.386 427.478 252.258 442.357 240.853C443.133 240.26 443.92 239.646 444.707 239.02L420.865 234.366L406.293 248.998Z" fill="#D3BD32"/>
<path d="M422.523 233.269L446.141 237.775C450.442 234.374 455.022 230.468 459.817 226.089C460.471 225.499 461.125 224.889 461.78 224.278L436.155 219.878L422.512 233.269H422.523Z" fill="#DA1A5D"/>
<path d="M439.817 97.1552L452.39 75.8492C449.129 77.8149 442.921 81.7573 435.317 87.5561L439.805 97.1552H439.817Z" fill="#D3BD32"/>
<path d="M453.243 76.7015L441.292 98.0074L451.424 97.5613C452.757 87.9638 453.137 80.51 453.243 76.7015Z" fill="#D3BD32"/>
<path d="M423.188 98.4497C413.915 106.765 405.671 115.631 398.61 124.853L409.985 149.142L431.048 113.194L423.691 98.0074C423.527 98.1584 423.352 98.2987 423.188 98.4497Z" fill="#F8EAD7"/>
<path d="M424.219 96.9127L431.274 111.643L438.731 98.7527L434.086 88.6328C430.732 91.2846 427.421 94.0553 424.219 96.9127Z" fill="#DA1A5D"/>
<path d="M365.485 184.123C357.873 202.477 358.536 217.707 367.095 223.287L378.122 204.372L366.595 181.527C366.214 182.41 365.844 183.272 365.485 184.133V184.123Z" fill="#D3BD32"/>
<path d="M395.368 129.184C393.198 132.248 391.146 135.397 389.244 138.525C385.161 145.254 381.432 151.704 378.122 157.777L389.985 183.231L408.854 150.543L397.593 126.131C396.841 127.142 396.099 128.163 395.379 129.184H395.368Z" fill="#357079"/>
<path d="M375.864 161.906C372.446 168.272 369.496 174.273 367.025 179.8L378.672 202.833L389.22 184.789L377.224 159.369C376.756 160.218 376.299 161.068 375.853 161.906H375.864Z" fill="#DA1A5D"/>
<path d="M448.91 112.791C448.932 112.693 448.953 112.594 448.975 112.496L432.227 113.47L411.415 149.994L437.969 147.88C442.564 136.969 446.24 125.192 448.91 112.791Z" fill="#F8EAD7"/>
<path d="M435.63 152.231C436.109 151.205 436.567 150.179 437.024 149.142L410.043 151.248L390.927 184.084L419.291 181.589C422.929 175.659 426.698 169.189 430.532 162.265C432.318 159.046 434.029 155.666 435.619 152.242L435.63 152.231Z" fill="#357079"/>
<path d="M451.536 98.8707L440.334 99.3455L432.756 112.495L449.256 111.546C450.137 107.35 450.897 103.099 451.536 98.8597V98.8707Z" fill="#DA1A5D"/>
<path d="M367.879 224.474C376.969 229.044 390.518 221.978 402.675 206.213C403.301 205.392 403.948 204.549 404.585 203.685L378.837 205.49L367.889 224.474H367.879Z" fill="#D3BD32"/>
<path d="M379.83 203.685L405.766 201.873C409.286 197.082 412.947 191.668 416.704 185.697C417.21 184.893 417.727 184.068 418.244 183.231L390.262 185.708L379.84 203.685H379.83Z" fill="#DA1A5D"/>
<path d="M371.919 54.5433L378.976 28.9761C376.129 31.9005 370.756 37.6956 364.464 45.7915L371.919 54.5433Z" fill="#D3BD32"/>
<path d="M380.092 29.8284L373.001 55.3955L384.098 52.0309C382.8 41.6797 381.079 33.8252 380.092 29.8284Z" fill="#D3BD32"/>
<path d="M354.049 61.1147C346.902 72.5148 340.942 84.1961 336.294 95.9314L354.652 118.461L366.171 74.5265L354.441 60.509C354.313 60.7145 354.176 60.92 354.049 61.1255V61.1147Z" fill="#F8EAD7"/>
<path d="M355.074 59.0748L366.972 72.4403L371.293 56.9628L363.339 47.7254C360.484 51.4161 357.718 55.2241 355.085 59.0748H355.074Z" fill="#DA1A5D"/>
<path d="M317.411 167.568C314.65 189.264 319.636 205.289 330.136 208.799L336.294 185.548L317.82 164.482C317.669 165.525 317.53 166.557 317.401 167.568H317.411Z" fill="#D3BD32"/>
<path d="M333.726 101.054C332.291 104.942 330.987 108.884 329.857 112.761C327.423 121.102 325.293 129.052 323.489 136.469L343.43 160.221L354.22 119.973L335.214 97.1552C334.704 98.4476 334.204 99.74 333.726 101.043V101.054Z" fill="#357079"/>
<path d="M322.551 141.154C320.773 148.926 319.375 156.164 318.367 162.771L337.183 184.084L343.123 161.824L323.277 138.063C323.028 139.108 322.789 140.142 322.551 141.154Z" fill="#DA1A5D"/>
<path d="M385.558 69.3541C385.558 69.2465 385.547 69.1389 385.536 69.0313L367.874 74.7542L355.928 118.461L383.77 108.801C385.602 96.2043 386.195 82.9621 385.558 69.3541Z" fill="#F8EAD7"/>
<path d="M382.66 114.425C382.866 113.224 383.06 112.013 383.244 110.791L355.569 120.503L344.83 160.221L373.846 149.715C375.988 142.49 378.096 134.664 380.151 126.346C381.103 122.476 381.947 118.467 382.649 114.425H382.66Z" fill="#357079"/>
<path d="M384.632 53.691L372.998 57.3478L368.732 73.2925L385.805 67.6482C385.553 62.9921 385.158 58.3141 384.632 53.691Z" fill="#DA1A5D"/>
<path d="M332.026 209.368C343.05 211.61 355.518 200.387 363.994 180.452C364.432 179.422 364.869 178.349 365.318 177.266L338.303 186.396L332.026 209.368Z" fill="#D3BD32"/>
<path d="M338.855 184.084L365.915 174.878C368.279 168.834 370.633 162.083 372.921 154.731C373.236 153.735 373.54 152.727 373.854 151.698L344.809 162.179L338.866 184.084H338.855Z" fill="#DA1A5D"/>
<path d="M454.086 452.259C449.725 455.943 445.233 459.854 440.655 464.002C438.166 466.249 435.644 468.583 433.09 470.981C432.451 471.576 431.813 472.181 431.174 472.786C423.468 480.11 415.568 488.072 407.591 496.715C406.801 497.569 406.022 498.422 405.232 499.286C404.637 499.935 404.052 500.594 403.457 501.242C403.1 501.642 402.743 502.041 402.386 502.441C401.682 503.219 400.989 503.997 400.297 504.785C399.604 505.574 398.901 506.363 398.208 507.162C387.602 519.305 378.175 531.222 369.831 542.673C369.56 543.03 367.937 545.288 367.937 545.288C367.46 545.936 366.995 546.584 366.54 547.232C360.674 555.465 355.36 563.416 350.566 571H223.604C219.004 563.718 213.917 556.102 208.322 548.215V547.546C208.094 547.448 207.867 547.34 207.629 547.232C198.484 534.409 187.986 520.937 175.961 507.173C174.609 505.617 173.245 504.083 171.892 502.571C171.438 502.063 170.983 501.555 170.539 501.058C168.84 499.168 167.13 497.309 165.442 495.484C165.03 495.041 164.619 494.598 164.208 494.155C161.113 490.849 158.028 487.64 154.965 484.54C147.671 477.128 140.495 470.301 133.525 464.002C129.824 460.653 126.187 457.455 122.637 454.42L120.321 452.259L124.607 395.53V395.508C126.404 348.232 142.66 301.442 170.225 266.212C194.544 263.986 214.404 246.388 219.967 223.247C239.784 212.432 262.23 206.242 286.863 206.242C311.496 206.242 332.34 211.6 351.453 221.14C357.319 244.767 378.088 262.506 403.219 263.868C426.964 293.923 441.716 333.032 445.634 374.517L454.097 452.259H454.086Z" fill="#F8EAD7"/>
<path d="M405.138 499.671C404.759 500.092 404.38 500.513 403.991 500.935L403.363 501.637C403.006 502.036 402.649 502.425 402.292 502.825C401.589 503.602 400.897 504.38 400.204 505.169C399.512 505.957 398.809 506.745 398.116 507.545C397.067 508.744 396.028 509.953 395.001 511.152H408.178V496.377C407.951 496.625 407.723 496.863 407.496 497.111C406.706 497.964 405.927 498.818 405.138 499.682V499.671Z" fill="#D3BD32"/>
<path d="M416.054 488.06H431.038V473.209C425.975 478.026 420.944 483.016 416.054 488.06Z" fill="#D3BD32"/>
<path d="M431.038 512.276H409.303V534.093H431.038V512.276Z" fill="#D3BD32"/>
<path d="M409.303 495.156V511.152H431.038V489.194H414.961C413.068 491.16 411.164 493.169 409.303 495.167V495.156Z" fill="#D3BD32"/>
<path d="M431.038 535.227H409.303V557.531H431.038V535.227Z" fill="#D3BD32"/>
<path d="M408.178 535.227H386.237V557.531H408.178V535.227Z" fill="#D3BD32"/>
<path d="M431.038 558.655H409.303V570.417H431.038V558.655Z" fill="#D3BD32"/>
<path d="M360.586 557.531V556.019C360.24 556.527 359.894 557.034 359.558 557.531H360.586Z" fill="#D3BD32"/>
<path d="M351.087 570.417H360.586V558.655H358.79C356.15 562.575 353.565 566.528 351.087 570.417Z" fill="#D3BD32"/>
<path d="M385.112 558.655H361.722V570.417H385.112V558.655Z" fill="#D3BD32"/>
<path d="M408.178 558.655H386.237V570.417H408.178V558.655Z" fill="#D3BD32"/>
<path d="M369.771 543.004C369.501 543.36 369.241 543.717 368.982 544.084L368.711 544.451C368.43 544.84 368.148 545.229 367.878 545.618C367.402 546.277 366.937 546.925 366.482 547.562C364.914 549.765 363.345 552.001 361.711 554.377V557.542H385.101V535.238H375.57C373.536 537.917 371.589 540.531 369.782 543.015L369.771 543.004Z" fill="#D3BD32"/>
<path d="M385.101 534.093V523.044C382.159 526.695 379.248 530.399 376.425 534.093H385.101Z" fill="#D3BD32"/>
<path d="M386.237 521.651V534.104H408.178V512.286H394.038C391.474 515.289 388.856 518.443 386.248 521.651H386.237Z" fill="#D3BD32"/>
<path d="M459.296 489.183H454.103V511.152H463.061L459.296 489.183Z" fill="#D3BD32"/>
<path d="M463.256 512.276H454.103V534.093H466.988L463.256 512.276Z" fill="#D3BD32"/>
<path d="M467.183 535.227H454.103V557.531H471.013L467.183 535.227Z" fill="#D3BD32"/>
<path d="M455.077 464.579H454.103V488.06H459.101L455.077 464.579Z" fill="#D3BD32"/>
<path d="M471.208 558.655H454.103V570.417H473.22L471.208 558.655Z" fill="#D3BD32"/>
<path d="M452.967 558.655H432.163V570.417H452.967V558.655Z" fill="#D3BD32"/>
<path d="M452.967 512.276H432.163V534.093H452.967V512.276Z" fill="#D3BD32"/>
<path d="M452.967 535.227H432.163V557.531H452.967V535.227Z" fill="#D3BD32"/>
<path d="M452.967 489.183H432.163V511.141H452.967V489.183Z" fill="#D3BD32"/>
<path d="M454.103 458.919V463.456H454.882L454.103 458.919Z" fill="#D3BD32"/>
<path d="M432.942 471.405C432.693 471.643 432.433 471.88 432.184 472.118L432.163 472.139V488.06H452.967V464.579H440.32C437.81 466.847 435.322 469.148 432.931 471.405H432.942Z" fill="#D3BD32"/>
<path d="M452.978 463.455V453.497C449.105 456.781 445.286 460.118 441.586 463.455H452.978Z" fill="#D3BD32"/>
<path d="M168.478 499.995C168.857 500.416 169.235 500.837 169.625 501.259L170.252 501.961C170.609 502.36 170.966 502.749 171.323 503.149C172.027 503.926 172.719 504.704 173.411 505.493C174.104 506.281 174.807 507.07 175.499 507.869C176.549 509.068 177.587 510.277 178.615 511.476H165.438V496.701C165.665 496.949 165.892 497.187 166.12 497.435C166.909 498.288 167.688 499.142 168.478 500.006V499.995Z" fill="#D3BD32"/>
<path d="M157.562 488.384H142.578V473.533C147.641 478.35 152.672 483.34 157.562 488.384Z" fill="#D3BD32"/>
<path d="M164.313 512.6H142.578V534.417H164.313V512.6Z" fill="#D3BD32"/>
<path d="M164.313 495.48V511.476H142.578V489.518H158.655C160.548 491.484 162.452 493.493 164.313 495.491V495.48Z" fill="#D3BD32"/>
<path d="M164.313 535.541H142.578V557.845H164.313V535.541Z" fill="#D3BD32"/>
<path d="M187.378 535.541H165.438V557.845H187.378V535.541Z" fill="#D3BD32"/>
<path d="M164.313 558.979H142.578V570.741H164.313V558.979Z" fill="#D3BD32"/>
<path d="M213.03 557.844V556.332C213.376 556.84 213.722 557.348 214.057 557.844H213.03Z" fill="#D3BD32"/>
<path d="M222.528 570.741H213.03V558.979H214.826C217.465 562.899 220.051 566.852 222.528 570.741Z" fill="#D3BD32"/>
<path d="M211.904 558.979H188.514V570.741H211.904V558.979Z" fill="#D3BD32"/>
<path d="M187.378 558.979H165.438V570.741H187.378V558.979Z" fill="#D3BD32"/>
<path d="M203.834 543.328C204.104 543.685 204.364 544.041 204.623 544.408L204.894 544.775C205.175 545.164 205.456 545.553 205.727 545.942C206.203 546.601 206.668 547.249 207.123 547.886C208.691 550.089 210.26 552.325 211.894 554.701V557.866H188.504V535.562H198.035C200.069 538.241 202.016 540.855 203.823 543.339L203.834 543.328Z" fill="#D3BD32"/>
<path d="M188.514 534.417V523.368C191.457 527.019 194.367 530.723 197.191 534.417H188.514Z" fill="#D3BD32"/>
<path d="M187.378 521.964V534.417H165.438V512.6H179.578C182.142 515.602 184.76 518.756 187.368 521.964H187.378Z" fill="#D3BD32"/>
<path d="M114.32 489.507H119.502V511.476H110.555L114.32 489.507Z" fill="#D3BD32"/>
<path d="M110.36 512.6H119.502V534.417H106.617L110.36 512.6Z" fill="#D3BD32"/>
<path d="M106.422 535.541H119.502V557.845H102.603L106.422 535.541Z" fill="#D3BD32"/>
<path d="M118.539 464.903H119.502V488.384H114.514L118.539 464.903Z" fill="#D3BD32"/>
<path d="M102.408 558.979H119.502V570.741H100.396L102.408 558.979Z" fill="#D3BD32"/>
<path d="M141.442 558.979H120.638V570.741H141.442V558.979Z" fill="#D3BD32"/>
<path d="M141.442 512.6H120.638V534.417H141.442V512.6Z" fill="#D3BD32"/>
<path d="M141.442 535.541H120.638V557.845H141.442V535.541Z" fill="#D3BD32"/>
<path d="M141.442 489.507H120.638V511.465H141.442V489.507Z" fill="#D3BD32"/>
<path d="M119.502 459.243V463.769H118.734L119.502 459.243Z" fill="#D3BD32"/>
<path d="M140.663 471.729C140.912 471.967 141.172 472.204 141.42 472.442L141.442 472.463V488.384H120.638V464.903H133.285C135.795 467.171 138.283 469.472 140.674 471.729H140.663Z" fill="#D3BD32"/>
<path d="M120.638 463.769V453.81C124.511 457.094 128.33 460.431 132.03 463.769H120.638Z" fill="#D3BD32"/>
<path d="M335.408 370.127C331.494 370.42 328.056 367.186 327.743 362.911C327.429 358.636 330.337 354.925 334.251 354.632C338.164 354.339 341.602 357.572 341.915 361.848C342.229 366.123 339.321 369.834 335.408 370.127ZM396.747 347.546C381.277 312.486 350.456 293.486 327.916 305.107C307.44 315.665 300.835 347.85 311.376 379.936C325.462 390.636 337.343 408.583 343.321 426.01C356.758 435.624 371.591 438.446 383.936 432.076C406.487 420.455 412.217 382.606 396.747 347.546Z" fill="#162428"/>
<path d="M232.778 361.644C233.026 357.372 236.39 354.096 240.304 354.323C244.218 354.55 247.183 358.194 246.935 362.466C246.687 366.738 243.323 370.015 239.409 369.788C235.496 369.56 232.53 365.916 232.778 361.644ZM192.023 432.318C204.444 438.461 219.182 435.411 232.433 425.602C238.105 408.136 249.663 390.054 263.528 379.164C273.523 347.012 266.407 315.055 245.814 304.867C223.139 293.652 192.724 313.097 177.866 348.288C163.009 383.479 169.349 421.103 192.023 432.307V432.318Z" fill="#162428"/>
<path d="M347.391 448.411C347.391 479.235 316.879 482.367 286.043 482.367C255.207 482.367 228.734 479.235 228.734 448.411C228.734 417.587 255.218 370.724 286.043 370.724C294.727 370.724 303.378 374.439 311.328 380.466C325.401 391.115 337.271 408.979 343.244 426.324C345.901 434.025 347.391 441.607 347.391 448.422V448.411Z" fill="#DFCCA0"/>
<path d="M315.785 426.119V429.34C315.785 429.416 315.785 429.514 315.774 429.601C315.579 433.692 314.618 440.524 310.631 445.224C310.61 445.246 310.599 445.257 310.588 445.278C307.477 448.499 303.188 450.577 298.434 450.816C298.283 450.827 298.132 450.838 297.97 450.838C297.894 450.838 297.807 450.838 297.732 450.838H289.229V482.367H285.178V450.838H276.665C272.257 450.838 268.227 449.249 265.094 446.606C259.984 441.971 258.828 434.127 258.612 429.601V426.119C258.612 426.119 258.623 426.119 258.644 426.13C258.677 426.13 258.72 426.152 258.796 426.174C258.85 426.196 258.893 426.217 258.958 426.228C259.055 426.261 259.185 426.293 259.325 426.348C265.85 428.458 275.455 430.743 287.209 430.743C298.963 430.743 308.492 428.48 315.018 426.37C315.039 426.359 315.061 426.348 315.082 426.348C315.201 426.304 315.331 426.272 315.45 426.228C315.536 426.196 315.623 426.174 315.709 426.141C315.731 426.13 315.752 426.13 315.763 426.119C315.785 426.119 315.795 426.119 315.795 426.119C315.795 426.119 315.795 426.119 315.806 426.119H315.785Z" fill="#162428"/>
<path d="M285.064 450.834H276.328C271.805 450.834 267.67 449.246 264.455 446.603C259.211 441.969 258.024 434.126 257.803 429.6C257.703 427.501 257.803 426.119 257.803 426.119C257.803 426.119 257.814 426.119 257.836 426.13C257.869 426.13 257.914 426.152 257.991 426.174C258.047 426.196 258.091 426.217 258.158 426.228C258.257 426.261 258.39 426.293 258.534 426.348C261.018 427.175 269.41 430.275 275.951 435.975C283.468 442.534 284.931 450.345 285.075 450.823L285.064 450.834Z" fill="#375054"/>
<path d="M315.749 429.33C315.749 429.406 315.749 429.504 315.738 429.591C315.538 433.683 314.551 440.517 310.459 445.219C310.437 445.241 310.426 445.251 310.415 445.273C307.221 448.494 302.818 450.573 297.938 450.813C297.783 450.823 297.628 450.834 297.461 450.834C297.384 450.834 297.295 450.834 297.217 450.834H288.49C288.634 450.355 290.087 442.542 297.606 435.979C304.093 430.32 312.4 427.229 314.962 426.37C314.984 426.359 315.006 426.348 315.028 426.348C315.172 426.294 315.305 426.261 315.405 426.228C315.461 426.206 315.516 426.185 315.572 426.174C315.616 426.163 315.638 426.152 315.671 426.141C315.693 426.13 315.716 426.13 315.727 426.119C315.749 426.119 315.76 426.119 315.76 426.119C315.76 426.141 315.76 426.196 315.771 426.294C315.793 426.707 315.838 427.817 315.771 429.341L315.749 429.33Z" fill="#375054"/>
<path d="M513.852 434.684L519.828 439.755C519.383 438.632 518.474 436.472 517.057 433.79L513.852 434.684Z" fill="#D3BD32"/>
<path d="M519.828 439.755L513.427 434.642L512.998 438.032C516.114 438.987 518.563 439.514 519.828 439.755Z" fill="#D3BD32"/>
<path d="M514.583 428.776C512.328 425.607 509.839 422.713 507.16 420.154L498.487 422.317L509.27 430.381L514.706 428.949C514.661 428.888 514.628 428.837 514.583 428.776Z" fill="#F8EAD7"/>
<path d="M515.009 429.528L509.584 430.908L513.558 433.79L517.267 432.907C516.553 431.771 515.792 430.644 514.998 429.539L515.009 429.528Z" fill="#DA1A5D"/>
<path d="M490.014 406.149C484.43 402.76 479.427 402.158 477.145 404.578L482.729 409.075L490.804 406.633C490.54 406.461 490.277 406.299 490.014 406.149Z" fill="#D3BD32"/>
<path d="M506.161 418.678C505.288 417.819 504.394 416.992 503.489 416.218C501.55 414.553 499.676 413.017 497.898 411.631L489.096 414.081L498.588 421.858L507.023 419.549C506.743 419.259 506.452 418.968 506.161 418.678Z" fill="#357079"/>
<path d="M496.864 410.301C494.936 408.87 493.108 407.602 491.402 406.518L483.121 409L488.538 413.336L497.633 410.875C497.377 410.68 497.12 410.485 496.864 410.301Z" fill="#DA1A5D"/>
<path d="M508.065 436.315C508.065 436.315 508.13 436.336 508.151 436.346L508.73 431.071L498.373 422.71L497.633 431.103C500.807 433.093 504.313 434.841 508.055 436.315H508.065Z" fill="#F8EAD7"/>
<path d="M496.817 429.787C497.121 429.988 497.424 430.19 497.739 430.381L498.486 421.86L488.937 414.188L488.243 423.164C489.955 424.605 491.842 426.12 493.858 427.678C494.801 428.399 495.798 429.109 496.817 429.787Z" fill="#357079"/>
<path d="M512.568 438.051L512.998 434.397L509.289 431.233L508.73 436.636C509.999 437.148 511.278 437.616 512.568 438.051Z" fill="#DA1A5D"/>
<path d="M477.073 404.813C475.236 407.465 476.695 412.155 480.849 416.856C481.063 417.103 481.288 417.35 481.522 417.597L482.267 409.3L477.073 404.813Z" fill="#D3BD32"/>
<path d="M483.058 409.927L482.267 417.946C483.614 419.26 485.153 420.657 486.853 422.115C487.088 422.31 487.323 422.505 487.559 422.71L488.243 414.034L483.048 409.937L483.058 409.927Z" fill="#DA1A5D"/>
<path d="M477.145 404.441L476.86 404.813L455.804 387.554L457.78 385.212L477.145 404.441Z" fill="#DA1A5D"/>
<path d="M485.682 464.481L488.841 473.845C489.132 472.381 489.648 469.526 489.95 465.766L485.682 464.47V464.481Z" fill="#D3BD32"/>
<path d="M488.243 474.697L485.099 464.47L482.267 467.956C484.866 471.223 487.088 473.539 488.243 474.697Z" fill="#D3BD32"/>
<path d="M489.95 459.071C489.95 453.865 489.515 448.812 488.634 444.023L477.999 440.607L483.23 457.292L489.95 459.357C489.95 459.258 489.95 459.17 489.95 459.071Z" fill="#F8EAD7"/>
<path d="M489.95 459.726L483.121 457.652L485.085 463.841L489.71 465.322C489.847 463.465 489.916 461.584 489.939 459.726H489.95Z" fill="#DA1A5D"/>
<path d="M480.035 417.359C476.33 409.763 471.211 405.624 466.902 406.681L469.797 415.488L480.56 418.449C480.389 418.075 480.218 417.723 480.035 417.359Z" fill="#D3BD32"/>
<path d="M487.92 441.669C487.585 440.185 487.198 438.7 486.777 437.279C485.861 434.216 484.924 431.331 483.997 428.678L472.877 425.267L477.608 439.858L488.243 443.164C488.146 442.659 488.038 442.164 487.93 441.669H487.92Z" fill="#357079"/>
<path d="M483.588 426.673C482.589 423.814 481.569 421.195 480.56 418.862L470.316 415.893L472.915 424.274L483.975 427.824C483.846 427.44 483.706 427.057 483.577 426.684L483.588 426.673Z" fill="#DA1A5D"/>
<path d="M477.813 462.667C477.813 462.667 477.856 462.733 477.888 462.766L482.267 457.297L477.079 440.607L470.316 449.447C472.322 453.927 474.836 458.363 477.823 462.667H477.813Z" fill="#F8EAD7"/>
<path d="M469.687 447.837C469.872 448.272 470.058 448.706 470.254 449.13L477.145 440.321L472.358 425.267L465.194 434.608C466.001 437.378 466.95 440.354 468.019 443.46C468.509 444.905 469.076 446.382 469.687 447.826V447.837Z" fill="#357079"/>
<path d="M481.957 467.879L484.828 464.383L483.006 458.505L478.853 463.722C479.849 465.14 480.887 466.526 481.957 467.879Z" fill="#DA1A5D"/>
<path d="M466.619 407.381C462.528 408.883 460.83 415.001 462.303 423.129C462.382 423.55 462.46 423.983 462.55 424.415L469.463 416.028L466.608 407.37L466.619 407.381Z" fill="#D3BD32"/>
<path d="M469.39 416.745L462.633 424.968C463.123 427.331 463.776 429.904 464.559 432.655C464.668 433.033 464.777 433.411 464.886 433.79L472.023 424.768L469.39 416.745Z" fill="#DA1A5D"/>
<path d="M466.902 407.194L466.333 407.37L458.365 384.346L461.218 383.507L466.902 407.194Z" fill="#DA1A5D"/>
<path d="M58.8589 434.684L52.8834 439.755C53.3276 438.632 54.2371 436.472 55.6543 433.79L58.8589 434.684Z" fill="#D3BD32"/>
<path d="M53.737 440.607L59.3372 435.494L59.7125 438.885C56.9865 439.839 54.8432 440.366 53.737 440.607Z" fill="#D3BD32"/>
<path d="M58.9752 429.495C61.1114 426.062 63.4696 422.926 66.0077 420.154L74.2245 422.497L64.009 431.233L58.8589 429.682C58.9012 429.616 58.9329 429.561 58.9752 429.495Z" fill="#F8EAD7"/>
<path d="M58.3048 430.381L63.1271 431.76L59.5948 434.642L56.298 433.759C56.9328 432.623 57.6085 431.497 58.315 430.391L58.3048 430.381Z" fill="#DA1A5D"/>
<path d="M83.5015 406.149C88.7365 402.76 93.4264 402.158 95.5657 404.578L90.3307 409.075L82.761 406.633C83.0078 406.461 83.2547 406.299 83.5015 406.149Z" fill="#D3BD32"/>
<path d="M67.4035 418.678C68.2762 417.819 69.1703 416.992 70.0753 416.218C72.0145 414.553 73.889 413.017 75.6666 411.631L84.4683 414.081L74.9771 421.858L66.5417 419.549C66.8218 419.259 67.1127 418.968 67.4035 418.678Z" fill="#357079"/>
<path d="M76.6556 411.153C78.4705 409.722 80.1909 408.454 81.7959 407.37L89.5902 409.852L84.4919 414.188L75.9318 411.728C76.1731 411.532 76.4144 411.337 76.6556 411.153Z" fill="#DA1A5D"/>
<path d="M64.6456 437.165C64.6456 437.165 64.5812 437.187 64.5598 437.199L63.9808 431.593L74.3383 422.71L75.0782 431.627C71.9044 433.742 68.3983 435.599 64.6563 437.165H64.6456Z" fill="#F8EAD7"/>
<path d="M76.7475 430.639C76.444 430.841 76.1404 431.042 75.8261 431.233L75.0781 422.713L84.6281 415.04L85.3219 424.016C83.6092 425.457 81.723 426.973 79.7068 428.531C78.7637 429.251 77.7664 429.961 76.7475 430.639Z" fill="#357079"/>
<path d="M60.1426 438.903L59.7125 435.249L63.4217 432.085L63.9808 437.488C62.7121 438.001 61.4327 438.469 60.1426 438.903Z" fill="#DA1A5D"/>
<path d="M96.3801 405.666C98.4793 408.317 96.8116 413.007 92.0649 417.709C91.82 417.955 91.5634 418.202 91.2952 418.449L90.4438 410.152L96.3801 405.666Z" fill="#D3BD32"/>
<path d="M90.5064 409.927L91.2974 418.481C89.9505 419.883 88.4112 421.372 86.7116 422.927C86.4764 423.136 86.2412 423.344 86.006 423.563L85.3219 414.308L90.5171 409.938L90.5064 409.927Z" fill="#DA1A5D"/>
<path d="M95.5657 405.294L95.8733 405.666L117.76 388.406L115.706 386.064L95.5657 405.294Z" fill="#DA1A5D"/>
<path d="M87.8829 465.333L84.7237 474.697C84.4324 473.233 83.9171 470.378 83.6146 466.618L87.8829 465.322V465.333Z" fill="#D3BD32"/>
<path d="M85.3219 474.697L88.4652 465.322L91.2974 468.517C88.6984 471.513 86.477 473.636 85.3219 474.697Z" fill="#D3BD32"/>
<path d="M83.6146 459.923C83.6146 454.717 84.0185 449.665 84.8365 444.876L94.712 441.46L89.855 458.144L83.6146 460.209C83.6146 460.11 83.6146 460.022 83.6146 459.923Z" fill="#F8EAD7"/>
<path d="M83.6146 460.348L89.5901 458.505L87.8714 464.005L83.8245 465.322C83.7046 463.671 83.6446 462 83.6246 460.348H83.6146Z" fill="#DA1A5D"/>
<path d="M93.4964 418.212C96.9701 410.616 101.769 406.476 105.809 407.533L103.095 416.34L93.0047 419.301C93.165 418.927 93.3253 418.575 93.4964 418.212Z" fill="#D3BD32"/>
<path d="M84.7915 442.521C85.1255 441.037 85.5135 439.553 85.9337 438.131C86.8496 435.068 87.7871 432.183 88.7137 429.53L99.8339 426.119L95.1035 440.711L84.4683 444.016C84.5652 443.511 84.673 443.016 84.7807 442.521H84.7915Z" fill="#357079"/>
<path d="M89.9767 427.526C90.9753 424.666 91.9954 422.048 93.0047 419.714L103.248 416.745L100.65 425.126L89.5901 428.676C89.719 428.293 89.8586 427.909 89.9874 427.537L89.9767 427.526Z" fill="#DA1A5D"/>
<path d="M94.8985 463.519C94.8985 463.519 94.8553 463.585 94.823 463.618L90.4438 458.15L95.6319 441.46L102.395 450.299C100.389 454.779 97.8754 459.215 94.8877 463.519H94.8985Z" fill="#F8EAD7"/>
<path d="M103.024 448.69C102.839 449.124 102.653 449.558 102.457 449.982L95.5657 441.173L100.353 426.119L107.517 435.46C106.71 438.23 105.761 441.206 104.693 444.312C104.202 445.757 103.635 447.234 103.024 448.679V448.69Z" fill="#357079"/>
<path d="M91.6077 467.879L88.7365 464.383L90.5588 458.505L94.712 463.722C93.7161 465.14 92.6778 466.526 91.6077 467.879Z" fill="#DA1A5D"/>
<path d="M106.63 407.381C110.266 408.883 111.775 415.001 110.466 423.129C110.396 423.55 110.326 423.983 110.246 424.415L104.102 416.028L106.64 407.37L106.63 407.381Z" fill="#D3BD32"/>
<path d="M103.321 416.745L110.078 425.379C109.588 427.86 108.935 430.562 108.152 433.451C108.043 433.848 107.934 434.245 107.825 434.642L100.688 425.169L103.321 416.745Z" fill="#DA1A5D"/>
<path d="M105.809 407.2L106.378 407.37L114.346 385.169L111.483 384.36L105.809 407.2Z" fill="#DA1A5D"/>
<path d="M804 334H782.038C779.574 334 777.552 333.387 775.964 332.16C774.377 330.933 773.232 329.411 772.529 327.586L761.127 296.574H697.873L686.471 327.586C685.906 329.202 684.797 330.666 683.145 332.001C681.492 333.336 679.462 334 677.071 334H655L714.978 182H744.014L803.993 334H804ZM705.164 276.601H753.843L735.259 226.043C734.411 223.799 733.483 221.158 732.461 218.106C731.439 215.061 730.439 211.749 729.453 208.17C728.467 211.742 727.496 215.075 726.546 218.156C725.597 221.237 724.662 223.936 723.749 226.252L705.164 276.601Z" fill="#E63D78"/>
<path d="M893.996 333.425C890.608 333.425 888.383 331.842 887.321 328.685L885.205 318.265C882.944 320.794 880.581 323.07 878.109 325.108C875.637 327.146 872.968 328.894 870.111 330.368C867.253 331.842 864.177 332.984 860.898 333.786C857.611 334.595 854.063 335 850.253 335C844.32 335 838.881 333.772 833.937 331.315C828.992 328.858 824.739 325.296 821.176 320.628C817.606 315.96 814.857 310.186 812.916 303.315C810.974 296.436 810 288.574 810 279.737C810 271.738 811.091 264.295 813.287 257.423C815.475 250.544 818.616 244.583 822.717 239.525C826.811 234.474 831.719 230.522 837.441 227.682C843.164 224.842 849.584 223.419 856.717 223.419C862.788 223.419 867.98 224.387 872.292 226.316C876.596 228.246 880.45 230.825 883.838 234.055V177H910V333.432H894.003L893.996 333.425ZM859.146 314.37C864.584 314.37 869.209 313.25 873.019 311.003C876.836 308.756 880.436 305.562 883.824 301.422V252.994C880.857 249.417 877.629 246.888 874.131 245.414C870.634 243.94 866.875 243.203 862.847 243.203C858.818 243.203 855.306 243.94 852.093 245.414C848.879 246.888 846.159 249.114 843.934 252.098C841.709 255.082 839.993 258.869 838.794 263.464C837.594 268.06 836.99 273.486 836.99 279.73C836.99 285.973 837.499 291.399 838.525 295.785C839.55 300.171 841.011 303.748 842.924 306.523C844.829 309.298 847.163 311.299 849.919 312.52C852.674 313.749 855.743 314.363 859.131 314.363L859.146 314.37Z" fill="#E63D78"/>
<path d="M1047 182V205.234H1000.87V334H972.346V205.234H926V182H1047Z" fill="#E63D78"/>
<path d="M1047 334V225.994H1062.3C1064.97 225.994 1066.83 226.486 1067.89 227.468C1068.95 228.451 1069.65 230.135 1070 232.519L1071.58 245.577C1075.44 238.907 1079.99 233.647 1085.19 229.788C1090.39 225.929 1096.23 224 1102.7 224C1108.05 224 1112.48 225.228 1116 227.685L1112.62 247.159C1112.41 248.424 1111.96 249.32 1111.26 249.84C1110.55 250.367 1109.6 250.627 1108.41 250.627C1107.35 250.627 1105.91 250.382 1104.08 249.89C1102.25 249.399 1099.83 249.153 1096.81 249.153C1091.39 249.153 1086.74 250.642 1082.88 253.626C1079.01 256.611 1075.73 260.975 1073.06 266.734V334H1047Z" fill="#E63D78"/>
<path d="M1163 194.615C1163 196.861 1162.56 198.962 1161.69 200.926C1160.81 202.89 1159.64 204.609 1158.19 206.082C1156.74 207.555 1155.03 208.732 1153.07 209.606C1151.11 210.487 1149.02 210.92 1146.79 210.92C1144.57 210.92 1142.59 210.48 1140.67 209.606C1138.74 208.732 1137.08 207.555 1135.66 206.082C1134.24 204.609 1133.11 202.89 1132.27 200.926C1131.42 198.962 1131 196.861 1131 194.615C1131 192.37 1131.42 190.131 1132.27 188.095C1133.11 186.059 1134.24 184.311 1135.66 182.838C1137.08 181.365 1138.74 180.188 1140.67 179.314C1142.6 178.44 1144.63 178 1146.79 178C1148.96 178 1151.11 178.44 1153.07 179.314C1155.03 180.188 1156.74 181.365 1158.19 182.838C1159.64 184.311 1160.8 186.066 1161.69 188.095C1162.56 190.131 1163 192.305 1163 194.615ZM1159.25 226.069V334H1134.24V226.069H1159.25Z" fill="#E63D78"/>
<path d="M1190.01 333.418V177H1216.18V238.681C1220.48 234.122 1225.35 230.488 1230.79 227.786C1236.23 225.084 1242.58 223.732 1249.86 223.732C1255.79 223.732 1261.21 224.939 1266.11 227.367C1271.02 229.787 1275.26 233.313 1278.82 237.944C1282.39 242.576 1285.14 248.298 1287.08 255.104C1289.03 261.91 1290 269.735 1290 278.579C1290 286.649 1288.9 294.12 1286.71 300.998C1284.52 307.877 1281.4 313.837 1277.34 318.895C1273.28 323.946 1268.37 327.898 1262.62 330.737C1256.86 333.577 1250.42 335 1243.28 335C1239.96 335 1236.93 334.668 1234.17 334.003C1231.42 333.338 1228.91 332.406 1226.65 331.214C1224.39 330.022 1222.29 328.562 1220.35 326.843C1218.41 325.123 1216.55 323.209 1214.79 321.106L1213.62 328.367C1213.2 330.195 1212.48 331.489 1211.45 332.262C1210.42 333.035 1209.03 333.418 1207.27 333.418H1190H1190.01ZM1240.85 243.948C1235.42 243.948 1230.77 245.09 1226.92 247.366C1223.08 249.649 1219.49 252.857 1216.17 256.997V305.42C1219.14 309.069 1222.36 311.612 1225.86 313.05C1229.36 314.488 1233.15 315.21 1237.25 315.21C1241.34 315.21 1244.77 314.473 1247.94 312.999C1251.12 311.525 1253.82 309.278 1256.04 306.266C1258.27 303.253 1259.98 299.445 1261.18 294.843C1262.38 290.247 1262.99 284.828 1262.99 278.579C1262.99 272.329 1262.47 266.91 1261.45 262.524C1260.43 258.139 1258.97 254.577 1257.05 251.838C1255.15 249.1 1252.84 247.099 1250.12 245.841C1247.4 244.577 1244.31 243.948 1240.85 243.948H1240.85Z" fill="#E63D78"/>
<path d="M1354.56 224.007C1361.33 224.007 1367.55 225.096 1373.23 227.265C1378.92 229.435 1383.81 232.606 1387.93 236.765C1392.04 240.931 1395.25 246.041 1397.55 252.096C1399.85 258.151 1401 265.063 1401 272.833C1401 274.793 1400.91 276.422 1400.74 277.712C1400.57 279.01 1400.25 280.026 1399.8 280.754C1399.35 281.489 1398.74 282.016 1397.97 282.333C1397.2 282.65 1396.23 282.808 1395.04 282.808H1328.73C1329.5 293.872 1332.46 301.988 1337.62 307.171C1342.78 312.353 1349.61 314.941 1358.12 314.941C1362.3 314.941 1365.91 314.451 1368.94 313.47C1371.98 312.49 1374.63 311.409 1376.89 310.212C1379.16 309.023 1381.14 307.935 1382.85 306.954C1384.56 305.974 1386.21 305.484 1387.82 305.484C1388.87 305.484 1389.77 305.693 1390.54 306.111C1391.31 306.529 1391.97 307.127 1392.53 307.899L1400.06 317.348C1397.2 320.707 1393.99 323.525 1390.44 325.803C1386.89 328.081 1383.17 329.897 1379.3 331.266C1375.43 332.629 1371.49 333.594 1367.48 334.157C1363.47 334.719 1359.58 335 1355.82 335C1348.36 335 1341.42 333.753 1335.01 331.274C1328.59 328.787 1323.01 325.111 1318.27 320.246C1313.53 315.38 1309.8 309.362 1307.08 302.183C1304.36 295.011 1303 286.693 1303 277.244C1303 269.892 1304.18 262.98 1306.55 256.507C1308.92 250.035 1312.33 244.398 1316.75 239.598C1321.18 234.804 1326.58 231.006 1332.96 228.202C1339.34 225.406 1346.54 224 1354.56 224L1354.56 224.007ZM1355.09 242.596C1347.56 242.596 1341.66 244.73 1337.41 249.004C1333.16 253.278 1330.44 259.333 1329.26 267.167H1377.79C1377.79 263.809 1377.34 260.644 1376.43 257.668C1375.53 254.691 1374.13 252.089 1372.25 249.847C1370.37 247.606 1367.99 245.84 1365.13 244.542C1362.27 243.245 1358.92 242.596 1355.09 242.596Z" fill="#E63D78"/>
<path d="M1486.92 246.671C1486.22 247.787 1485.48 248.579 1484.7 249.033C1483.92 249.487 1482.94 249.717 1481.74 249.717C1480.47 249.717 1479.11 249.372 1477.67 248.666C1476.22 247.967 1474.55 247.182 1472.64 246.304C1470.74 245.432 1468.57 244.64 1466.14 243.942C1463.71 243.243 1460.83 242.89 1457.52 242.89C1452.38 242.89 1448.33 243.978 1445.37 246.145C1442.41 248.313 1440.92 251.15 1440.92 254.643C1440.92 256.955 1441.68 258.892 1443.2 260.462C1444.71 262.039 1446.72 263.415 1449.22 264.603C1451.73 265.792 1454.56 266.857 1457.74 267.801C1460.91 268.744 1464.15 269.781 1467.46 270.898C1470.77 272.014 1474.02 273.296 1477.19 274.729C1480.36 276.162 1483.2 277.984 1485.7 280.188C1488.21 282.391 1490.21 285.035 1491.73 288.11C1493.25 291.185 1494 294.894 1494 299.229C1494 304.407 1493.05 309.182 1491.15 313.553C1489.25 317.925 1486.46 321.706 1482.79 324.882C1479.13 328.065 1474.6 330.549 1469.2 332.328C1463.81 334.114 1457.63 335 1450.64 335C1446.91 335 1443.26 334.669 1439.7 334.006C1436.13 333.344 1432.71 332.415 1429.44 331.226C1426.16 330.038 1423.13 328.641 1420.35 327.028C1417.56 325.422 1415.11 323.672 1413 321.785L1419.02 311.926C1419.8 310.737 1420.72 309.83 1421.78 309.196C1422.84 308.563 1424.17 308.253 1425.8 308.253C1427.42 308.253 1428.95 308.707 1430.4 309.614C1431.84 310.521 1433.52 311.501 1435.42 312.552C1437.32 313.604 1439.57 314.583 1442.14 315.491C1444.71 316.398 1447.97 316.852 1451.92 316.852C1455.02 316.852 1457.68 316.484 1459.91 315.75C1462.13 315.015 1463.96 314.057 1465.41 312.862C1466.85 311.674 1467.91 310.291 1468.58 308.721C1469.25 307.144 1469.58 305.523 1469.58 303.845C1469.58 301.325 1468.83 299.265 1467.31 297.652C1465.79 296.046 1463.78 294.649 1461.29 293.453C1458.78 292.265 1455.93 291.199 1452.72 290.256C1449.51 289.312 1446.23 288.282 1442.88 287.159C1439.54 286.043 1436.26 284.732 1433.05 283.227C1429.84 281.722 1426.99 279.813 1424.48 277.509C1421.98 275.197 1419.97 272.367 1418.46 269.011C1416.94 265.655 1416.19 261.6 1416.19 256.84C1416.19 252.432 1417.06 248.234 1418.83 244.251C1420.59 240.261 1423.18 236.783 1426.6 233.809C1430.02 230.834 1434.28 228.458 1439.4 226.672C1444.51 224.886 1450.41 224 1457.11 224C1464.58 224 1471.39 225.224 1477.52 227.673C1483.66 230.121 1488.77 233.341 1492.85 237.323L1486.93 246.664L1486.92 246.671Z" fill="#E63D78"/>
</g>
<defs>
<clipPath id="clip0_1_2">
<rect width="1639" height="571" fill="white"/>
</clipPath>
</defs>
</svg>
