<svg xmlns="http://www.w3.org/2000/svg" width="31" height="27" viewBox="0 0 31 27"><g id="cart3" transform="translate(0 -3)"><g id="&#x421;&#x433;&#x440;&#x443;&#x43F;&#x43F;&#x438;&#x440;&#x43E;&#x432;&#x430;&#x442;&#x44C;_11" data-name="&#x421;&#x433;&#x440;&#x443;&#x43F;&#x43F;&#x438;&#x440;&#x43E;&#x432;&#x430;&#x442;&#x44C; 11" transform="translate(0 3)"><path id="&#x41A;&#x43E;&#x43D;&#x442;&#x443;&#x440;_12" data-name="&#x41A;&#x43E;&#x43D;&#x442;&#x443;&#x440; 12" d="M0,3.9A.974.974,0,0,1,1.033,3h3.1a1.017,1.017,0,0,1,1,.682L5.973,6.6H29.967a1.1,1.1,0,0,1,.8.33.816.816,0,0,1,.214.747l-2.067,9a1,1,0,0,1-.961.722l-19.421.85L9.125,21H26.867a.909.909,0,1,1,0,1.8H8.267a1.006,1.006,0,0,1-1.015-.734L4.154,7.693,3.327,4.8H1.033A.974.974,0,0,1,0,3.9ZM6.411,8.4l1.736,8.062,18.9-.826L28.707,8.4Zm3.923,14.4A3.894,3.894,0,0,0,6.2,26.4,3.894,3.894,0,0,0,10.334,30a3.894,3.894,0,0,0,4.133-3.6A3.894,3.894,0,0,0,10.334,22.8Zm14.467,0a3.894,3.894,0,0,0-4.133,3.6A3.894,3.894,0,0,0,24.8,30a3.894,3.894,0,0,0,4.133-3.6A3.894,3.894,0,0,0,24.8,22.8ZM10.334,24.6A1.947,1.947,0,0,1,12.4,26.4a1.947,1.947,0,0,1-2.067,1.8,1.947,1.947,0,0,1-2.067-1.8A1.947,1.947,0,0,1,10.334,24.6Zm14.467,0a1.947,1.947,0,0,1,2.067,1.8A1.947,1.947,0,0,1,24.8,28.2a1.947,1.947,0,0,1-2.067-1.8A1.947,1.947,0,0,1,24.8,24.6Z" transform="translate(0 -3)" fill="#8cbe22"></path></g></g></svg>