<?xml version="1.0" encoding="UTF-8"?> <svg xmlns="http://www.w3.org/2000/svg" viewBox="0 0 256 256" xml:space="preserve"><path d="m178.3 185.5 27.3-25.9c2-1.9 2.1-5 .2-7-1.9-2-5-2.1-7-.2L175 174.9l-9.7-10.1c-1.9-2-5-2-7-.1s-2 5-.1 7l13.1 13.6c1 1 2.3 1.5 3.6 1.5 1.2 0 2.4-.4 3.4-1.3z" fill="#87c91e" class="fill-000000"></path><path d="M231.3 159.5c-.4-2.4-.8-4.1-1.3-5.3-6.9-20.4-25.8-34.2-47.5-34.3H181c-21.4.2-40.3 14-47.1 34.3-.5 1.3-.9 3-1.3 5.4-1.5 8.6-.5 17.2 2.8 24.8 0 .1.1.3.2.4.1.2.1.3.2.5 2.6 5.6 6.3 12.1 9.9 18.4 2.2 3.8 4.4 7.6 6.3 11.2 1.3 2.4 4.3 3.3 6.7 2 2.4-1.3 3.3-4.3 2-6.7-2-3.7-4.2-7.6-6.5-11.5-3.4-6-7-12.2-9.4-17.4-.1-.2-.2-.4-.3-.7-2.6-6-3.3-12.7-2.2-19.3.1-.7.5-2.7.9-4 5.5-16.4 20.7-27.4 38.1-27.6h1.4c17.1.1 32.3 11.2 37.9 27.7.4 1.2.8 3.2.9 3.8 1.2 6.7.4 13.3-2.2 19.5-.1.2-.2.4-.2.6-2.4 5.2-6 11.4-9.4 17.4-2.3 3.9-4.5 7.8-6.5 11.5-1.3 2.4-.4 5.4 2 6.7.7.4 1.5.6 2.3.6 1.8 0 3.5-1 4.4-2.6 1.9-3.6 4.1-7.4 6.3-11.2 3.6-6.3 7.3-12.7 9.9-18.4 0-.1.1-.3.2-.4l.2-.4c3.4-7.7 4.3-16.4 2.8-25zM200.5 223.1h-37.1c-2 0-3.8.9-5.1 2.4-1.3 1.5-1.8 3.5-1.4 5.4l1.8 9.4c.6 3.1 3.3 5.4 6.5 5.4h1.7c3.7 4.5 9.2 7.2 15.1 7.2s11.4-2.7 15.1-7.2h1.7c3.2 0 5.9-2.3 6.5-5.4l1.8-9.4c.4-1.9-.1-3.9-1.4-5.4-1.4-1.5-3.2-2.4-5.2-2.4zm-4.5 12.7h-1.5c-1.8 0-3.4.9-4.3 2.4-1.7 2.9-4.9 4.7-8.3 4.7-3.4 0-6.6-1.8-8.3-4.7-.9-1.5-2.5-2.4-4.3-2.4H168l-.5-2.8h29.1l-.6 2.8zM73.5 61.9c16.2 0 29.4-13.2 29.4-29.4S89.7 3.1 73.5 3.1 44.1 16.3 44.1 32.5s13.2 29.4 29.4 29.4zm0-48.9C84.2 13 93 21.8 93 32.5S84.2 52 73.5 52 54 43.2 54 32.5 62.8 13 73.5 13z" fill="#87c91e" class="fill-000000"></path><path d="M109 102.2c-2.7-.2-5.1 1.9-5.3 4.6L99.2 173c0 .2-.1.4-.1.5l-4.2 64.4c-.2 2.8-2.6 5.1-5.4 5.1h-32c-2.9 0-5.2-2.2-5.4-5.1l-4.2-64.4c-.1-2-1.5-3.8-3.5-4.4-6.2-1.9-6.2-1.9-6.6-8.6L34 92.2v-.7c5.6-1.7 15.4-4.8 20.1-6.3l16.1 15c1.9 1.8 4.9 1.8 6.8 0L93.2 85l47.5 10.7c.7.2 1.4.2 2.1 0l44.6-9.1c2.7-.5 4.4-3.2 3.9-5.8s-3.2-4.4-5.8-3.9l-43.6 8.9-49-11.1c-1.6-.4-3.3.1-4.5 1.2L73.5 89.8 58.7 75.9c-1.3-1.2-3.2-1.6-4.9-1.1 0 0-15.1 4.8-22.8 7.1-4.5 1.4-7 4.8-7 9.4v1.2l3.8 67.4.1 1.1c.7 10.2 2.4 13.4 10.3 16.3l4 61.1c.5 8 7.2 14.3 15.3 14.3h32c8 0 14.7-6.3 15.3-14.3l4.2-63.9c0-.2 0-.3.1-.5l4.6-66.7c.1-2.6-1.9-5-4.7-5.1z" fill="#87c91e" class="fill-000000"></path></svg> 