<?xml version="1.0" encoding="UTF-8"?> <svg xmlns="http://www.w3.org/2000/svg" fill="none" viewBox="0 0 32 32"><rect width="32" height="32" rx="16" fill="url(#a)"></rect><path d="m16 10.827c-1.371 0.0022-2.6852 0.5478-3.6545 1.5173-0.9694 0.9695-1.5147 2.2838-1.5166 3.6548 0.0016 1.3713 0.547 2.686 1.5166 3.6558 0.9695 0.9698 2.2841 1.5154 3.6555 1.5173 1.3714-0.0016 2.6863-0.5472 3.6561-1.517 0.9698-0.9697 1.5153-2.2846 1.5169-3.6561-0.0021-1.3713-0.548-2.6858-1.518-3.6552-0.9699-0.9694-2.2847-1.5145-3.656-1.5158v-0.0011zm0 8.3336c-0.8383 0-1.6422-0.333-2.2349-0.9257s-0.9257-1.3966-0.9257-2.2348 0.333-1.6421 0.9257-2.2348 1.3966-0.9257 2.2349-0.9257c0.8382 0 1.6421 0.333 2.2348 0.9257s0.9257 1.3966 0.9257 2.2348-0.333 1.6421-0.9257 2.2348-1.3966 0.9257-2.2348 0.9257z" clip-rule="evenodd" fill="#fff" fill-rule="evenodd"></path><path d="m22.422 10.867c0 0.6844-0.5548 1.2392-1.2392 1.2392-0.6843 0-1.2391-0.5548-1.2391-1.2392s0.5548-1.2392 1.2391-1.2392c0.6844 0 1.2392 0.55476 1.2392 1.2392z" fill="#fff"></path><path d="m20.042 6h-8.0842c-1.5796 0.00186-3.094 0.63025-4.2108 1.7473-1.1169 1.117-1.745 2.6315-1.7466 4.2111v8.0842c0.00186 1.5796 0.63025 3.094 1.7473 4.2108 1.117 1.1169 2.6315 1.745 4.2111 1.7466h8.0842c1.5796-0.0019 3.094-0.6302 4.2108-1.7473 1.1169-1.117 1.745-2.6315 1.7466-4.2111v-8.0842c-0.0019-1.5796-0.6302-3.094-1.7473-4.2108-1.117-1.1169-2.6315-1.745-4.2111-1.7466zm3.9469 14.042c0 0.5183-0.1021 1.0315-0.3005 1.5104-0.1983 0.4788-0.489 0.914-0.8555 1.2805s-0.8017 0.6572-1.2805 0.8555c-0.4789 0.1984-0.9921 0.3005-1.5104 0.3005h-8.0842c-1.0466-3e-4 -2.0502-0.4162-2.7902-1.1564s-1.1557-1.7439-1.1557-2.7905v-8.0842c2.7e-4 -1.0466 0.41622-2.0502 1.1564-2.7902s1.7439-1.1557 2.7905-1.1557h8.0842c1.0466 2.7e-4 2.0502 0.41622 2.7902 1.1564s1.1557 1.7439 1.1557 2.7905v8.0832z" clip-rule="evenodd" fill="#fff" fill-rule="evenodd"></path><defs><radialGradient id="a" cx="0" cy="0" r="1" gradientTransform="translate(-.80083 -.10663) rotate(43.877) scale(59.165)" gradientUnits="userSpaceOnUse"><stop stop-color="#ECEF39" offset="0"></stop><stop stop-color="#F4713C" offset=".24121"></stop><stop stop-color="#ED2981" offset=".4888"></stop><stop stop-color="#3252AC" offset="1"></stop></radialGradient></defs></svg> 