<?xml version="1.0" encoding="UTF-8"?> <svg xmlns="http://www.w3.org/2000/svg" xmlns:xlink="http://www.w3.org/1999/xlink" version="1.1" id="Warstwa_1" x="0px" y="0px" viewBox="0 0 22.9 22.9" style="enable-background:new 0 0 22.9 22.9;" xml:space="preserve"> <style type="text/css"> .st0{fill:#FFFFFF;stroke:#000000;stroke-width:0.25;stroke-miterlimit:10;} </style> <g> <g> <g> <rect x="0.1" y="0.1" class="st0" width="22.7" height="22.7"></rect> </g> </g> </g> <g> <path d="M2.3,16.2V6.8h1.5v9.4H2.3z"></path> <path d="M7.7,12.5H6.8v3.7H5.3V6.8h2.4c1.7,0,2.4,0.9,2.4,2.9S9.4,12.5,7.7,12.5z M7.6,8.1H6.8v3.1h0.8c0.8,0,1-0.6,1-1.5 C8.6,8.7,8.4,8.1,7.6,8.1z"></path> <path d="M11.2,16.2V15l2.4-4.6c0.2-0.4,0.4-1,0.4-1.7c0-0.5-0.3-0.8-0.7-0.8c-0.4,0-0.7,0.3-0.7,0.8v0.6h-1.4V8.8 c0-0.8,0.2-1.2,0.6-1.6c0.4-0.4,1-0.6,1.5-0.6c0.6,0,1.1,0.1,1.5,0.5c0.4,0.3,0.6,0.9,0.6,1.6c0,0.7-0.2,1.5-0.5,2.1l-2.1,4.1h2.6 v1.3H11.2z"></path> <path d="M20.1,15.7c-0.4,0.4-0.9,0.6-1.5,0.6s-1.1-0.2-1.5-0.6c-0.4-0.4-0.6-0.8-0.6-1.6V8.8c0-0.8,0.2-1.2,0.6-1.6 c0.4-0.4,0.9-0.6,1.5-0.6s1.1,0.2,1.5,0.6c0.4,0.4,0.6,0.8,0.6,1.6v5.4C20.7,14.9,20.4,15.4,20.1,15.7z M19.3,8.7 c0-0.5-0.3-0.8-0.7-0.8s-0.7,0.3-0.7,0.8v5.5c0,0.5,0.3,0.8,0.7,0.8s0.7-0.3,0.7-0.8V8.7z"></path> </g> </svg> 