<?xml version="1.0" encoding="UTF-8"?> <svg xmlns="http://www.w3.org/2000/svg" viewBox="0 0 60 60"><path d="M30 10c1.103 0 2-.897 2-2s-.897-2-2-2-2 .897-2 2 .897 2 2 2Zm-6-2c0 2.096 1.833 5.104 2.801 6.401L30 18.399l3.219-4.024C34.182 13.273 36 10.067 36 8c0-3.309-2.691-6-6-6s-6 2.691-6 6Zm1.219 7.625C24.871 15.16 22 11.221 22 8c0-4.411 3.589-8 8-8s8 3.589 8 8c0 2.755-2.15 6.405-3.248 7.658l-3.971 4.967a1 1 0 0 1-1.562 0l-4-5ZM41 55a1 1 0 0 0 1-1V39.754l13.275-3.792a1 1 0 0 0-.55-1.924l-14 4A1.001 1.001 0 0 0 40 39v15a1 1 0 0 0 1 1Zm-4-1a1 1 0 0 0 1-1V39a.998.998 0 0 0-.681-.947l-14-4.719a1 1 0 1 0-.638 1.895L36 39.718V53a1 1 0 0 0 1 1ZM14.713 27.042l-10 3a1 1 0 0 0 .574 1.916l10-3a1 1 0 0 0-.574-1.916ZM19 8a1 1 0 0 0-1 1v18c0 .431.275.812.684.948l18 6A.999.999 0 0 0 38 33V18a1 1 0 1 0-2 0v13.612l-16-5.333V9a1 1 0 0 0-1-1Zm39.02.907c-.983-.798-2.124-1.109-3.295-.869l-14 4A1.001 1.001 0 0 0 40 13v20a1.003 1.003 0 0 0 1.275.962l14-4a1 1 0 0 0-.55-1.924L42 31.674v-17.92l13.204-3.775c.667-.139 1.26.242 1.553.48C57.512 11.073 58 12.07 58 13v38c0 1.314-.997 2.229-3.275 3.038l-13.688 3.911L20 50.3V33a1.003 1.003 0 0 0-1.275-.962l-14 4a1 1 0 0 0 .55 1.924L18 34.326V51c0 .421.263.796.658.939l22 8a1.007 1.007 0 0 0 .617.023l14.059-4.02C56.61 55.49 60 54.288 60 51V13c0-1.53-.759-3.099-1.98-4.093ZM15.958 51.869a1.001 1.001 0 0 1-.687 1.236l-9.996 2.857a3.593 3.593 0 0 1-.979.138c-.782 0-1.547-.264-2.224-.776C.813 54.372 0 52.675 0 51V13c0-3.288 3.39-4.49 4.666-4.942l14.059-4.02a1 1 0 0 1 .55 1.924l-14 4C2.997 10.771 2 11.686 2 13v38c0 1.037.525 2.16 1.278 2.729.459.347.946.451 1.45.309l9.993-2.856a1.004 1.004 0 0 1 1.237.687Z" fill="#8cbe22" fill-rule="evenodd" class="fill-000000"></path></svg> 