<?xml version="1.0" encoding="UTF-8"?> <svg xmlns="http://www.w3.org/2000/svg" viewBox="0 0 256 256" xml:space="preserve"><path d="M181.2 101.7c0-3.1-1.9-5.8-4.7-7-18.8-7.9-33.5-22.5-41.5-41.3-1.2-2.9-4-4.7-7.1-4.7-3.1 0-5.8 1.8-7.1 4.7-7.9 18.7-22.6 33.3-41.3 41.2-2.8 1.2-4.7 3.9-4.7 7s1.8 5.8 4.6 7.1c18 7.9 33 23.1 41.3 41.8 1.2 2.8 4 4.6 7 4.6s5.8-1.8 7-4.7c7.8-18.1 23.1-33.3 41.8-41.6 2.9-1.3 4.7-4.1 4.7-7.1zm-53.5 41c-8.9-17.8-23.4-32.4-40.6-41 17.8-8.6 32.1-22.8 40.7-40.6 8.7 17.9 23 32.2 41 40.7-17.8 9-32.5 23.6-41.1 40.9z" fill="#87c91e" class="fill-000000"></path><path d="M175.8 180.8c.9.3 2.1.7 3.6.6 2.4-.1 4.6-1.1 6.3-2.8 1.8-1.8 2.8-4.2 2.7-6.7-.2-15.8 9.8-29.6 24.8-34.3 1-.3 2.1-.8 2.9-1.5 2-1.5 3.3-3.7 3.6-6 .4-2.5-.2-5-1.7-7.1-9.4-12.7-9.5-29.7-.1-42.2l1.2-1.4.5-1.5c.8-2.4.5-5-.6-7.1-1.2-2.3-3.2-4-5.5-4.7-15-4.8-24.9-18.5-24.8-34.2 0-1.2-.2-2.3-.5-3.3-.8-2.3-2.5-4.2-4.8-5.4-2.3-1.1-4.7-1.2-7-.4-3.7 1.3-7.5 1.9-11.4 1.9-11.5 0-22.3-5.6-28.9-14.9-.7-.9-1.5-1.7-2.2-2.2-4.2-3-10.1-2-13.1 2.2-6.6 9.4-17.4 14.9-28.9 14.9-3.9 0-7.7-.6-11.3-1.9-3.2-1.1-7.3-.3-9.7 2.3-1.8 1.8-2.8 4.2-2.7 6.7.2 15.8-9.8 29.5-24.7 34.2-1.1.3-2 .8-3 1.5-4.1 3.1-5 9-1.9 13.2 9.4 12.7 9.4 29.7 0 42.4-.6.8-1.1 1.8-1.4 2.7-.7 2.4-.5 4.8.7 7.2 1.2 2.2 3.2 3.9 5.5 4.6 15 4.8 24.9 18.6 24.7 34.1-.1 1.2.1 2.3.5 3.4.8 2.3 2.5 4.2 4.8 5.4 2.3 1.1 4.7 1.2 7 .4 3.8-1.3 7.7-1.9 11.6-1.9 11.6 0 22 5.5 28.8 15 .6.8 1.4 1.6 2.2 2.2 1.6 1.2 3.5 1.8 5.4 1.8.5 0 1.1 0 1.6-.1 2.5-.4 4.7-1.8 6.1-3.8 8.6-13 24.7-18.3 39.7-13.3zm-47.7 7.6c-8.4-11.9-22.1-19-36.6-19-4.9 0-9.8.8-14.4 2.6.3-19.9-12.4-37.4-31.3-43.2 11.9-16.1 11.9-37.7-.1-53.5 19-5.9 31.7-23.2 31.6-43.2 4.5 1.5 9.3 2.3 14.1 2.3 14.6 0 28.3-7.1 36.4-19 8.4 11.9 22.2 19 36.8 19 4.9 0 9.8-.8 14.2-2.5-.2 19.7 12.3 37 31.1 43.2-11.7 16-11.7 37.3 0 53.4-18.9 6.1-31.5 23.5-31.1 43.2h-.1c-18.8-6.4-39.4.3-50.6 16.7z" fill="#87c91e" class="fill-000000"></path><path d="M96.9 193.5c-2.2-1.4-5.2-.8-6.6 1.4l-23.4 35.8L54 204.3l-26.8-.1 24.5-37.5c1.5-2.2.8-5.2-1.4-6.6-2.2-1.5-5.2-.8-6.6 1.4L9.5 213.8l38.6.1 17.7 36.2 32.6-50c1.4-2.2.7-5.2-1.5-6.6zM212.3 161.4c-1.5-2.2-4.4-2.8-6.6-1.4-2.2 1.5-2.8 4.4-1.4 6.6l24.6 37.6-26.8.1-12.9 26.4-23.5-35.9c-1.5-2.2-4.4-2.8-6.6-1.4-2.2 1.5-2.8 4.4-1.4 6.6l32.7 50.1 17.7-36.2 38.6-.1-34.4-52.4z" fill="#87c91e" class="fill-000000"></path></svg> 