<?xml version="1.0" encoding="UTF-8"?> <svg xmlns="http://www.w3.org/2000/svg" viewBox="0 0 256 256" xml:space="preserve"><path d="M248.3 106.6c-.4-2.4-1-4.9-1.7-7.4-6.9-25.4-25.8-47.5-51.9-60.8-6.1-3.1-12.5-5.7-19-7.7-12-3.7-24.5-5.6-37.3-5.6-15.4 0-30.2 2.6-44 7.8-2.6 1-3.9 3.8-2.9 6.4 1 2.6 3.8 3.9 6.4 2.9 12.7-4.8 26.4-7.2 40.6-7.2 11.8 0 23.3 1.7 34.3 5.1 6 1.9 11.9 4.2 17.5 7.1 23.6 12 40.6 31.9 46.8 54.5.6 2.2 1.1 4.4 1.5 6.5 4.4 24.7-3.4 50.5-20.4 67.5-1.9 1.9-3.4 4.4-4 6.9l-11 38.2h-25.7l-3-11.7c-.6-2.2-2.5-3.7-4.8-3.7l-62.3-.2c-2.3 0-4.2 1.5-4.8 3.7l-3.1 12H73.8l-7.2-25.2c-1.3-4.7-4.9-8.7-9.1-10.5-14.7-6.7-27.9-14.5-39.3-23.2-1.2-.9-1.9-2.4-1.9-3.9l.1-46.9 7.2-.1c1.5 0 3-.7 3.9-2l25-33.3c1.8-2.5.6-5.1-.4-7.4-.3-.9-.7-1.7-1.1-2.6l-.3-.6c-1-2.3-2-4.5-3.1-6.6-1.9-3.9-3.9-7.9-6.1-12-.2-.4-.5-.8-.6-1.1-.2-.4-.5-.8-.7-1.3h.2c.9 0 1.8-.1 2.9-.1 6.1-.1 11.6.8 16.6 2.6 1.6.6 4.8 2.1 5.4 2.4 1.1.6 7.4 4.3 8.8 5.4 6.5 4.9 11.8 11.3 15.4 18.5 1.2 2.4 4.2 3.5 6.6 2.2 2.4-1.2 3.4-4.2 2.2-6.6C94 60 87.7 52.4 80 46.6c-2.2-1.7-9.6-5.9-10.1-6.2-2.3-1.3-6.7-3-6.8-3.1-5.9-2.1-12.5-3.2-19.6-3.2-1.2 0-2.6 0-3.7.1-.8 0-1.6.1-2.7.2-.2 0-.6.1-.8.1h-.2c-2.9.6-5.2 2.6-6.2 5.4-1 2.6 0 5.1.6 6.8.5 1.2 1.1 2.3 1.8 3.7.2.3.3.5.5.8 2.1 3.9 4.1 7.8 5.9 11.6 1 2.1 2 4.1 2.9 6.2l.3.6c.3.7.6 1.5 1 2.4L21 101.1l-9.6.1c-2.7 0-4.9 2.2-4.9 4.9l-.1 51.8c0 4.6 2.2 9 5.8 11.8 12 9.1 25.8 17.3 41.3 24.4 1.6.7 3.1 2.4 3.6 4.1l8.2 28.8c.6 2.1 2.6 3.6 4.8 3.6h33.2c2.3 0 4.2-1.5 4.8-3.7l3.1-12 54.6.2 3 11.8c.6 2.2 2.5 3.7 4.8 3.7h33.3c2.2 0 4.1-1.5 4.8-3.6l12.1-42c.2-.9.7-1.9 1.4-2.5 19.2-18.9 28-48.1 23.1-75.9z" fill="#87c91e" class="fill-000000"></path><path d="M54.8 103.8c0 4.9 4 8.9 8.9 8.9s8.9-4 8.9-8.9-4-8.9-8.9-8.9-8.9 4-8.9 8.9zM127.7 67.6c-2.7 0-4.9 2.2-4.9 4.9v6.6c-1.6.2-3.2.5-4.7 1-9.8 2.9-16.5 12.7-15.2 22.4 1.8 13.2 13.8 17.5 23.5 20.9 5.3 1.9 10.3 3.6 13.2 6.4 2.5 2.4 3.9 5.4 3.8 8.6 0 3.1-1.5 6.1-4 8.4-2.9 2.6-6.8 4.1-11.9 4.4-3.9.2-8.6-.2-14.1-1.2-1.4-.3-2.7-.5-4-.9-2.6-.8-5.4.7-6.2 3.3-.8 2.6.7 5.4 3.3 6.2 1.6.5 3.3.8 5 1.2 4.2.8 7.8 1.2 11.2 1.4v6.3c0 2.7 2.2 4.9 4.9 4.9s4.9-2.2 4.9-4.9v-6.9c5.3-1 9.8-3.1 13.4-6.3 4.6-4.1 7.2-9.7 7.3-15.6.1-6-2.4-11.6-6.9-15.8-4.4-4.3-10.7-6.5-16.8-8.6-10-3.5-16.1-6.1-17-12.8-.7-4.9 3-10 8.2-11.6 5.7-1.7 13.4-1 20.7 1.9 2.5 1 5.4-.2 6.4-2.8 1-2.5-.2-5.4-2.8-6.4-4.1-1.6-8.4-2.7-12.5-3.2v-6.6c.1-3-2.1-5.2-4.8-5.2z" fill="#87c91e" class="fill-000000"></path></svg> 