<?xml version="1.0" encoding="UTF-8"?> <svg xmlns="http://www.w3.org/2000/svg" viewBox="0 0 256 256" xml:space="preserve"><path d="M30.3 117.3c4.9 5.2 11.1 9.2 17.8 11.6 2.3.8 4.7 1.5 7.2 1.9 2.4.5 4.9.7 7.4.8h1.2c6.7 0 13.5-1.5 19.6-4.3 4.6-2.1 8.8-5 12.4-8.5 5.2-5 9.3-11.1 11.7-17.9.9-2.4 1.5-4.8 2-7.3s.7-5.1.8-7.6c.2-7.1-1.4-14.3-4.4-20.8-2.2-4.6-5.1-8.8-8.6-12.5-4.9-5.1-11.1-9.1-17.8-11.5-2.3-.8-4.7-1.5-7.2-1.9-2.5-.5-4.9-.7-7.4-.8-7.1-.2-14.3 1.3-20.8 4.3-4.6 2.2-8.8 5-12.5 8.5-5.2 4.9-9.2 11.1-11.6 17.8-.9 2.4-1.5 4.8-2 7.3s-.7 5-.8 7.5c-.2 7.2 1.4 14.4 4.5 20.9 2.2 4.7 5 8.9 8.5 12.5zm-2.2-38.9c.4-2 .9-3.9 1.6-5.8 1.9-5.2 5-10 9.1-13.9 2.9-2.8 6.2-5 9.8-6.7 4.8-2.2 10.1-3.4 15.3-3.4h.9c1.9 0 3.9.3 5.8.6 1.9.4 3.8.9 5.6 1.5 5.2 1.9 10.1 5 13.9 9 2.8 2.9 5 6.2 6.7 9.8 2.4 5 3.6 10.7 3.4 16.2 0 2-.3 4-.6 5.9-.4 2-.9 3.9-1.6 5.7-1.9 5.3-5.1 10.1-9.2 14-2.9 2.7-6.1 5-9.7 6.6-5.1 2.4-10.8 3.5-16.3 3.4-1.9 0-3.9-.3-5.8-.6-1.9-.4-3.8-.9-5.6-1.5-5.3-1.9-10.1-5-13.9-9-2.7-2.9-5-6.1-6.7-9.7-2.4-5.1-3.6-10.7-3.5-16.3.2-1.9.4-3.9.8-5.8z" fill="#87c91e" class="fill-000000"></path><path d="M56.8 91.9c1 1.1 2.3 1.9 3.7 2.4.5.2 1 .3 1.5.4.5.1 1 .2 1.6.2 1.5 0 3-.3 4.4-.9 1-.4 1.8-1 2.6-1.8 1.1-1 1.9-2.3 2.5-3.8.2-.5.3-1 .4-1.5.1-.5.2-1.1.2-1.6 0-.7-.1-1.4-.2-2l9.9-8.9c2.1-1.9 2.2-5.1.4-7.2-1.9-2.1-5.1-2.2-7.2-.4l-9.9 8.9c-.3-.1-.7-.2-1-.3-.5-.1-1-.2-1.6-.2-1.5 0-3 .3-4.4.9-1 .5-1.9 1.1-2.6 1.8-1.1 1-1.9 2.3-2.4 3.7-.2.5-.3 1-.4 1.5-.1.5-.2 1.1-.2 1.6 0 1.6.3 3.1.9 4.4.5 1.1 1.1 2 1.8 2.8zM236.8 127.4h-22l-20.2-46.2c-1.5-3.4-4.9-5.6-8.6-5.6h-56.5c-2.8 0-5.1 2.3-5.1 5.1v64.1H8.4c-2.8 0-5.1 2.3-5.1 5.1v38.9c0 5.2 4.2 9.4 9.4 9.4h14.6c2.8 0 5.1-2.3 5.1-5.1s-2.3-5.1-5.1-5.1H13.5v-33.1h116c2.8 0 5.1-2.3 5.1-5.1V85.6h50.9l18.7 42.8 2.7 6c.8 1.8 2.6 3 4.6 3h25.3c3.2 0 5.7 2.6 5.7 5.7v44.7h-13.8c-2.8 0-5.1 2.3-5.1 5.1s2.3 5.1 5.1 5.1h14.5c5.2 0 9.4-4.2 9.4-9.4v-45.4c.1-8.7-7.1-15.8-15.8-15.8z" fill="#87c91e" class="fill-000000"></path><path d="M162.7 187.9H93.3c-2.8 0-5.1 2.3-5.1 5.1s2.3 5.1 5.1 5.1h69.3c2.8 0 5.1-2.3 5.1-5.1s-2.2-5.1-5-5.1zM79.3 190.5c-1.4-4-4.1-7.5-7.7-9.9-.1-.1-.3-.2-.4-.3l-2.7-1.4c-.2-.1-.4-.2-.5-.2l-1.2-.4-1.9-.6c-.5-.1-1-.2-1.4-.3-.5-.1-1.1-.1-1.8-.2h-1.6l-1.4.1c-.5 0-1 .1-1.5.2s-.9.2-1.4.3h-.2l-1.3.3c-.4.1-.8.3-1.4.5l-1.3.6c-4.8 2.3-8.6 6.5-10.4 11.4 0 .1-.2.5-.2.6-.7 2-1 4.1-1 6.2 0 11.1 9 20.2 20.2 20.2 11.1 0 20.2-9 20.2-20.2 0-2.1-.3-4.1-1-6.3l-.1-.6zm-19 16.9c-5.5 0-10-4.5-10-10 0-1 .2-2.1.4-2.8l.2-.5c.9-2.5 2.8-4.6 5-5.7l2.3-.8c.2 0 .3-.1.6-.1s.5-.1.5-.1H61c.3 0 .5.1.9.1.2 0 .4.1.4.1l1.4.4 2.4 1.3c1.7 1.2 3 2.9 3.7 4.9l.1.3c.3.9.5 2 .5 3-.1 5.4-4.6 9.9-10.1 9.9zM214.7 190.6c-1.5-4.1-4.1-7.6-7.7-10-.2-.1-.4-.2-.5-.3l-3.4-1.7c-.3-.1-.6-.3-.9-.3l-1.9-.5c-.5-.1-1-.2-1.4-.3-.5-.1-1-.1-1.9-.2h-2.6c-.8.1-1.3.1-1.7.2-.5.1-.9.2-1.4.3h-.2l-1.3.3c-.4.1-.7.2-1.3.5l-1.3.6c-4.8 2.3-8.7 6.5-10.4 11.4 0 .1-.2.6-.2.6-.7 2-1 4.1-1 6.2 0 11.1 9 20.2 20.2 20.2 11.1 0 20.2-9 20.2-20.2 0-2.1-.3-4.2-1.1-6.4l-.2-.4zm-19 16.8c-5.5 0-10-4.5-10-10 0-1.1.2-2.1.4-2.8 0-.1.2-.5.2-.5.9-2.5 2.8-4.6 5-5.7l2.3-.8c.2 0 .4-.1.6-.1.2 0 .5-.1.8-.1h1.5c.3 0 .6.1.8.1.2 0 .4.1.4.1l1.2.3 2.6 1.3c1.7 1.2 2.9 2.9 3.7 5l.1.1c.3 1 .5 2 .5 3-.1 5.6-4.6 10.1-10.1 10.1z" fill="#87c91e" class="fill-000000"></path></svg> 