<?xml version="1.0" encoding="UTF-8"?> <svg xmlns="http://www.w3.org/2000/svg" fill="none" viewBox="0 0 32 32"><rect width="32" height="32" rx="16" fill="url(#a)"></rect><path d="m6.3747 14.888c5.3697-2.2578 8.9495-3.7464 10.739-4.4656 5.1165-2.0536 6.1784-2.4102 6.8719-2.4223 0.1525-0.00237 0.4921 0.03402 0.7137 0.20694 0.1841 0.14583 0.2359 0.34305 0.2618 0.48152 0.023 0.13833 0.0547 0.45361 0.0288 0.69972-0.2763 2.8111-1.4762 9.6327-2.0863 12.781-0.2561 1.3322-0.7655 1.7789-1.2575 1.8225-1.0705 0.095-1.882-0.6822-2.918-1.3375-1.6201-1.0258-2.5352-1.6642-4.1093-2.665-1.8187-1.1567-0.6388-1.7925 0.3971-2.8314 0.2705-0.2719 4.9841-4.4094 5.0733-4.7847 0.0116-0.0469 0.0231-0.2219-0.0863-0.3141-0.1065-0.0925-0.2647-0.0609-0.3798-0.0359-0.1641 0.0356-2.7511 1.6878-7.7697 4.9564-0.7338 0.4872-1.3986 0.7247-1.9971 0.7122-0.65611-0.0136-1.9223-0.3589-2.8633-0.6539-1.1511-0.3619-2.069-0.5533-1.9885-1.168 0.04029-0.32 0.49783-0.6475 1.3698-0.9822z" fill="#fff"></path><defs><linearGradient id="a" x1="16" x2="16" y2="32" gradientUnits="userSpaceOnUse"><stop stop-color="#2AABEE" offset="0"></stop><stop stop-color="#229ED9" offset="1"></stop></linearGradient></defs></svg> 