<?xml version="1.0" encoding="UTF-8"?> <svg xmlns="http://www.w3.org/2000/svg" viewBox="0 0 50 50" xml:space="preserve"><path fill="none" d="M0 0h50v50H0z"></path><path d="M30.217 35.252s4.049-2.318 5.109-2.875c1.057-.559 2.152-.7 2.817-.294 1.007.616 9.463 6.241 10.175 6.739.712.499 1.055 1.924.076 3.32-.975 1.396-5.473 6.916-7.379 6.857-1.909-.062-9.846-.236-24.813-15.207C1.238 18.826 1.061 10.887 1 8.978.939 7.07 6.459 2.571 7.855 1.595c1.398-.975 2.825-.608 3.321.078.564.781 6.124 9.21 6.736 10.176.419.66.265 1.761-.294 2.819-.556 1.06-2.874 5.109-2.874 5.109s1.634 2.787 7.16 8.312c5.527 5.526 8.313 7.163 8.313 7.163z" fill="none" stroke="#8cbe22" stroke-miterlimit="10" stroke-width="2" class="stroke-000000"></path></svg> 