<?xml version="1.0" encoding="UTF-8"?> <svg xmlns="http://www.w3.org/2000/svg" viewBox="0 0 32 32"><rect width="32" height="32" rx="16" fill="#EC2725"></rect><path d="m23.923 10.388c0.8175 0.2134 1.4613 0.8429 1.6797 1.6419 0.3972 1.4483 0.3972 4.4697 0.3972 4.4697s0 3.0218-0.3972 4.4701c-0.2184 0.799-0.8622 1.4284-1.6797 1.6419-1.4818 0.3882-7.4233 0.3882-7.4233 0.3882s-5.9414 0-7.4229-0.3882c-0.81752-0.2135-1.4613-0.8429-1.6801-1.6419-0.39685-1.4483-0.39685-4.4701-0.39685-4.4701s0-3.0214 0.39685-4.4697c0.21878-0.799 0.86254-1.4285 1.6801-1.6419 1.4815-0.3882 7.4229-0.3882 7.4229-0.3882s5.9415 0 7.4233 0.3882zm-9.9231 3.6118v5l5.0002-2.4998-5.0002-2.5002z" clip-rule="evenodd" fill="#fff" fill-rule="evenodd"></path></svg> 