<svg width="38" height="38" viewBox="0 0 38 38" fill="none" xmlns="http://www.w3.org/2000/svg">
<circle cx="19" cy="19" r="19" fill="#3157A6"/>
<path d="M27.9467 12.6131C27.8227 12.4882 27.6753 12.389 27.5128 12.3213C27.3503 12.2536 27.176 12.2188 27 12.2188C26.824 12.2188 26.6497 12.2536 26.4872 12.3213C26.3248 12.389 26.1773 12.4882 26.0533 12.6131L16.12 22.5598L11.9467 18.3731C11.818 18.2488 11.6661 18.1511 11.4996 18.0855C11.3331 18.0199 11.1554 17.9877 10.9764 17.9908C10.7975 17.9939 10.621 18.0322 10.4569 18.1035C10.2928 18.1748 10.1443 18.2778 10.02 18.4065C9.8957 18.5352 9.79794 18.6871 9.73234 18.8536C9.66673 19.02 9.63456 19.1978 9.63766 19.3767C9.64075 19.5556 9.67905 19.7322 9.75038 19.8963C9.8217 20.0604 9.92465 20.2088 10.0533 20.3331L15.1733 25.4531C15.2973 25.5781 15.4448 25.6773 15.6072 25.745C15.7697 25.8127 15.944 25.8475 16.12 25.8475C16.296 25.8475 16.4703 25.8127 16.6328 25.745C16.7953 25.6773 16.9427 25.5781 17.0667 25.4531L27.9467 14.5731C28.082 14.4483 28.19 14.2968 28.2639 14.1281C28.3378 13.9594 28.3759 13.7773 28.3759 13.5931C28.3759 13.409 28.3378 13.2269 28.2639 13.0582C28.19 12.8895 28.082 12.738 27.9467 12.6131Z" fill="white"/>
</svg>
