<?xml version="1.0" encoding="utf-8"?><!-- Uploaded to: SVG Repo, www.svgrepo.com, Generator: SVG Repo Mixer Tools -->
<svg width="64px" height="64px" viewBox="0 0 24 24" fill="none" xmlns="http://www.w3.org/2000/svg">
<path d="M6 10C5.44772 10 5 10.4477 5 11C5 11.5523 5.44772 12 6 12C6.55229 12 7 11.5523 7 11C7 10.4477 6.55229 10 6 10Z" fill="#FFFFFF"/>
<path fill-rule="evenodd" clip-rule="evenodd" d="M7 1C5.89543 1 5 1.89543 5 3V7H4C2.34315 7 1 8.34315 1 10V17C1 18.6569 2.34315 20 4 20H5V21C5 22.1046 5.89543 23 7 23H17C18.1046 23 19 22.1046 19 21V20H20C21.6569 20 23 18.6569 23 17V10C23 8.34315 21.6569 7 20 7H19V3C19 1.89543 18.1046 1 17 1H7ZM17 7H7V4C7 3.44772 7.44771 3 8 3H16C16.5523 3 17 3.44772 17 4V7ZM7 14C5.89543 14 5 14.8954 5 16V18H4C3.44772 18 3 17.5523 3 17V10C3 9.44772 3.44772 9 4 9H20C20.5523 9 21 9.44772 21 10V17C21 17.5523 20.5523 18 20 18H19V16C19 14.8954 18.1046 14 17 14H7ZM16 16C16.5523 16 17 16.4477 17 17V20C17 20.5523 16.5523 21 16 21H8C7.44772 21 7 20.5523 7 20V17C7 16.4477 7.44771 16 8 16H16Z" fill="#FFFFFF"/>
</svg>