
<svg width="213" height="176" viewBox="0 0 213 176" fill="none" xmlns="http://www.w3.org/2000/svg">
<g clip-path="url(#clip0_2_14)">
<path d="M211.289 67.306C211.219 67.306 211.151 67.2845 211.094 67.2443L116.482 0.994786C116.194 0.794115 115.852 0.686872 115.501 0.687473C115.151 0.688074 114.809 0.796487 114.522 0.998145L20.5912 67.2436C20.5169 67.296 20.425 67.3166 20.3356 67.3008C20.2462 67.2851 20.1667 67.2342 20.1146 67.1595C20.0625 67.0848 20.042 66.9924 20.0577 66.9025C20.0734 66.8127 20.124 66.7327 20.1983 66.6803L114.129 0.434829C114.531 0.152552 115.01 0.000813699 115.5 3.26343e-06C115.991 -0.000807172 116.47 0.149347 116.873 0.430294L211.485 66.6796C211.545 66.7215 211.59 66.7815 211.613 66.8508C211.637 66.9201 211.638 66.9952 211.616 67.0651C211.594 67.1349 211.551 67.196 211.492 67.2393C211.433 67.2826 211.362 67.306 211.289 67.3059L211.289 67.306Z" fill="#3F3D56"/>
<path d="M25.9587 69.6543L115.594 2.86145L205.91 74.4069L120.213 125.486L73.6865 114.823L25.9587 69.6543Z" fill="#EBEDEF"/>
<path d="M77.6137 157.036H33.3315C33.0596 157.036 32.7903 156.983 32.539 156.878C32.2877 156.774 32.0593 156.621 31.8669 156.427C31.6745 156.234 31.5219 156.005 31.4178 155.752C31.3136 155.5 31.26 155.229 31.26 154.956C31.26 154.682 31.3136 154.411 31.4178 154.159C31.5219 153.906 31.6745 153.677 31.8669 153.484C32.0593 153.291 32.2877 153.137 32.539 153.033C32.7903 152.929 33.0596 152.875 33.3315 152.875H77.6137C77.8856 152.875 78.155 152.929 78.4063 153.033C78.6576 153.137 78.8859 153.291 79.0783 153.484C79.2707 153.677 79.4234 153.906 79.5275 154.159C79.6316 154.411 79.6852 154.682 79.6852 154.956C79.6852 155.229 79.6316 155.5 79.5275 155.752C79.4234 156.005 79.2707 156.234 79.0783 156.427C78.8859 156.621 78.6576 156.774 78.4063 156.878C78.155 156.983 77.8856 157.036 77.6137 157.036Z" fill="#3157A6"/>
<path d="M49.219 148.093H33.3315C33.0596 148.093 32.7903 148.039 32.539 147.935C32.2877 147.831 32.0593 147.677 31.8669 147.484C31.6745 147.291 31.5219 147.062 31.4178 146.809C31.3136 146.557 31.26 146.286 31.26 146.012C31.26 145.739 31.3136 145.468 31.4178 145.216C31.5219 144.963 31.6745 144.734 31.8669 144.541C32.0593 144.347 32.2877 144.194 32.539 144.09C32.7903 143.986 33.0596 143.932 33.3315 143.932H49.219C49.4909 143.932 49.7602 143.986 50.0115 144.09C50.2628 144.194 50.4912 144.347 50.6836 144.541C50.876 144.734 51.0286 144.963 51.1328 145.216C51.2369 145.468 51.2905 145.739 51.2905 146.012C51.2905 146.286 51.2369 146.557 51.1328 146.809C51.0286 147.062 50.876 147.291 50.6836 147.484C50.4912 147.677 50.2628 147.831 50.0115 147.935C49.7602 148.039 49.4909 148.093 49.219 148.093Z" fill="#3157A6"/>
<path d="M116.855 106.857C116.518 106.857 116.185 106.792 115.873 106.664L60.5922 83.6011V11.411C60.5929 10.7727 60.8454 10.1607 61.2944 9.70928C61.7433 9.25789 62.352 9.00398 62.9869 9.00323H169.04C169.674 9.00398 170.283 9.25789 170.732 9.70928C171.181 10.1607 171.434 10.7727 171.434 11.411V83.6514L171.33 83.6961L117.866 106.652C117.546 106.788 117.202 106.857 116.855 106.857Z" fill="white"/>
<path d="M116.855 107.029C116.496 107.029 116.14 106.959 115.808 106.823L60.4211 83.7159V11.411C60.4219 10.727 60.6925 10.0713 61.1735 9.58769C61.6545 9.10406 62.3067 8.83201 62.9869 8.83124H169.04C169.72 8.83201 170.372 9.10406 170.853 9.58769C171.334 10.0713 171.605 10.727 171.605 11.411V83.765L117.933 106.811C117.592 106.955 117.225 107.029 116.855 107.029ZM61.1053 83.2564L116.069 106.187C116.582 106.396 117.156 106.393 117.666 106.177L170.921 83.3108V11.411C170.921 10.9094 170.722 10.4286 170.369 10.0739C170.017 9.71928 169.538 9.51977 169.04 9.51917H62.9869C62.4881 9.51977 62.0098 9.71928 61.6571 10.0739C61.3044 10.4286 61.1059 10.9094 61.1053 11.411L61.1053 83.2564Z" fill="#3F3D56"/>
<path d="M210.605 66.618H210.537L171.263 83.4794L117.529 106.549C117.319 106.638 117.093 106.684 116.866 106.686C116.638 106.687 116.412 106.643 116.201 106.556L60.7632 83.4312L20.5247 66.6456L20.4632 66.618H20.3947C19.7598 66.6188 19.1511 66.8727 18.7022 67.324C18.2532 67.7754 18.0007 68.3875 18 69.0258V173.592C18.0007 174.231 18.2532 174.843 18.7022 175.294C19.1511 175.745 19.7598 175.999 20.3947 176H210.605C211.24 175.999 211.849 175.745 212.298 175.294C212.747 174.843 212.999 174.231 213 173.592V69.0258C212.999 68.3875 212.747 67.7754 212.298 67.324C211.849 66.8727 211.24 66.6188 210.605 66.618ZM212.316 173.592C212.316 174.048 212.135 174.486 211.815 174.808C211.494 175.131 211.059 175.312 210.605 175.312H20.3947C19.9411 175.312 19.5062 175.131 19.1854 174.808C18.8647 174.486 18.6844 174.048 18.6842 173.592V69.0258C18.6848 68.5811 18.8564 68.1538 19.1631 67.8333C19.4698 67.5127 19.8878 67.3238 20.3298 67.306L60.7632 84.1742L115.938 107.193C116.535 107.437 117.204 107.433 117.799 107.182L171.263 84.2258L210.674 67.306C211.115 67.3251 211.532 67.5146 211.838 67.8349C212.144 68.1552 212.315 68.5818 212.316 69.0258V173.592Z" fill="#3F3D56"/>
<path d="M116.302 86.3866C114.261 86.3905 112.275 85.7269 110.642 84.4961L110.541 84.4197L89.2236 68.0098C88.2364 67.2493 87.4078 66.3007 86.7852 65.2182C86.1626 64.1357 85.7582 62.9405 85.595 61.7008C85.4318 60.4612 85.513 59.2013 85.834 57.9932C86.1551 56.7851 86.7096 55.6525 87.4661 54.6599C88.2225 53.6672 89.1659 52.8342 90.2426 52.2082C91.3192 51.5822 92.5079 51.1755 93.7409 51.0114C94.9738 50.8473 96.2268 50.929 97.4284 51.2518C98.6299 51.5746 99.7565 52.1321 100.744 52.8927L114.551 63.5377L147.181 20.7526C147.937 19.7603 148.881 18.9275 149.958 18.3019C151.035 17.6763 152.224 17.27 153.457 17.1064C154.69 16.9427 155.943 17.0249 157.144 17.3481C158.345 17.6714 159.472 18.2294 160.459 18.9903L160.256 19.2673L160.464 18.9943C162.455 20.5328 163.757 22.8024 164.086 25.3052C164.415 27.8081 163.742 30.3398 162.217 32.3449L123.837 82.6705C122.949 83.8302 121.808 84.7686 120.501 85.4131C119.194 86.0576 117.758 86.3907 116.302 86.3866Z" fill="#3157A6"/>
</g>
<path d="M25.3863 43.1955C25.2026 42.2426 23.9441 41.6839 22.5754 41.9475C21.2068 42.2111 20.2462 43.1971 20.4299 44.15C20.6136 45.1028 21.8721 45.6616 23.2408 45.398C24.6095 45.1344 25.57 44.1483 25.3863 43.1955Z" fill="#E6E6E6"/>
<path d="M40.3687 36.2842C40.185 35.3314 38.9265 34.7727 37.5578 35.0362C36.1892 35.2998 35.2286 36.2859 35.4123 37.2387C35.5961 38.1916 36.8545 38.7503 38.2232 38.4867C39.5919 38.2231 40.5525 37.237 40.3687 36.2842Z" fill="#3F3D56"/>
<path d="M16.7664 32.1066C16.5826 31.1538 15.3242 30.595 13.9555 30.8586C12.5868 31.1222 11.6262 32.1083 11.81 33.0611C11.9937 34.0139 13.2522 34.5727 14.6208 34.3091C15.9895 34.0455 16.9501 33.0594 16.7664 32.1066Z" fill="#00C1E2"/>
<path d="M8.23607 29.3041C7.95264 28.4693 7.25249 27.9522 6.67223 28.1492C6.09197 28.3462 5.85135 29.1827 6.13477 30.0175C6.4182 30.8523 7.11835 31.3694 7.69861 31.1724C8.27887 30.9754 8.51949 30.1389 8.23607 29.3041Z" fill="#E6E6E6"/>
<path d="M2.61449 20.5116C2.33106 19.6768 1.63091 19.1597 1.05065 19.3567C0.470392 19.5537 0.229764 20.3901 0.513191 21.225C0.796618 22.0598 1.49677 22.5768 2.07703 22.3798C2.65729 22.1828 2.89792 21.3464 2.61449 20.5116Z" fill="#3F3D56"/>
<path d="M26.2583 31.2013C25.9749 30.3665 25.2747 29.8494 24.6945 30.0464C24.1142 30.2434 23.8736 31.0798 24.157 31.9147C24.4404 32.7495 25.1406 33.2665 25.7208 33.0695C26.3011 32.8725 26.5417 32.0361 26.2583 31.2013Z" fill="#E6E6E6"/>
<path d="M32.9084 40.8462C32.6249 40.0114 31.9248 39.4944 31.3445 39.6914C30.7643 39.8884 30.5237 40.7248 30.8071 41.5596C31.0905 42.3944 31.7907 42.9115 32.3709 42.7145C32.9512 42.5175 33.1918 41.6811 32.9084 40.8462Z" fill="#3F3D56"/>
<defs>
<clipPath id="clip0_2_14">
<rect x="18" width="195" height="176" fill="white"/>
</clipPath>
</defs>
</svg>
