<svg width="100" height="100" viewBox="0 0 100 100" fill="none" xmlns="http://www.w3.org/2000/svg">
<circle cx="50" cy="50" r="50" fill="#D3F0FF"/>
<path d="M77.1663 35.7021C77.1672 34.7138 76.9359 33.7392 76.4911 32.8566C76.0463 31.9741 75.4004 31.2083 74.6054 30.6211C73.8105 30.0339 72.8887 29.6416 71.9144 29.4759C70.9401 29.3102 69.9405 29.3756 68.9961 29.6669C68.0517 29.9583 67.189 30.4674 66.4774 31.1532C65.7658 31.839 65.2252 32.6824 64.8992 33.6154C64.5733 34.5484 64.471 35.5449 64.6007 36.5247C64.7304 37.5044 65.0884 38.44 65.6459 39.2561L59.6085 46.693L54.1795 34.2148C55.1697 33.3814 55.8796 32.2638 56.2132 31.0134C56.5467 29.7629 56.4878 28.4402 56.0442 27.2244C55.6007 26.0086 54.7941 24.9586 53.7337 24.2167C52.6733 23.4748 51.4104 23.0769 50.1163 23.0769C48.8221 23.0769 47.5593 23.4748 46.4989 24.2167C45.4385 24.9586 44.6319 26.0086 44.1883 27.2244C43.7448 28.4402 43.6858 29.7629 44.0194 31.0134C44.3529 32.2638 45.0629 33.3814 46.053 34.2148L40.6376 46.6862L34.6002 39.2493C35.3758 38.1129 35.7587 36.7542 35.6906 35.3801C35.6225 34.0059 35.1072 32.6917 34.2231 31.6375C33.3391 30.5834 32.1347 29.847 30.7934 29.5406C29.4522 29.2342 28.0475 29.3746 26.7934 29.9404C25.5393 30.5062 24.5045 31.4663 23.8465 32.6746C23.1885 33.8829 22.9435 35.2731 23.1487 36.6335C23.354 37.9939 23.9982 39.25 24.9833 40.2104C25.9684 41.1709 27.2404 41.783 28.6056 41.9536L31.8688 61.5352C32.0091 62.3771 32.4435 63.1419 33.0946 63.6936C33.7458 64.2453 34.5716 64.5482 35.425 64.5483H64.8211C65.6745 64.5482 66.5003 64.2453 67.1514 63.6936C67.8026 63.1419 68.237 62.3771 68.3772 61.5352L71.6382 41.9627C73.1643 41.7721 74.5683 41.0307 75.5862 39.8779C76.6042 38.725 77.1661 37.2401 77.1663 35.7021ZM50.123 26.6877C50.6579 26.6877 51.1808 26.8463 51.6255 27.1435C52.0702 27.4406 52.4168 27.863 52.6215 28.3571C52.8262 28.8513 52.8798 29.395 52.7754 29.9196C52.6711 30.4442 52.4135 30.9261 52.0353 31.3043C51.6571 31.6825 51.1752 31.9401 50.6506 32.0444C50.126 32.1488 49.5823 32.0952 49.0881 31.8905C48.594 31.6858 48.1716 31.3392 47.8745 30.8945C47.5773 30.4498 47.4187 29.9269 47.4187 29.392C47.4187 28.6748 47.7036 27.987 48.2108 27.4798C48.718 26.9726 49.4058 26.6877 50.123 26.6877ZM26.6855 35.7021C26.6855 35.1673 26.8441 34.6444 27.1413 34.1997C27.4385 33.755 27.8608 33.4084 28.355 33.2037C28.8491 32.999 29.3929 32.9454 29.9175 33.0498C30.442 33.1541 30.9239 33.4117 31.3021 33.7899C31.6803 34.1681 31.9379 34.65 32.0422 35.1746C32.1466 35.6991 32.093 36.2429 31.8883 36.737C31.6837 37.2312 31.337 37.6536 30.8923 37.9507C30.4476 38.2479 29.9247 38.4065 29.3899 38.4065C28.6726 38.4065 27.9848 38.1216 27.4776 37.6144C26.9705 37.1072 26.6855 36.4194 26.6855 35.7021ZM64.8211 60.9425H35.425L32.288 42.1294L39.7091 51.252C39.8772 51.462 40.0901 51.6316 40.3323 51.7486C40.5744 51.8656 40.8397 51.9269 41.1086 51.9281C41.19 51.9285 41.2713 51.9232 41.352 51.9123C41.6592 51.8706 41.9503 51.7503 42.1975 51.5632C42.4446 51.3761 42.6393 51.1284 42.7628 50.8441L49.3658 35.6548C49.8687 35.7179 50.3774 35.7179 50.8803 35.6548L57.4833 50.8441C57.6068 51.1284 57.8015 51.3761 58.0486 51.5632C58.2957 51.7503 58.5869 51.8706 58.8941 51.9123C58.9747 51.9232 59.0561 51.9285 59.1375 51.9281C59.4064 51.9269 59.6717 51.8656 59.9138 51.7486C60.156 51.6316 60.3689 51.462 60.537 51.252L67.9581 42.1204L64.8211 60.9425ZM70.8562 38.4065C70.3213 38.4065 69.7985 38.2479 69.3538 37.9507C68.909 37.6536 68.5624 37.2312 68.3577 36.737C68.1531 36.2429 68.0995 35.6991 68.2039 35.1746C68.3082 34.65 68.5658 34.1681 68.944 33.7899C69.3222 33.4117 69.804 33.1541 70.3286 33.0498C70.8532 32.9454 71.397 32.999 71.8911 33.2037C72.3853 33.4084 72.8076 33.755 73.1048 34.1997C73.4019 34.6444 73.5605 35.1673 73.5605 35.7021C73.5605 36.4194 73.2756 37.1072 72.7685 37.6144C72.2613 38.1216 71.5734 38.4065 70.8562 38.4065Z" fill="#0051FF"/>
<path d="M42.308 50.0002L30.7695 40.3848L34.6157 63.4617H65.5873L69.2311 40.3848L59.6157 51.9233L50.0003 32.6925L42.308 50.0002Z" fill="#0051FF"/>
<rect x="34.6152" y="69.2307" width="30.7692" height="3.84615" rx="1.92308" fill="#0051FF"/>
</svg>
