<?xml version="1.0" encoding="UTF-8"?>
<svg xmlns="http://www.w3.org/2000/svg" xmlns:xlink="http://www.w3.org/1999/xlink" width="20px" height="20px" viewBox="0 0 20 20" version="1.1">
<g id="surface1">
<path style=" stroke:none;fill-rule:nonzero;fill:rgb(100%,100%,100%);fill-opacity:1;" d="M 11.058594 1.050781 C 11.058594 1.058594 11.058594 1.0625 11.058594 1.070312 C 11.058594 1.5 11.0625 1.929688 11.0625 2.359375 C 11.0625 2.410156 11.0625 2.464844 11.0625 2.515625 C 11.0625 2.53125 11.0625 2.53125 11.0625 2.546875 C 11.0625 2.710938 11.0625 2.878906 11.0625 3.042969 C 11.0625 3.214844 11.066406 3.386719 11.066406 3.558594 C 11.066406 3.652344 11.066406 3.75 11.066406 3.84375 C 11.023438 4.792969 11.023438 4.792969 11.171875 5.71875 C 11.175781 5.734375 11.175781 5.734375 11.183594 5.75 C 11.28125 6.03125 11.4375 6.285156 11.628906 6.503906 C 11.636719 6.507812 11.640625 6.515625 11.644531 6.519531 C 11.878906 6.785156 12.1875 6.996094 12.519531 7.125 C 12.554688 7.136719 12.589844 7.152344 12.621094 7.164062 C 12.878906 7.273438 13.109375 7.289062 13.386719 7.285156 C 13.445312 7.285156 13.507812 7.285156 13.566406 7.285156 C 13.59375 7.285156 13.617188 7.285156 13.644531 7.285156 C 13.648438 7.285156 13.65625 7.285156 13.664062 7.285156 C 13.710938 7.285156 13.757812 7.285156 13.804688 7.285156 C 14.023438 7.28125 14.242188 7.28125 14.464844 7.285156 C 14.480469 7.285156 14.496094 7.285156 14.515625 7.285156 C 14.585938 7.285156 14.65625 7.285156 14.726562 7.285156 C 14.90625 7.289062 15.085938 7.289062 15.265625 7.289062 C 15.320312 7.289062 15.375 7.289062 15.429688 7.289062 C 15.4375 7.289062 15.445312 7.289062 15.457031 7.289062 C 15.472656 7.289062 15.492188 7.289062 15.511719 7.289062 C 15.539062 7.289062 15.566406 7.289062 15.59375 7.292969 C 15.722656 7.292969 15.855469 7.292969 15.988281 7.292969 C 15.996094 7.292969 16.003906 7.292969 16.015625 7.292969 C 16.0625 7.292969 16.109375 7.292969 16.15625 7.292969 C 16.542969 7.296875 16.925781 7.296875 17.308594 7.300781 C 17.3125 8.074219 17.3125 8.847656 17.300781 12.550781 C 17.300781 12.792969 17.300781 13.039062 17.300781 13.28125 C 17.300781 13.289062 17.300781 13.296875 17.300781 13.304688 C 17.300781 13.320312 17.300781 13.335938 17.300781 13.351562 C 17.300781 13.390625 17.300781 13.429688 17.300781 13.46875 C 17.300781 13.476562 17.300781 13.484375 17.300781 13.492188 C 17.296875 13.699219 17.296875 13.902344 17.296875 14.105469 C 17.296875 14.132812 17.296875 14.164062 17.296875 14.191406 C 17.296875 14.199219 17.296875 14.207031 17.296875 14.214844 C 17.296875 14.3125 17.296875 14.410156 17.296875 14.507812 C 17.292969 15 17.292969 15.496094 17.289062 15.992188 C 17.285156 16.019531 17.285156 16.046875 17.285156 16.070312 C 17.285156 16.25 17.28125 16.429688 17.277344 16.605469 C 17.277344 16.613281 17.277344 16.621094 17.277344 16.628906 C 17.261719 17.226562 17.121094 17.746094 16.699219 18.191406 C 16.691406 18.203125 16.679688 18.214844 16.667969 18.226562 C 16.597656 18.3125 16.515625 18.386719 16.429688 18.453125 C 16.417969 18.464844 16.40625 18.472656 16.394531 18.480469 C 16.074219 18.738281 15.699219 18.898438 15.289062 18.914062 C 15.277344 18.914062 15.269531 18.914062 15.257812 18.914062 C 15.027344 18.925781 14.796875 18.929688 14.566406 18.933594 C 14.523438 18.933594 14.480469 18.933594 14.4375 18.933594 C 13.59375 18.949219 12.75 18.953125 11.886719 18.957031 C 11.785156 18.957031 11.6875 18.957031 11.585938 18.957031 C 10.757812 18.960938 9.929688 18.960938 8.394531 18.957031 C 8.292969 18.957031 8.195312 18.957031 8.09375 18.953125 C 7.25 18.953125 6.40625 18.949219 5.53125 18.933594 C 5.488281 18.933594 5.445312 18.933594 5.402344 18.929688 C 5.171875 18.925781 4.941406 18.921875 4.710938 18.914062 C 4.703125 18.914062 4.695312 18.914062 4.683594 18.914062 C 4.230469 18.894531 3.808594 18.675781 3.480469 18.371094 C 3.464844 18.355469 3.449219 18.34375 3.4375 18.332031 C 3.234375 18.15625 3.074219 17.929688 2.953125 17.695312 C 2.949219 17.6875 2.945312 17.679688 2.941406 17.671875 C 2.558594 16.933594 2.722656 15.847656 2.714844 14.691406 C 2.714844 14.6875 2.714844 14.679688 2.714844 14.671875 C 2.707031 13.964844 2.707031 13.253906 2.703125 12.546875 C 2.703125 12.414062 2.703125 12.285156 2.703125 12.15625 C 2.699219 11.355469 2.699219 10.554688 2.703125 7.820312 C 2.703125 7.6875 2.703125 7.558594 2.703125 7.429688 C 2.707031 6.722656 2.707031 6.015625 2.714844 5.308594 C 2.714844 5.300781 2.714844 5.292969 2.714844 5.285156 C 2.726562 3.605469 2.726562 3.605469 2.746094 3.050781 C 2.746094 3.019531 2.746094 2.992188 2.746094 2.964844 C 2.75 2.871094 2.765625 2.78125 2.792969 2.691406 C 2.792969 2.683594 2.796875 2.675781 2.800781 2.667969 C 2.894531 2.34375 3.078125 2.046875 3.308594 1.800781 C 3.320312 1.785156 3.332031 1.773438 3.339844 1.761719 C 3.398438 1.695312 3.457031 1.640625 3.523438 1.585938 C 3.542969 1.574219 3.5625 1.558594 3.578125 1.542969 C 3.804688 1.34375 4.089844 1.210938 4.375 1.125 C 4.386719 1.121094 4.398438 1.117188 4.410156 1.113281 C 4.550781 1.078125 4.707031 1.078125 4.851562 1.074219 C 4.863281 1.074219 4.875 1.070312 4.886719 1.070312 C 5 1.066406 5.117188 1.066406 5.230469 1.0625 C 5.238281 1.0625 5.25 1.0625 5.261719 1.0625 C 5.65625 1.054688 6.046875 1.054688 6.4375 1.054688 C 6.496094 1.054688 6.554688 1.054688 6.613281 1.054688 C 7.433594 1.050781 8.253906 1.050781 11.058594 1.050781 Z M 4.34375 9.582031 C 4.265625 9.675781 4.214844 9.777344 4.1875 9.898438 C 4.1875 9.90625 4.183594 9.914062 4.183594 9.925781 C 4.164062 10.117188 4.222656 10.265625 4.34375 10.414062 C 4.351562 10.421875 4.351562 10.421875 4.359375 10.429688 C 4.367188 10.445312 4.378906 10.457031 4.386719 10.46875 C 4.414062 10.5 4.441406 10.53125 4.464844 10.5625 C 4.476562 10.578125 4.492188 10.59375 4.503906 10.609375 C 4.550781 10.671875 4.601562 10.730469 4.652344 10.789062 C 4.667969 10.804688 4.679688 10.820312 4.691406 10.835938 C 4.738281 10.890625 4.78125 10.941406 4.828125 10.992188 C 4.914062 11.097656 5 11.199219 5.085938 11.304688 C 5.105469 11.324219 5.121094 11.347656 5.140625 11.367188 C 5.148438 11.375 5.152344 11.382812 5.160156 11.390625 C 5.164062 11.394531 5.167969 11.398438 5.175781 11.40625 C 5.183594 11.425781 5.183594 11.425781 5.175781 11.449219 C 5.164062 11.484375 5.144531 11.511719 5.121094 11.542969 C 5.117188 11.546875 5.113281 11.554688 5.109375 11.558594 C 5.042969 11.648438 4.972656 11.734375 4.902344 11.820312 C 4.890625 11.839844 4.875 11.855469 4.863281 11.871094 C 4.824219 11.917969 4.78125 11.96875 4.742188 12.015625 C 4.703125 12.0625 4.664062 12.109375 4.625 12.15625 C 4.601562 12.183594 4.578125 12.214844 4.554688 12.242188 C 4.5 12.308594 4.445312 12.371094 4.394531 12.4375 C 4.390625 12.441406 4.386719 12.449219 4.378906 12.457031 C 4.246094 12.625 4.160156 12.757812 4.179688 12.980469 C 4.203125 13.152344 4.289062 13.292969 4.417969 13.402344 C 4.5625 13.507812 4.71875 13.539062 4.890625 13.523438 C 5.066406 13.492188 5.199219 13.359375 5.320312 13.238281 C 5.328125 13.230469 5.335938 13.222656 5.347656 13.210938 C 5.386719 13.167969 5.429688 13.125 5.46875 13.082031 C 5.488281 13.058594 5.507812 13.035156 5.527344 13.015625 C 5.566406 12.972656 5.601562 12.929688 5.640625 12.882812 C 5.660156 12.859375 5.683594 12.832031 5.707031 12.808594 C 5.746094 12.765625 5.78125 12.722656 5.816406 12.679688 C 5.847656 12.640625 5.882812 12.601562 5.917969 12.5625 C 5.949219 12.523438 5.984375 12.484375 6.011719 12.441406 C 6.019531 12.4375 6.023438 12.433594 6.027344 12.425781 C 6.035156 12.425781 6.042969 12.425781 6.054688 12.425781 C 6.074219 12.445312 6.074219 12.445312 6.09375 12.472656 C 6.121094 12.507812 6.148438 12.542969 6.179688 12.578125 C 6.21875 12.617188 6.253906 12.660156 6.285156 12.703125 C 6.308594 12.726562 6.328125 12.75 6.347656 12.773438 C 6.378906 12.804688 6.40625 12.839844 6.433594 12.871094 C 6.46875 12.914062 6.503906 12.957031 6.539062 12.996094 C 6.558594 13.015625 6.574219 13.035156 6.59375 13.054688 C 6.625 13.089844 6.65625 13.125 6.6875 13.160156 C 6.703125 13.179688 6.71875 13.195312 6.734375 13.214844 C 6.882812 13.378906 7.042969 13.511719 7.273438 13.542969 C 7.433594 13.550781 7.570312 13.480469 7.691406 13.378906 C 7.773438 13.300781 7.832031 13.207031 7.871094 13.101562 C 7.875 13.09375 7.878906 13.085938 7.882812 13.078125 C 7.925781 12.941406 7.90625 12.785156 7.847656 12.65625 C 7.785156 12.539062 7.695312 12.4375 7.605469 12.335938 C 7.585938 12.308594 7.5625 12.28125 7.539062 12.253906 C 7.492188 12.195312 7.441406 12.136719 7.390625 12.078125 C 7.292969 11.964844 7.195312 11.851562 7.097656 11.734375 C 7.066406 11.695312 7.035156 11.660156 7.003906 11.621094 C 6.917969 11.527344 6.917969 11.527344 6.910156 11.472656 C 6.917969 11.34375 7.09375 11.191406 7.175781 11.09375 C 7.191406 11.074219 7.210938 11.050781 7.226562 11.03125 C 7.265625 10.984375 7.308594 10.9375 7.347656 10.890625 C 7.351562 10.886719 7.355469 10.878906 7.359375 10.875 C 7.386719 10.847656 7.410156 10.820312 7.433594 10.792969 C 7.488281 10.726562 7.542969 10.664062 7.59375 10.59375 C 7.609375 10.574219 7.628906 10.550781 7.648438 10.527344 C 7.789062 10.359375 7.929688 10.175781 7.910156 9.945312 C 7.882812 9.769531 7.8125 9.625 7.675781 9.511719 C 7.519531 9.402344 7.359375 9.371094 7.171875 9.394531 C 6.972656 9.4375 6.816406 9.605469 6.6875 9.757812 C 6.667969 9.78125 6.648438 9.800781 6.628906 9.824219 C 6.597656 9.859375 6.566406 9.890625 6.539062 9.929688 C 6.496094 9.980469 6.449219 10.03125 6.402344 10.082031 C 6.375 10.109375 6.347656 10.140625 6.324219 10.167969 C 6.289062 10.207031 6.257812 10.246094 6.222656 10.28125 C 6.214844 10.289062 6.214844 10.289062 6.210938 10.296875 C 6.160156 10.351562 6.109375 10.40625 6.054688 10.460938 C 6.023438 10.441406 5.996094 10.421875 5.96875 10.394531 C 5.964844 10.390625 5.957031 10.382812 5.949219 10.375 C 5.941406 10.367188 5.9375 10.363281 5.929688 10.355469 C 5.917969 10.34375 5.917969 10.34375 5.910156 10.332031 C 5.871094 10.292969 5.832031 10.253906 5.796875 10.214844 C 5.777344 10.191406 5.761719 10.171875 5.742188 10.152344 C 5.710938 10.121094 5.683594 10.085938 5.65625 10.050781 C 5.617188 10.003906 5.578125 9.957031 5.535156 9.914062 C 5.515625 9.894531 5.496094 9.871094 5.476562 9.851562 C 5.40625 9.765625 5.328125 9.6875 5.253906 9.609375 C 5.246094 9.601562 5.238281 9.59375 5.230469 9.585938 C 5.105469 9.457031 4.953125 9.382812 4.769531 9.378906 C 4.601562 9.386719 4.460938 9.464844 4.34375 9.582031 Z M 8.519531 9.570312 C 8.511719 9.574219 8.507812 9.578125 8.5 9.585938 C 8.359375 9.71875 8.355469 9.910156 8.347656 10.09375 C 8.347656 10.105469 8.347656 10.113281 8.34375 10.125 C 8.34375 10.136719 8.34375 10.148438 8.34375 10.160156 C 8.339844 10.285156 8.335938 10.410156 8.335938 10.535156 C 8.335938 10.542969 8.335938 10.546875 8.335938 10.554688 C 8.328125 10.964844 8.332031 11.371094 8.332031 11.78125 C 8.332031 11.867188 8.332031 11.957031 8.332031 12.042969 C 8.332031 12.128906 8.332031 12.210938 8.332031 12.296875 C 8.332031 12.347656 8.332031 12.398438 8.332031 12.449219 C 8.332031 12.496094 8.332031 12.542969 8.332031 12.589844 C 8.332031 12.605469 8.332031 12.625 8.332031 12.640625 C 8.332031 12.730469 8.332031 12.820312 8.335938 12.910156 C 8.335938 12.917969 8.335938 12.925781 8.335938 12.933594 C 8.34375 13.085938 8.410156 13.214844 8.511719 13.328125 C 8.515625 13.335938 8.523438 13.339844 8.527344 13.347656 C 8.632812 13.460938 8.765625 13.523438 8.914062 13.535156 C 9.101562 13.539062 9.273438 13.464844 9.40625 13.339844 C 9.550781 13.199219 9.558594 13.019531 9.5625 12.832031 C 9.566406 12.820312 9.566406 12.808594 9.566406 12.796875 C 9.570312 12.632812 9.570312 12.46875 9.574219 12.300781 C 9.574219 12.257812 9.574219 12.210938 9.574219 12.167969 C 9.578125 12.078125 9.578125 11.992188 9.578125 11.902344 C 9.582031 11.90625 9.589844 11.914062 9.59375 11.917969 C 9.613281 11.941406 9.636719 11.960938 9.660156 11.984375 C 9.667969 11.992188 9.675781 12 9.683594 12.007812 C 9.832031 12.15625 9.992188 12.273438 10.210938 12.289062 C 10.429688 12.285156 10.589844 12.152344 10.734375 12.003906 C 10.75 11.984375 10.769531 11.964844 10.785156 11.949219 C 10.789062 11.941406 10.796875 11.933594 10.800781 11.925781 C 10.804688 11.921875 10.8125 11.917969 10.816406 11.910156 C 10.816406 11.921875 10.816406 11.929688 10.816406 11.941406 C 10.816406 12.035156 10.816406 12.125 10.816406 12.21875 C 10.820312 12.265625 10.820312 12.3125 10.820312 12.359375 C 10.800781 12.855469 10.800781 12.855469 10.984375 13.300781 C 10.992188 13.308594 11 13.316406 11.003906 13.328125 C 11.117188 13.449219 11.261719 13.519531 11.425781 13.535156 C 11.625 13.539062 11.792969 13.453125 11.941406 13.316406 C 12.015625 13.242188 12.027344 13.132812 12.039062 13.03125 C 12.042969 13.023438 12.042969 13.015625 12.042969 13.007812 C 12.066406 12.820312 12.0625 12.632812 12.0625 12.445312 C 12.0625 12.421875 12.0625 12.394531 12.0625 12.371094 C 12.0625 12.308594 12.0625 12.246094 12.0625 12.183594 C 12.0625 12.132812 12.0625 12.082031 12.0625 12.03125 C 12.0625 11.886719 12.0625 11.742188 12.0625 11.601562 C 12.0625 11.59375 12.0625 11.585938 12.0625 11.578125 C 12.0625 11.570312 12.0625 11.5625 12.0625 11.554688 C 12.0625 11.429688 12.0625 11.304688 12.0625 11.179688 C 12.0625 11.046875 12.0625 10.917969 12.0625 10.789062 C 12.0625 10.71875 12.0625 10.644531 12.0625 10.574219 C 12.0625 10.511719 12.0625 10.449219 12.0625 10.390625 C 12.0625 10.359375 12.0625 10.328125 12.0625 10.296875 C 12.066406 10.175781 12.0625 10.058594 12.054688 9.9375 C 12.054688 9.929688 12.054688 9.917969 12.050781 9.910156 C 12.042969 9.796875 12.011719 9.722656 11.941406 9.632812 C 11.933594 9.625 11.925781 9.617188 11.921875 9.609375 C 11.828125 9.5 11.703125 9.40625 11.554688 9.390625 C 11.386719 9.378906 11.210938 9.410156 11.078125 9.519531 C 11 9.589844 10.933594 9.664062 10.871094 9.746094 C 10.863281 9.757812 10.851562 9.773438 10.84375 9.785156 C 10.78125 9.863281 10.71875 9.945312 10.660156 10.023438 C 10.617188 10.082031 10.578125 10.136719 10.535156 10.191406 C 10.484375 10.253906 10.4375 10.320312 10.390625 10.382812 C 10.386719 10.390625 10.378906 10.398438 10.375 10.40625 C 10.355469 10.433594 10.332031 10.460938 10.3125 10.492188 C 10.296875 10.511719 10.28125 10.535156 10.265625 10.554688 C 10.261719 10.5625 10.253906 10.566406 10.25 10.574219 C 10.238281 10.589844 10.226562 10.605469 10.214844 10.617188 C 10.210938 10.617188 10.203125 10.617188 10.195312 10.617188 C 10.183594 10.601562 10.183594 10.601562 10.164062 10.574219 C 10.15625 10.5625 10.148438 10.554688 10.140625 10.542969 C 10.132812 10.535156 10.132812 10.535156 10.128906 10.527344 C 10.097656 10.488281 10.070312 10.449219 10.039062 10.410156 C 9.992188 10.351562 9.949219 10.289062 9.902344 10.230469 C 9.859375 10.171875 9.8125 10.113281 9.769531 10.054688 C 9.753906 10.035156 9.742188 10.015625 9.726562 9.996094 C 9.621094 9.859375 9.507812 9.722656 9.394531 9.59375 C 9.382812 9.578125 9.371094 9.566406 9.359375 9.550781 C 9.277344 9.453125 9.171875 9.40625 9.042969 9.390625 C 8.855469 9.375 8.660156 9.441406 8.519531 9.570312 Z M 12.660156 9.585938 C 12.527344 9.753906 12.523438 9.910156 12.515625 10.117188 C 12.515625 10.128906 12.515625 10.140625 12.515625 10.148438 C 12.511719 10.273438 12.507812 10.394531 12.507812 10.519531 C 12.507812 10.527344 12.507812 10.53125 12.507812 10.539062 C 12.5 10.878906 12.5 11.222656 12.5 11.5625 C 12.5 11.625 12.5 11.683594 12.5 11.742188 C 12.5 12.203125 12.5 12.203125 12.507812 12.664062 C 12.507812 12.671875 12.507812 12.679688 12.507812 12.6875 C 12.507812 12.78125 12.511719 12.871094 12.519531 12.960938 C 12.519531 12.96875 12.523438 12.976562 12.523438 12.984375 C 12.539062 13.152344 12.613281 13.277344 12.738281 13.390625 C 12.890625 13.515625 13.054688 13.523438 13.242188 13.527344 C 13.253906 13.53125 13.253906 13.53125 13.261719 13.53125 C 13.417969 13.535156 13.574219 13.535156 13.730469 13.535156 C 13.769531 13.535156 13.808594 13.535156 13.847656 13.535156 C 13.910156 13.535156 13.972656 13.535156 14.039062 13.535156 C 14.113281 13.535156 14.183594 13.535156 14.257812 13.535156 C 14.320312 13.535156 14.386719 13.535156 14.449219 13.535156 C 14.488281 13.535156 14.523438 13.535156 14.5625 13.535156 C 14.714844 13.535156 14.867188 13.535156 15.019531 13.53125 C 15.035156 13.53125 15.050781 13.53125 15.066406 13.527344 C 15.144531 13.527344 15.21875 13.523438 15.296875 13.515625 C 15.304688 13.515625 15.308594 13.511719 15.316406 13.511719 C 15.46875 13.492188 15.601562 13.414062 15.699219 13.296875 C 15.800781 13.160156 15.828125 12.996094 15.804688 12.828125 C 15.78125 12.664062 15.710938 12.519531 15.578125 12.417969 C 15.414062 12.308594 15.222656 12.3125 15.035156 12.308594 C 15.027344 12.308594 15.027344 12.308594 15.015625 12.308594 C 14.777344 12.304688 14.539062 12.304688 14.300781 12.304688 C 14.238281 12.304688 14.175781 12.304688 14.113281 12.304688 C 13.992188 12.304688 13.871094 12.304688 13.75 12.304688 C 13.75 12.296875 13.75 12.296875 13.75 12.289062 C 13.75 12.113281 13.75 12.113281 13.75 11.9375 C 13.75 11.929688 13.75 11.929688 13.75 11.917969 C 13.75 11.425781 13.742188 10.929688 13.734375 10.4375 C 13.734375 10.417969 13.734375 10.417969 13.734375 10.402344 C 13.734375 10.285156 13.730469 10.171875 13.726562 10.054688 C 13.726562 10.046875 13.726562 10.035156 13.722656 10.027344 C 13.71875 9.859375 13.707031 9.726562 13.589844 9.597656 C 13.582031 9.589844 13.574219 9.578125 13.566406 9.570312 C 13.460938 9.460938 13.328125 9.398438 13.175781 9.390625 C 13.167969 9.390625 13.15625 9.390625 13.144531 9.390625 C 12.953125 9.382812 12.792969 9.445312 12.660156 9.585938 Z M 12.660156 9.585938 "/>
<path style=" stroke:none;fill-rule:nonzero;fill:rgb(100%,100%,100%);fill-opacity:1;" d="M 12.296875 1.425781 C 12.324219 1.4375 12.34375 1.453125 12.367188 1.476562 C 12.375 1.480469 12.382812 1.488281 12.386719 1.496094 C 12.394531 1.503906 12.402344 1.507812 12.410156 1.515625 C 12.417969 1.523438 12.425781 1.53125 12.433594 1.539062 C 12.457031 1.5625 12.476562 1.582031 12.5 1.605469 C 12.523438 1.628906 12.546875 1.652344 12.570312 1.675781 C 12.609375 1.71875 12.652344 1.757812 12.691406 1.800781 C 12.753906 1.863281 12.816406 1.921875 12.875 1.984375 C 12.980469 2.085938 13.082031 2.191406 13.1875 2.292969 C 13.289062 2.394531 13.390625 2.5 13.492188 2.601562 C 13.503906 2.609375 13.503906 2.609375 13.511719 2.621094 C 13.539062 2.644531 13.5625 2.671875 13.589844 2.695312 C 13.832031 2.9375 14.074219 3.179688 14.316406 3.421875 C 14.53125 3.636719 14.746094 3.851562 14.960938 4.070312 C 14.972656 4.082031 14.988281 4.097656 15.003906 4.109375 C 15.007812 4.117188 15.015625 4.125 15.023438 4.128906 C 15.058594 4.164062 15.089844 4.199219 15.125 4.234375 C 15.132812 4.242188 15.140625 4.246094 15.144531 4.253906 C 15.324219 4.433594 15.503906 4.613281 15.683594 4.792969 C 15.691406 4.800781 15.699219 4.804688 15.703125 4.8125 C 15.730469 4.839844 15.753906 4.863281 15.78125 4.890625 C 15.871094 4.980469 15.960938 5.070312 16.050781 5.15625 C 16.164062 5.273438 16.28125 5.386719 16.394531 5.503906 C 16.457031 5.566406 16.519531 5.625 16.578125 5.6875 C 16.621094 5.726562 16.660156 5.769531 16.699219 5.808594 C 16.722656 5.832031 16.746094 5.855469 16.769531 5.878906 C 16.796875 5.902344 16.820312 5.929688 16.84375 5.953125 C 16.851562 5.960938 16.859375 5.96875 16.867188 5.976562 C 16.875 5.980469 16.878906 5.988281 16.886719 5.996094 C 16.894531 6.003906 16.894531 6.003906 16.90625 6.011719 C 16.917969 6.027344 16.917969 6.027344 16.917969 6.035156 C 16.835938 6.042969 16.753906 6.046875 16.671875 6.046875 C 16.660156 6.046875 16.648438 6.046875 16.636719 6.046875 C 16.605469 6.046875 16.570312 6.046875 16.539062 6.046875 C 16.511719 6.046875 16.484375 6.046875 16.457031 6.046875 C 16.371094 6.050781 16.289062 6.050781 16.207031 6.050781 C 16.164062 6.050781 16.125 6.050781 16.085938 6.050781 C 15.582031 6.054688 15.078125 6.054688 14.574219 6.054688 C 14.523438 6.054688 14.472656 6.054688 14.421875 6.054688 C 14.335938 6.054688 14.246094 6.054688 14.160156 6.054688 C 14.128906 6.054688 14.101562 6.054688 14.074219 6.054688 C 13.921875 6.054688 13.769531 6.054688 13.621094 6.050781 C 13.613281 6.050781 13.605469 6.050781 13.601562 6.050781 C 13.183594 6.039062 12.847656 6 12.542969 5.683594 C 12.503906 5.636719 12.46875 5.582031 12.433594 5.527344 C 12.417969 5.496094 12.398438 5.46875 12.378906 5.441406 C 12.273438 5.273438 12.28125 5.109375 12.28125 4.917969 C 12.285156 4.871094 12.285156 4.824219 12.285156 4.777344 C 12.285156 4.695312 12.285156 4.613281 12.285156 4.53125 C 12.285156 4.414062 12.285156 4.296875 12.285156 4.179688 C 12.285156 3.988281 12.285156 3.800781 12.289062 3.609375 C 12.289062 3.425781 12.289062 3.238281 12.289062 3.054688 C 12.289062 3.042969 12.289062 3.03125 12.289062 3.019531 C 12.289062 2.960938 12.289062 2.90625 12.289062 2.847656 C 12.292969 2.375 12.292969 1.898438 12.296875 1.425781 Z M 12.296875 1.425781 "/>
</g>
</svg>
