<?xml version="1.0" encoding="UTF-8"?>
<svg xmlns="http://www.w3.org/2000/svg" xmlns:xlink="http://www.w3.org/1999/xlink" width="13px" height="13px" viewBox="0 0 13 13" version="1.1">
<g id="surface1">
<path style=" stroke:none;fill-rule:nonzero;fill:rgb(23.529412%,34.901962%,57.647061%);fill-opacity:1;" d="M 7.1875 0.683594 C 7.1875 0.6875 7.1875 0.691406 7.1875 0.695312 C 7.1875 0.976562 7.191406 1.253906 7.191406 1.535156 C 7.191406 1.566406 7.191406 1.601562 7.191406 1.636719 C 7.191406 1.644531 7.191406 1.644531 7.191406 1.65625 C 7.191406 1.761719 7.191406 1.871094 7.191406 1.980469 C 7.191406 2.089844 7.191406 2.203125 7.191406 2.3125 C 7.191406 2.375 7.191406 2.4375 7.191406 2.5 C 7.164062 3.113281 7.164062 3.113281 7.261719 3.714844 C 7.265625 3.726562 7.265625 3.726562 7.269531 3.738281 C 7.332031 3.917969 7.433594 4.085938 7.558594 4.226562 C 7.5625 4.230469 7.566406 4.234375 7.566406 4.238281 C 7.722656 4.410156 7.921875 4.546875 8.136719 4.632812 C 8.160156 4.640625 8.183594 4.648438 8.203125 4.65625 C 8.371094 4.730469 8.523438 4.738281 8.703125 4.734375 C 8.742188 4.734375 8.78125 4.734375 8.820312 4.734375 C 8.835938 4.734375 8.851562 4.734375 8.867188 4.734375 C 8.871094 4.734375 8.875 4.734375 8.882812 4.734375 C 8.910156 4.734375 8.941406 4.734375 8.972656 4.734375 C 9.117188 4.734375 9.257812 4.734375 9.402344 4.734375 C 9.414062 4.734375 9.421875 4.734375 9.433594 4.734375 C 9.480469 4.734375 9.527344 4.734375 9.570312 4.734375 C 9.6875 4.738281 9.804688 4.738281 9.921875 4.738281 C 9.957031 4.738281 9.992188 4.738281 10.027344 4.738281 C 10.035156 4.738281 10.039062 4.738281 10.046875 4.738281 C 10.058594 4.738281 10.070312 4.738281 10.082031 4.738281 C 10.097656 4.738281 10.117188 4.738281 10.136719 4.738281 C 10.21875 4.738281 10.304688 4.738281 10.390625 4.742188 C 10.398438 4.742188 10.402344 4.742188 10.410156 4.742188 C 10.441406 4.742188 10.472656 4.742188 10.5 4.742188 C 10.75 4.742188 11 4.746094 11.25 4.746094 C 11.253906 5.25 11.253906 5.753906 11.246094 8.160156 C 11.246094 8.316406 11.246094 8.476562 11.246094 8.632812 C 11.246094 8.636719 11.246094 8.644531 11.246094 8.648438 C 11.246094 8.660156 11.246094 8.667969 11.246094 8.679688 C 11.246094 8.703125 11.246094 8.730469 11.246094 8.753906 C 11.246094 8.761719 11.246094 8.765625 11.246094 8.769531 C 11.242188 8.902344 11.242188 9.035156 11.242188 9.167969 C 11.242188 9.1875 11.242188 9.207031 11.242188 9.226562 C 11.242188 9.230469 11.242188 9.234375 11.242188 9.238281 C 11.242188 9.300781 11.242188 9.367188 11.242188 9.429688 C 11.242188 9.75 11.238281 10.074219 11.238281 10.394531 C 11.238281 10.414062 11.238281 10.429688 11.234375 10.445312 C 11.234375 10.5625 11.234375 10.679688 11.230469 10.792969 C 11.230469 10.800781 11.230469 10.804688 11.230469 10.808594 C 11.222656 11.195312 11.128906 11.535156 10.855469 11.824219 C 10.847656 11.832031 10.84375 11.839844 10.835938 11.847656 C 10.789062 11.902344 10.734375 11.949219 10.679688 11.996094 C 10.671875 12 10.664062 12.007812 10.65625 12.011719 C 10.445312 12.179688 10.203125 12.285156 9.9375 12.292969 C 9.929688 12.292969 9.925781 12.292969 9.917969 12.292969 C 9.769531 12.300781 9.617188 12.304688 9.46875 12.304688 C 9.441406 12.304688 9.410156 12.304688 9.382812 12.308594 C 8.835938 12.316406 8.285156 12.320312 7.726562 12.320312 C 7.660156 12.320312 7.597656 12.320312 7.53125 12.320312 C 6.992188 12.324219 6.453125 12.324219 5.457031 12.320312 C 5.390625 12.320312 5.328125 12.320312 5.261719 12.320312 C 4.714844 12.320312 4.164062 12.316406 3.59375 12.304688 C 3.566406 12.304688 3.539062 12.304688 3.511719 12.304688 C 3.363281 12.304688 3.210938 12.300781 3.0625 12.292969 C 3.058594 12.292969 3.050781 12.292969 3.042969 12.292969 C 2.75 12.28125 2.476562 12.140625 2.261719 11.941406 C 2.253906 11.933594 2.242188 11.921875 2.234375 11.914062 C 2.101562 11.800781 2 11.65625 1.917969 11.5 C 1.917969 11.496094 1.914062 11.492188 1.910156 11.488281 C 1.664062 11.007812 1.769531 10.300781 1.761719 9.550781 C 1.761719 9.546875 1.761719 9.542969 1.761719 9.535156 C 1.761719 9.074219 1.757812 8.613281 1.757812 8.152344 C 1.757812 8.070312 1.757812 7.984375 1.757812 7.902344 C 1.753906 7.378906 1.753906 6.859375 1.757812 5.082031 C 1.757812 4.996094 1.757812 4.914062 1.757812 4.828125 C 1.757812 4.367188 1.761719 3.910156 1.761719 3.449219 C 1.761719 3.445312 1.765625 3.441406 1.765625 3.4375 C 1.773438 2.34375 1.773438 2.34375 1.785156 1.980469 C 1.785156 1.964844 1.785156 1.945312 1.785156 1.925781 C 1.789062 1.867188 1.796875 1.808594 1.816406 1.75 C 1.816406 1.742188 1.816406 1.738281 1.820312 1.734375 C 1.882812 1.523438 2 1.328125 2.152344 1.167969 C 2.15625 1.160156 2.164062 1.152344 2.171875 1.144531 C 2.207031 1.101562 2.246094 1.066406 2.292969 1.03125 C 2.304688 1.023438 2.3125 1.011719 2.324219 1.003906 C 2.472656 0.875 2.65625 0.789062 2.84375 0.730469 C 2.851562 0.730469 2.859375 0.726562 2.867188 0.722656 C 2.957031 0.699219 3.058594 0.699219 3.152344 0.699219 C 3.160156 0.695312 3.167969 0.695312 3.175781 0.695312 C 3.25 0.695312 3.324219 0.691406 3.398438 0.691406 C 3.40625 0.691406 3.414062 0.691406 3.421875 0.691406 C 3.675781 0.6875 3.929688 0.6875 4.183594 0.683594 C 4.222656 0.683594 4.261719 0.683594 4.300781 0.683594 C 4.832031 0.683594 5.363281 0.683594 7.1875 0.683594 Z M 2.824219 6.230469 C 2.773438 6.289062 2.738281 6.355469 2.722656 6.433594 C 2.722656 6.4375 2.71875 6.445312 2.71875 6.449219 C 2.707031 6.578125 2.746094 6.671875 2.824219 6.769531 C 2.828125 6.773438 2.828125 6.773438 2.832031 6.78125 C 2.839844 6.789062 2.847656 6.796875 2.851562 6.804688 C 2.867188 6.824219 2.886719 6.847656 2.902344 6.867188 C 2.910156 6.875 2.917969 6.886719 2.925781 6.894531 C 2.960938 6.9375 2.992188 6.976562 3.023438 7.015625 C 3.035156 7.023438 3.042969 7.035156 3.050781 7.042969 C 3.078125 7.078125 3.109375 7.113281 3.136719 7.144531 C 3.195312 7.210938 3.25 7.28125 3.304688 7.347656 C 3.316406 7.363281 3.328125 7.375 3.339844 7.386719 C 3.34375 7.394531 3.347656 7.398438 3.355469 7.402344 C 3.355469 7.40625 3.359375 7.410156 3.363281 7.414062 C 3.367188 7.425781 3.367188 7.425781 3.367188 7.441406 C 3.355469 7.464844 3.34375 7.484375 3.328125 7.503906 C 3.328125 7.503906 3.324219 7.507812 3.320312 7.511719 C 3.277344 7.570312 3.234375 7.628906 3.1875 7.683594 C 3.179688 7.695312 3.167969 7.707031 3.160156 7.714844 C 3.136719 7.746094 3.109375 7.777344 3.082031 7.808594 C 3.054688 7.839844 3.03125 7.871094 3.007812 7.902344 C 2.992188 7.917969 2.976562 7.9375 2.960938 7.957031 C 2.925781 8 2.890625 8.042969 2.855469 8.082031 C 2.855469 8.089844 2.851562 8.09375 2.847656 8.097656 C 2.761719 8.203125 2.703125 8.292969 2.71875 8.4375 C 2.730469 8.546875 2.789062 8.640625 2.871094 8.710938 C 2.964844 8.78125 3.066406 8.800781 3.179688 8.789062 C 3.292969 8.769531 3.378906 8.683594 3.457031 8.605469 C 3.464844 8.597656 3.46875 8.59375 3.476562 8.585938 C 3.503906 8.558594 3.527344 8.53125 3.554688 8.503906 C 3.566406 8.488281 3.582031 8.472656 3.59375 8.460938 C 3.617188 8.433594 3.640625 8.402344 3.664062 8.375 C 3.679688 8.359375 3.695312 8.339844 3.710938 8.324219 C 3.734375 8.296875 3.757812 8.269531 3.78125 8.242188 C 3.800781 8.214844 3.824219 8.191406 3.847656 8.164062 C 3.867188 8.140625 3.890625 8.113281 3.910156 8.085938 C 3.910156 8.082031 3.914062 8.082031 3.917969 8.078125 C 3.921875 8.078125 3.929688 8.078125 3.933594 8.078125 C 3.945312 8.089844 3.945312 8.089844 3.960938 8.109375 C 3.980469 8.128906 3.996094 8.152344 4.015625 8.175781 C 4.042969 8.203125 4.0625 8.230469 4.085938 8.257812 C 4.097656 8.273438 4.113281 8.289062 4.128906 8.304688 C 4.144531 8.324219 4.164062 8.34375 4.183594 8.367188 C 4.203125 8.394531 4.226562 8.421875 4.25 8.449219 C 4.261719 8.460938 4.273438 8.472656 4.285156 8.484375 C 4.304688 8.507812 4.328125 8.53125 4.347656 8.554688 C 4.355469 8.566406 4.367188 8.578125 4.378906 8.589844 C 4.472656 8.695312 4.578125 8.78125 4.726562 8.800781 C 4.832031 8.808594 4.921875 8.761719 5 8.695312 C 5.050781 8.644531 5.089844 8.585938 5.117188 8.515625 C 5.117188 8.511719 5.121094 8.507812 5.121094 8.5 C 5.152344 8.414062 5.140625 8.308594 5.101562 8.226562 C 5.058594 8.148438 5 8.082031 4.945312 8.015625 C 4.929688 8 4.914062 7.984375 4.902344 7.964844 C 4.871094 7.925781 4.835938 7.890625 4.804688 7.851562 C 4.738281 7.777344 4.675781 7.703125 4.613281 7.625 C 4.59375 7.601562 4.574219 7.578125 4.550781 7.554688 C 4.496094 7.492188 4.496094 7.492188 4.492188 7.457031 C 4.496094 7.371094 4.609375 7.273438 4.664062 7.210938 C 4.675781 7.199219 4.6875 7.183594 4.695312 7.171875 C 4.722656 7.140625 4.75 7.109375 4.777344 7.078125 C 4.777344 7.074219 4.78125 7.070312 4.785156 7.070312 C 4.800781 7.050781 4.816406 7.03125 4.832031 7.015625 C 4.867188 6.972656 4.902344 6.929688 4.9375 6.886719 C 4.945312 6.871094 4.957031 6.859375 4.96875 6.84375 C 5.0625 6.734375 5.15625 6.613281 5.140625 6.464844 C 5.125 6.351562 5.078125 6.257812 4.988281 6.183594 C 4.886719 6.109375 4.78125 6.09375 4.660156 6.105469 C 4.53125 6.132812 4.429688 6.246094 4.347656 6.339844 C 4.335938 6.355469 4.320312 6.371094 4.308594 6.386719 C 4.289062 6.40625 4.269531 6.429688 4.25 6.453125 C 4.222656 6.488281 4.191406 6.519531 4.160156 6.554688 C 4.144531 6.570312 4.125 6.589844 4.109375 6.609375 C 4.089844 6.632812 4.066406 6.660156 4.046875 6.683594 C 4.039062 6.6875 4.039062 6.6875 4.035156 6.691406 C 4.003906 6.726562 3.96875 6.765625 3.933594 6.796875 C 3.914062 6.785156 3.898438 6.773438 3.878906 6.757812 C 3.875 6.753906 3.871094 6.75 3.867188 6.746094 C 3.863281 6.738281 3.859375 6.734375 3.855469 6.730469 C 3.847656 6.722656 3.847656 6.722656 3.839844 6.71875 C 3.816406 6.691406 3.792969 6.664062 3.769531 6.640625 C 3.757812 6.625 3.742188 6.613281 3.730469 6.597656 C 3.714844 6.578125 3.695312 6.554688 3.675781 6.535156 C 3.652344 6.503906 3.625 6.472656 3.597656 6.445312 C 3.585938 6.429688 3.574219 6.417969 3.5625 6.402344 C 3.511719 6.347656 3.464844 6.296875 3.414062 6.246094 C 3.410156 6.242188 3.40625 6.234375 3.398438 6.230469 C 3.316406 6.148438 3.21875 6.097656 3.101562 6.097656 C 2.992188 6.101562 2.898438 6.152344 2.824219 6.230469 Z M 5.539062 6.21875 C 5.535156 6.222656 5.53125 6.226562 5.527344 6.230469 C 5.433594 6.316406 5.429688 6.441406 5.425781 6.5625 C 5.425781 6.566406 5.425781 6.574219 5.425781 6.582031 C 5.425781 6.589844 5.425781 6.59375 5.425781 6.601562 C 5.421875 6.683594 5.417969 6.765625 5.417969 6.847656 C 5.417969 6.851562 5.417969 6.855469 5.417969 6.859375 C 5.414062 7.125 5.414062 7.390625 5.414062 7.65625 C 5.414062 7.714844 5.414062 7.769531 5.414062 7.828125 C 5.414062 7.882812 5.414062 7.9375 5.414062 7.992188 C 5.414062 8.027344 5.414062 8.058594 5.414062 8.089844 C 5.414062 8.121094 5.414062 8.152344 5.414062 8.183594 C 5.414062 8.195312 5.414062 8.203125 5.414062 8.214844 C 5.414062 8.273438 5.414062 8.332031 5.417969 8.390625 C 5.417969 8.394531 5.417969 8.402344 5.417969 8.40625 C 5.425781 8.503906 5.464844 8.589844 5.53125 8.664062 C 5.535156 8.667969 5.539062 8.671875 5.542969 8.675781 C 5.609375 8.75 5.699219 8.789062 5.792969 8.796875 C 5.914062 8.800781 6.027344 8.75 6.113281 8.671875 C 6.207031 8.582031 6.210938 8.464844 6.21875 8.339844 C 6.21875 8.332031 6.21875 8.324219 6.21875 8.320312 C 6.222656 8.210938 6.222656 8.105469 6.222656 7.996094 C 6.222656 7.964844 6.222656 7.9375 6.222656 7.90625 C 6.226562 7.851562 6.226562 7.792969 6.226562 7.738281 C 6.230469 7.738281 6.230469 7.742188 6.234375 7.746094 C 6.25 7.761719 6.265625 7.773438 6.277344 7.789062 C 6.285156 7.792969 6.289062 7.800781 6.292969 7.804688 C 6.390625 7.902344 6.496094 7.976562 6.636719 7.988281 C 6.777344 7.984375 6.882812 7.898438 6.976562 7.800781 C 6.988281 7.789062 7 7.777344 7.011719 7.765625 C 7.011719 7.761719 7.015625 7.757812 7.019531 7.753906 C 7.023438 7.75 7.027344 7.746094 7.03125 7.742188 C 7.03125 7.75 7.03125 7.753906 7.03125 7.761719 C 7.03125 7.820312 7.03125 7.882812 7.03125 7.941406 C 7.03125 7.972656 7.03125 8.003906 7.03125 8.035156 C 7.023438 8.355469 7.023438 8.355469 7.140625 8.644531 C 7.144531 8.652344 7.148438 8.65625 7.152344 8.664062 C 7.226562 8.742188 7.320312 8.789062 7.425781 8.796875 C 7.558594 8.800781 7.667969 8.746094 7.761719 8.65625 C 7.808594 8.605469 7.816406 8.535156 7.824219 8.472656 C 7.828125 8.464844 7.828125 8.460938 7.828125 8.453125 C 7.84375 8.332031 7.839844 8.210938 7.839844 8.089844 C 7.839844 8.074219 7.839844 8.058594 7.839844 8.039062 C 7.839844 8 7.839844 7.960938 7.839844 7.917969 C 7.839844 7.886719 7.839844 7.851562 7.839844 7.820312 C 7.839844 7.726562 7.839844 7.632812 7.839844 7.539062 C 7.839844 7.535156 7.839844 7.53125 7.839844 7.523438 C 7.839844 7.519531 7.839844 7.515625 7.839844 7.507812 C 7.839844 7.429688 7.839844 7.347656 7.839844 7.265625 C 7.839844 7.179688 7.839844 7.097656 7.839844 7.015625 C 7.839844 6.964844 7.839844 6.917969 7.839844 6.871094 C 7.839844 6.832031 7.839844 6.792969 7.839844 6.753906 C 7.839844 6.734375 7.839844 6.710938 7.839844 6.691406 C 7.84375 6.613281 7.839844 6.535156 7.835938 6.460938 C 7.835938 6.453125 7.835938 6.449219 7.832031 6.441406 C 7.828125 6.367188 7.808594 6.320312 7.761719 6.261719 C 7.757812 6.257812 7.753906 6.253906 7.75 6.246094 C 7.6875 6.175781 7.605469 6.113281 7.511719 6.105469 C 7.402344 6.097656 7.285156 6.117188 7.199219 6.1875 C 7.152344 6.234375 7.105469 6.28125 7.066406 6.335938 C 7.058594 6.34375 7.054688 6.351562 7.046875 6.359375 C 7.007812 6.410156 6.96875 6.464844 6.929688 6.515625 C 6.902344 6.554688 6.875 6.589844 6.847656 6.625 C 6.816406 6.664062 6.785156 6.707031 6.753906 6.75 C 6.75 6.753906 6.746094 6.757812 6.742188 6.761719 C 6.730469 6.78125 6.714844 6.800781 6.703125 6.820312 C 6.691406 6.832031 6.683594 6.847656 6.671875 6.859375 C 6.667969 6.863281 6.664062 6.867188 6.664062 6.875 C 6.65625 6.882812 6.648438 6.894531 6.640625 6.902344 C 6.636719 6.902344 6.632812 6.902344 6.628906 6.902344 C 6.617188 6.890625 6.617188 6.890625 6.605469 6.875 C 6.601562 6.867188 6.597656 6.859375 6.589844 6.851562 C 6.585938 6.847656 6.585938 6.847656 6.582031 6.839844 C 6.5625 6.816406 6.542969 6.792969 6.527344 6.765625 C 6.496094 6.726562 6.464844 6.6875 6.4375 6.648438 C 6.40625 6.609375 6.378906 6.574219 6.351562 6.535156 C 6.339844 6.523438 6.332031 6.511719 6.320312 6.5 C 6.253906 6.410156 6.179688 6.320312 6.105469 6.234375 C 6.097656 6.226562 6.089844 6.21875 6.085938 6.207031 C 6.03125 6.144531 5.960938 6.113281 5.878906 6.105469 C 5.753906 6.09375 5.628906 6.136719 5.539062 6.21875 Z M 8.230469 6.230469 C 8.140625 6.339844 8.140625 6.441406 8.136719 6.574219 C 8.136719 6.582031 8.136719 6.589844 8.136719 6.597656 C 8.132812 6.675781 8.128906 6.757812 8.128906 6.835938 C 8.128906 6.839844 8.128906 6.847656 8.128906 6.851562 C 8.125 7.070312 8.125 7.292969 8.125 7.515625 C 8.125 7.554688 8.125 7.59375 8.125 7.632812 C 8.125 7.933594 8.125 7.933594 8.128906 8.230469 C 8.128906 8.238281 8.128906 8.242188 8.128906 8.25 C 8.128906 8.308594 8.132812 8.363281 8.136719 8.421875 C 8.140625 8.429688 8.140625 8.433594 8.140625 8.441406 C 8.148438 8.550781 8.199219 8.632812 8.28125 8.703125 C 8.378906 8.785156 8.484375 8.789062 8.605469 8.792969 C 8.613281 8.792969 8.613281 8.792969 8.621094 8.792969 C 8.722656 8.796875 8.824219 8.796875 8.925781 8.796875 C 8.949219 8.796875 8.976562 8.796875 9 8.796875 C 9.042969 8.796875 9.082031 8.796875 9.125 8.796875 C 9.171875 8.796875 9.21875 8.796875 9.265625 8.796875 C 9.308594 8.796875 9.351562 8.796875 9.390625 8.796875 C 9.417969 8.796875 9.441406 8.796875 9.464844 8.796875 C 9.566406 8.796875 9.664062 8.796875 9.761719 8.792969 C 9.773438 8.792969 9.78125 8.792969 9.792969 8.792969 C 9.84375 8.792969 9.894531 8.789062 9.941406 8.785156 C 9.949219 8.785156 9.953125 8.785156 9.957031 8.785156 C 10.054688 8.769531 10.140625 8.71875 10.203125 8.640625 C 10.269531 8.554688 10.289062 8.449219 10.273438 8.339844 C 10.257812 8.234375 10.210938 8.136719 10.125 8.070312 C 10.019531 8 9.894531 8.003906 9.773438 8 C 9.765625 8 9.765625 8 9.757812 8 C 9.605469 7.996094 9.449219 7.996094 9.296875 8 C 9.253906 8 9.214844 8 9.175781 8 C 9.09375 8 9.015625 8 8.9375 8 C 8.9375 7.992188 8.9375 7.992188 8.9375 7.988281 C 8.9375 7.875 8.9375 7.875 8.9375 7.761719 C 8.9375 7.753906 8.9375 7.753906 8.9375 7.746094 C 8.9375 7.425781 8.933594 7.105469 8.925781 6.785156 C 8.925781 6.773438 8.925781 6.773438 8.925781 6.761719 C 8.925781 6.6875 8.925781 6.609375 8.921875 6.535156 C 8.921875 6.53125 8.921875 6.523438 8.921875 6.515625 C 8.917969 6.40625 8.910156 6.320312 8.832031 6.238281 C 8.828125 6.230469 8.824219 6.226562 8.816406 6.21875 C 8.75 6.148438 8.664062 6.109375 8.566406 6.105469 C 8.558594 6.105469 8.550781 6.101562 8.542969 6.101562 C 8.417969 6.097656 8.316406 6.140625 8.230469 6.230469 Z M 8.230469 6.230469 "/>
<path style=" stroke:none;fill-rule:nonzero;fill:rgb(23.529412%,34.901962%,57.647061%);fill-opacity:1;" d="M 7.992188 0.925781 C 8.011719 0.933594 8.023438 0.945312 8.039062 0.957031 C 8.042969 0.964844 8.046875 0.96875 8.050781 0.972656 C 8.058594 0.976562 8.0625 0.980469 8.066406 0.984375 C 8.070312 0.992188 8.078125 0.996094 8.082031 1 C 8.097656 1.015625 8.109375 1.03125 8.125 1.042969 C 8.140625 1.058594 8.15625 1.074219 8.167969 1.089844 C 8.195312 1.117188 8.222656 1.144531 8.25 1.171875 C 8.289062 1.210938 8.328125 1.25 8.371094 1.289062 C 8.4375 1.355469 8.503906 1.421875 8.570312 1.492188 C 8.636719 1.558594 8.703125 1.625 8.769531 1.691406 C 8.777344 1.695312 8.777344 1.695312 8.78125 1.703125 C 8.800781 1.71875 8.816406 1.734375 8.832031 1.753906 C 8.992188 1.910156 9.148438 2.066406 9.304688 2.226562 C 9.445312 2.363281 9.585938 2.503906 9.722656 2.644531 C 9.734375 2.652344 9.742188 2.664062 9.75 2.671875 C 9.753906 2.675781 9.761719 2.679688 9.765625 2.683594 C 9.789062 2.707031 9.808594 2.730469 9.832031 2.753906 C 9.835938 2.757812 9.839844 2.761719 9.84375 2.765625 C 9.960938 2.882812 10.078125 3 10.195312 3.117188 C 10.199219 3.121094 10.203125 3.125 10.207031 3.128906 C 10.222656 3.144531 10.242188 3.160156 10.257812 3.179688 C 10.316406 3.238281 10.375 3.292969 10.433594 3.351562 C 10.507812 3.425781 10.582031 3.503906 10.65625 3.578125 C 10.695312 3.617188 10.738281 3.65625 10.777344 3.695312 C 10.800781 3.722656 10.828125 3.75 10.855469 3.777344 C 10.871094 3.789062 10.886719 3.804688 10.902344 3.820312 C 10.917969 3.835938 10.933594 3.855469 10.949219 3.871094 C 10.953125 3.875 10.957031 3.878906 10.964844 3.882812 C 10.96875 3.886719 10.972656 3.894531 10.976562 3.898438 C 10.980469 3.902344 10.980469 3.902344 10.988281 3.910156 C 10.996094 3.917969 10.996094 3.917969 10.996094 3.921875 C 10.941406 3.929688 10.890625 3.929688 10.835938 3.929688 C 10.828125 3.929688 10.820312 3.929688 10.8125 3.929688 C 10.792969 3.929688 10.773438 3.929688 10.75 3.929688 C 10.734375 3.929688 10.714844 3.929688 10.695312 3.929688 C 10.640625 3.933594 10.589844 3.933594 10.535156 3.933594 C 10.507812 3.933594 10.480469 3.933594 10.457031 3.933594 C 10.128906 3.933594 9.800781 3.9375 9.472656 3.9375 C 9.441406 3.9375 9.40625 3.9375 9.375 3.9375 C 9.316406 3.9375 9.261719 3.9375 9.203125 3.9375 C 9.183594 3.9375 9.164062 3.9375 9.148438 3.9375 C 9.050781 3.9375 8.949219 3.933594 8.851562 3.933594 C 8.847656 3.933594 8.84375 3.933594 8.839844 3.933594 C 8.566406 3.925781 8.351562 3.902344 8.152344 3.695312 C 8.125 3.664062 8.105469 3.628906 8.082031 3.59375 C 8.070312 3.574219 8.058594 3.554688 8.046875 3.535156 C 7.976562 3.429688 7.980469 3.320312 7.984375 3.195312 C 7.984375 3.164062 7.984375 3.136719 7.984375 3.105469 C 7.984375 3.050781 7.984375 3 7.984375 2.945312 C 7.984375 2.871094 7.984375 2.792969 7.984375 2.71875 C 7.984375 2.59375 7.984375 2.46875 7.988281 2.347656 C 7.988281 2.226562 7.988281 2.105469 7.988281 1.984375 C 7.988281 1.976562 7.988281 1.96875 7.988281 1.960938 C 7.988281 1.925781 7.988281 1.886719 7.988281 1.851562 C 7.988281 1.542969 7.992188 1.234375 7.992188 0.925781 Z M 7.992188 0.925781 "/>
</g>
</svg>
