<svg width="100" height="20" viewBox="0 0 155 32" fill="none" xmlns="http://www.w3.org/2000/svg">
<path fill-rule="evenodd" clip-rule="evenodd" d="M40.7806 0C43.1795 0 45.3006 0.529134 47.0681 1.53701C48.861 2.59528 50.2245 4.08189 51.1841 5.97165C52.1436 7.88661 52.6234 10.1543 52.6234 12.7496C52.6234 15.5465 52.0679 17.9906 50.9316 19.9811C49.8205 21.9968 48.2045 23.4583 46.1086 24.3906C47.1944 24.7433 48.0782 25.5496 48.8105 26.7339L50.073 28.6236C50.3256 29.052 50.4771 29.4551 50.4771 29.8835C50.4771 30.4126 50.275 30.8661 49.8458 31.1937C49.4165 31.5213 48.9115 31.7228 48.356 31.7228C47.9267 31.7228 47.5227 31.622 47.1439 31.4205C46.7904 31.2189 46.4621 30.9165 46.2096 30.5386L44.139 27.1118C43.8108 26.5575 43.3815 26.1543 42.8512 25.9024C42.3209 25.6504 41.6392 25.4992 40.7806 25.4992C38.3312 25.4992 36.2354 24.9701 34.4426 23.9622C32.6497 22.9039 31.2862 21.4173 30.3266 19.5276C29.3671 17.5874 28.8873 15.3197 28.8873 12.7496C28.8873 10.1543 29.3923 7.91181 30.3266 5.97165C31.2862 4.05669 32.675 2.59528 34.4426 1.53701C36.2354 0.47874 38.3312 0 40.7806 0ZM101.257 0.0251969C101.863 0.0251969 102.343 0.277165 102.772 0.806299L110.019 9.77638L117.241 0.806299C117.67 0.302362 118.201 0.0503937 118.807 0.0503937C119.337 0.0503937 119.817 0.251969 120.246 0.680315C120.675 1.10866 120.877 1.5622 120.877 2.16693C120.877 2.62047 120.701 3.09921 120.347 3.52756L112.292 13.3291V23.1307C112.292 23.8614 112.09 24.4157 111.661 24.8441C111.231 25.2724 110.701 25.4488 110.045 25.4488C109.363 25.4488 108.782 25.2472 108.353 24.8441C107.923 24.4409 107.721 23.8866 107.721 23.1307V13.3291L99.7168 3.50236C99.3633 3.07402 99.1865 2.62047 99.1865 2.14173C99.1865 1.5874 99.3885 1.08346 99.8178 0.655118C100.247 0.226772 100.752 0.0251969 101.257 0.0251969ZM74.7182 2.24252C73.2283 0.88189 71.1578 0.226772 68.4811 0.226772H59.7695C59.0877 0.226772 58.5574 0.428346 58.1534 0.781102C57.7494 1.15906 57.5474 1.68819 57.5474 2.3685V23.0551C57.5474 23.7606 57.7494 24.315 58.1787 24.7433C58.5574 25.1717 59.1382 25.3732 59.82 25.3984C60.527 25.3984 61.0825 25.1969 61.5118 24.7685C61.9411 24.3654 62.1431 23.811 62.1431 23.0803V15.4709H68.4811C71.1578 15.4709 73.2283 14.8157 74.7182 13.4551C76.208 12.1197 76.9655 10.2299 76.9655 7.83622C76.9655 5.44252 76.208 3.55276 74.7182 2.24252ZM21.8927 0.0251969C22.5745 0.0251969 23.1806 0.226772 23.5846 0.655118C24.0138 1.08346 24.2159 1.6126 24.2159 2.29291V23.0551C24.2159 23.7354 24.0138 24.315 23.5846 24.7433C23.1553 25.1717 22.5998 25.3732 21.8927 25.3732C21.2362 25.3732 20.6807 25.1717 20.2514 24.7433C19.8222 24.315 19.6201 23.7606 19.6201 23.0551V2.29291C19.6201 1.6126 19.8222 1.08346 20.2514 0.655118C20.6807 0.226772 21.211 0.0251969 21.8927 0.0251969ZM90.1466 0.352756C89.7174 0.125984 89.2628 0 88.7578 0C88.2528 0 87.7983 0.100787 87.369 0.352756C86.9145 0.604724 86.5862 0.982677 86.3842 1.43622L76.5868 22.4252C76.4605 22.7276 76.3847 23.0551 76.3847 23.3575C76.3847 23.9118 76.5868 24.3906 77.0413 24.7433C77.4705 25.0961 78.0008 25.2976 78.5311 25.2976C78.9351 25.2976 79.2886 25.1968 79.6169 24.9953C79.9452 24.7937 80.1977 24.4913 80.3997 24.063L82.546 19.326H94.9696L97.1159 24.063C97.2927 24.4661 97.5705 24.7937 97.8987 24.9953C98.227 25.1968 98.6058 25.2976 98.9593 25.2976C99.5401 25.2976 100.045 25.0961 100.474 24.7433C100.904 24.3402 101.131 23.8866 101.131 23.3575C101.131 23.0299 101.055 22.7528 100.954 22.4252L91.1314 1.43622C90.9042 0.95748 90.5759 0.604724 90.1466 0.352756ZM2.2726 0.0503937C2.95438 0.0503937 3.56041 0.251969 3.96443 0.680315C4.3937 1.10866 4.59571 1.6378 4.59571 2.31811V21.4425H14.5194C15.9335 21.4425 16.6658 22.0724 16.6658 23.3071C16.6658 24.5417 15.9335 25.1717 14.5194 25.1717H2.14635C1.46457 25.1717 0.934293 24.9701 0.555525 24.5921C0.202009 24.2394 0 23.7102 0 23.0551V2.31811C0 1.6378 0.202009 1.10866 0.631279 0.680315C1.06055 0.251969 1.59082 0.0503937 2.2726 0.0503937ZM35.3264 5.92126C36.6142 4.35906 38.407 3.57795 40.7301 3.57795C43.0532 3.57795 44.8208 4.33386 46.1086 5.92126C47.3964 7.50866 48.0529 9.72598 48.0529 12.6992C48.0529 15.622 47.3964 17.8898 46.1086 19.4772C44.8208 21.0646 43.028 21.8457 40.7301 21.8457C38.4323 21.8457 36.6142 21.0646 35.3264 19.4772C34.0386 17.8898 33.382 15.6724 33.382 12.6992C33.382 9.72598 34.0386 7.50866 35.3264 5.92126ZM88.7578 5.31654L84.0863 15.7984H93.4545L88.7578 5.31654ZM62.1431 3.77953H67.9004C71.0315 3.77953 72.6223 5.16535 72.6223 7.88661C72.6223 10.6079 71.0315 11.9937 67.9004 11.9937L62.1431 11.9685V3.77953Z" fill="#4B4C4B"/>
<path fill-rule="evenodd" clip-rule="evenodd" d="M129.968 24.5971L129.615 24.2947C128.756 23.564 128.604 22.2286 129.387 21.3719L138.579 10.89C139.311 10.0333 140.649 9.88215 141.508 10.6632L141.861 10.9656C142.72 11.6963 142.871 13.0318 142.089 13.8884L132.897 24.3703C132.165 25.227 130.877 25.3278 129.968 24.5971Z" fill="url(#paint0_linear)"/>
<path opacity="0.4" fill-rule="evenodd" clip-rule="evenodd" d="M137.341 12.7042L137.165 12.5026L135.751 14.1152L135.902 14.2916C138.326 16.7105 137.291 19.1546 136.735 20.0113L136.937 19.7845C137.266 19.4066 137.771 18.827 138.301 18.1971C138.856 17.2396 139.639 14.9719 137.341 12.7042Z" fill="url(#paint1_linear)"/>
<path opacity="0.4" fill-rule="evenodd" clip-rule="evenodd" d="M140.372 15.8538L140.75 15.4255C140.776 15.3751 140.826 15.3247 140.851 15.2743C140.447 15.7278 140.018 16.2066 139.614 16.6853C139.917 16.3577 140.17 16.0806 140.372 15.8538Z" fill="url(#paint2_radial)"/>
<path fill-rule="evenodd" clip-rule="evenodd" d="M142.139 11.2176L132.948 0.735693C132.215 -0.121 130.877 -0.272181 130.019 0.508921L129.665 0.811283C128.806 1.54199 128.655 2.87743 129.438 3.73412L137.19 12.5026L137.367 12.7042C139.664 14.9971 138.882 17.2648 138.301 18.2223C138.755 17.6932 139.21 17.164 139.639 16.6853C140.043 16.2066 140.473 15.7278 140.877 15.2743C141.281 14.8207 141.659 14.3924 141.912 14.1152C142.796 13.2585 142.922 12.0743 142.139 11.2176Z" fill="url(#paint3_linear)"/>
<path fill-rule="evenodd" clip-rule="evenodd" d="M141.634 24.5971L141.281 24.2947C140.422 23.564 140.271 22.2286 141.053 21.3719L150.245 10.89C150.977 10.0333 152.315 9.88215 153.174 10.6632L153.527 10.9656C154.386 11.6963 154.537 13.0318 153.755 13.8884L144.563 24.3703C143.831 25.227 142.543 25.3278 141.634 24.5971Z" fill="url(#paint4_linear)"/>
<path opacity="0.4" fill-rule="evenodd" clip-rule="evenodd" d="M149.108 12.6034L148.932 12.4018L147.518 14.0144L147.669 14.1908C150.093 16.6097 149.058 19.0538 148.502 19.9105L148.704 19.6837C149.033 19.3058 149.538 18.7262 150.068 18.0963C150.623 17.1388 151.406 14.8711 149.108 12.6034Z" fill="url(#paint5_linear)"/>
<path opacity="0.4" fill-rule="evenodd" clip-rule="evenodd" d="M152.012 15.8538L152.391 15.4255C152.416 15.3751 152.467 15.3247 152.492 15.2743C152.088 15.7278 151.659 16.2066 151.255 16.6853C151.558 16.3577 151.836 16.0806 152.012 15.8538Z" fill="url(#paint6_radial)"/>
<path fill-rule="evenodd" clip-rule="evenodd" d="M153.78 11.2176L144.588 0.735693C143.856 -0.121 142.518 -0.272181 141.659 0.508921L141.306 0.811283C140.447 1.54199 140.296 2.87743 141.079 3.73412L148.831 12.5026L149.007 12.7042C151.305 14.9971 150.522 17.2648 149.942 18.2223C150.396 17.6932 150.851 17.164 151.28 16.6853C151.684 16.2066 152.113 15.7278 152.517 15.2743C152.921 14.8207 153.3 14.3924 153.553 14.1152C154.436 13.2585 154.563 12.0743 153.78 11.2176Z" fill="url(#paint7_linear)"/>
<defs>
<linearGradient id="paint0_linear" x1="132.839" y1="27.8687" x2="145.584" y2="21.6757" gradientUnits="userSpaceOnUse">
<stop stop-color="#1FADC3"/>
<stop offset="0.7072" stop-color="#36B98F"/>
</linearGradient>
<linearGradient id="paint1_linear" x1="137.318" y1="17.9565" x2="139.702" y2="17.6086" gradientUnits="userSpaceOnUse">
<stop stop-color="#123F06" stop-opacity="0.01"/>
<stop offset="1" stop-color="#123F06"/>
</linearGradient>
<radialGradient id="paint2_radial" cx="0" cy="0" r="1" gradientUnits="userSpaceOnUse" gradientTransform="translate(135.307 17.1638) scale(6.15671 7.02111)">
<stop offset="0.4185" stop-color="#123F06" stop-opacity="0.01"/>
<stop offset="1" stop-color="#123F06"/>
</radialGradient>
<linearGradient id="paint3_linear" x1="124.115" y1="13.8896" x2="139.578" y2="19.2446" gradientUnits="userSpaceOnUse">
<stop stop-color="#9FDB57"/>
<stop offset="1" stop-color="#71CA5E"/>
</linearGradient>
<linearGradient id="paint4_linear" x1="144.494" y1="27.8751" x2="157.239" y2="21.6821" gradientUnits="userSpaceOnUse">
<stop stop-color="#1FADC3"/>
<stop offset="0.7072" stop-color="#36B98F"/>
</linearGradient>
<linearGradient id="paint5_linear" x1="149.085" y1="17.8557" x2="151.469" y2="17.5078" gradientUnits="userSpaceOnUse">
<stop stop-color="#123F06" stop-opacity="0.01"/>
<stop offset="1" stop-color="#123F06"/>
</linearGradient>
<radialGradient id="paint6_radial" cx="0" cy="0" r="1" gradientUnits="userSpaceOnUse" gradientTransform="translate(146.958 17.1638) scale(6.15671 7.02111)">
<stop offset="0.4185" stop-color="#123F06" stop-opacity="0.01"/>
<stop offset="1" stop-color="#123F06"/>
</radialGradient>
<linearGradient id="paint7_linear" x1="135.763" y1="13.8942" x2="151.226" y2="19.2492" gradientUnits="userSpaceOnUse">
<stop stop-color="#9FDB57"/>
<stop offset="1" stop-color="#71CA5E"/>
</linearGradient>
</defs>
</svg>
