<svg width="58" height="56" viewBox="0 0 58 56" fill="none" xmlns="http://www.w3.org/2000/svg">
<path d="M16 0H58V56L37 47.0189L16 56V0Z" fill="#FC4762"/>
<path d="M29.78 39.3809C29.1058 39.3809 28.4842 39.2077 27.9152 38.8613C27.3524 38.515 26.8978 38.0542 26.5514 37.479C26.2113 36.8976 26.0412 36.2606 26.0412 35.5679L26.0597 29.5469C26.0597 28.8418 26.2298 28.2078 26.57 27.645C26.904 27.076 27.3555 26.6214 27.9245 26.2812C28.4935 25.9349 29.112 25.7617 29.78 25.7617C30.4727 25.7617 31.0942 25.9318 31.6447 26.272C32.2013 26.6121 32.6467 27.0698 32.9806 27.645C33.3208 28.214 33.4909 28.848 33.4909 29.5469L33.5094 35.5679C33.5094 36.2606 33.3425 36.8945 33.0085 37.4697C32.6683 38.0511 32.2168 38.515 31.654 38.8613C31.0912 39.2077 30.4665 39.3809 29.78 39.3809ZM29.78 37.0894C30.1634 37.0894 30.4974 36.9347 30.7819 36.6255C31.0664 36.3101 31.2087 35.9575 31.2087 35.5679L31.1901 29.5469C31.1901 29.1263 31.0571 28.7707 30.7912 28.48C30.5252 28.1893 30.1882 28.0439 29.78 28.0439C29.3903 28.0439 29.0563 28.1862 28.778 28.4707C28.4997 28.7552 28.3605 29.1139 28.3605 29.5469V35.5679C28.3605 35.9823 28.4997 36.341 28.778 36.644C29.0563 36.9409 29.3903 37.0894 29.78 37.0894ZM37.174 39.1953H35.0402C34.9784 39.1953 34.9474 39.1644 34.9474 39.1025L34.9845 26.0493C34.9845 25.9998 35.0093 25.9751 35.0588 25.9751H41.1447C41.2066 25.9751 41.2375 25.9998 41.2375 26.0493V28.1924C41.2375 28.2419 41.2127 28.2666 41.1633 28.2666H37.2668V31.2168H41.1633C41.2127 31.2168 41.2375 31.2477 41.2375 31.3096L41.256 33.4619C41.256 33.5114 41.2251 33.5361 41.1633 33.5361H37.2668V39.1025C37.2668 39.1644 37.2358 39.1953 37.174 39.1953ZM45.1711 39.1953H43.0373C42.9754 39.1953 42.9445 39.1644 42.9445 39.1025L42.9816 26.0493C42.9816 25.9998 43.0064 25.9751 43.0558 25.9751H49.1418C49.2036 25.9751 49.2345 25.9998 49.2345 26.0493V28.1924C49.2345 28.2419 49.2098 28.2666 49.1603 28.2666H45.2638V31.2168H49.1603C49.2098 31.2168 49.2345 31.2477 49.2345 31.3096L49.2531 33.4619C49.2531 33.5114 49.2222 33.5361 49.1603 33.5361H45.2638V39.1025C45.2638 39.1644 45.2329 39.1953 45.1711 39.1953Z" fill="white"/>
<path d="M26.0854 21.3071C25.4236 21.3071 24.8082 21.1309 24.2392 20.7783C23.6764 20.432 23.2249 19.9681 22.8847 19.3867C22.5507 18.7992 22.3837 18.159 22.3837 17.4663V16.6128C22.3837 16.5448 22.4085 16.5107 22.4579 16.5107H24.5917C24.6536 16.5107 24.6845 16.5448 24.6845 16.6128V17.4663C24.6845 17.8807 24.8175 18.2394 25.0834 18.5425C25.3494 18.8394 25.6834 18.9878 26.0854 18.9878C26.5307 18.9878 26.8801 18.8332 27.1337 18.5239C27.3873 18.2085 27.5141 17.856 27.5141 17.4663V16.9561C27.5141 16.5602 27.3904 16.2046 27.143 15.8892C26.8956 15.5737 26.5833 15.416 26.206 15.416H25.4638C25.4019 15.416 25.371 15.382 25.371 15.314L25.3896 13.1895C25.3896 13.14 25.4143 13.1152 25.4638 13.1152H26.206C26.5461 13.1152 26.8492 12.9823 27.1152 12.7163C27.3811 12.4504 27.5141 12.1009 27.5141 11.668V11.4082C27.5141 11 27.378 10.6536 27.1059 10.3691C26.8337 10.0846 26.4936 9.94238 26.0854 9.94238C25.6957 9.94238 25.3648 10.0846 25.0927 10.3691C24.8206 10.6536 24.6845 11 24.6845 11.4082V12.3174C24.6845 12.3792 24.6598 12.4102 24.6103 12.4102H22.4765C22.427 12.4102 22.4023 12.3792 22.4023 12.3174V11.3062C22.4023 10.6134 22.5785 9.99495 22.9311 9.45068C23.2774 8.90641 23.732 8.47347 24.2948 8.15186C24.8577 7.82406 25.4545 7.66016 26.0854 7.66016C26.7719 7.66016 27.3966 7.82715 27.9594 8.16113C28.5222 8.5013 28.9675 8.94971 29.2953 9.50635C29.6293 10.063 29.7963 10.6753 29.7963 11.3433V11.6494C29.7963 12.2061 29.7035 12.6885 29.518 13.0967C29.3324 13.4987 29.0758 13.8853 28.748 14.2563C29.0758 14.6336 29.3355 15.048 29.5273 15.4995C29.719 15.951 29.8149 16.4149 29.8149 16.8911V17.4663C29.8149 18.1714 29.6479 18.8177 29.3139 19.4053C28.9737 19.9867 28.5222 20.4505 27.9594 20.7969C27.3966 21.137 26.7719 21.3071 26.0854 21.3071ZM35.0844 21.2793C34.2804 21.2793 33.566 21.1061 32.9413 20.7598C32.3228 20.4134 31.8373 19.9526 31.4848 19.3774C31.1384 18.7961 30.9653 18.159 30.9653 17.4663L30.9838 11.4453C30.9838 10.7402 31.1601 10.1063 31.5126 9.54346C31.859 8.97445 32.3414 8.51986 32.9599 8.17969C33.5784 7.83333 34.2865 7.66016 35.0844 7.66016C35.9008 7.66016 36.6121 7.83024 37.2182 8.17041C37.8243 8.51058 38.3005 8.96826 38.6469 9.54346C38.9994 10.1125 39.1757 10.7464 39.1757 11.4453L39.1943 17.4663C39.1943 18.1528 39.0211 18.7868 38.6747 19.3682C38.3222 19.9495 37.8367 20.4134 37.2182 20.7598C36.6059 21.1061 35.8946 21.2793 35.0844 21.2793ZM36.8935 17.4663L36.8749 11.4453C36.8749 11 36.7079 10.6382 36.3739 10.3599C36.0461 10.0815 35.6163 9.94238 35.0844 9.94238C34.5401 9.94238 34.1041 10.0815 33.7763 10.3599C33.4485 10.6382 33.2846 11 33.2846 11.4453V17.4663C33.2846 17.9364 33.4485 18.3075 33.7763 18.5796C34.1041 18.8517 34.5401 18.9878 35.0844 18.9878C35.6163 18.9878 36.0492 18.8517 36.3832 18.5796C36.7234 18.3075 36.8935 17.9364 36.8935 17.4663ZM42.6269 14.0059C42.1816 14.0059 41.7765 13.8914 41.4115 13.6626C41.0343 13.4338 40.7343 13.1307 40.5116 12.7534C40.289 12.37 40.1777 11.9587 40.1777 11.5195V10.165C40.1777 9.70736 40.289 9.28988 40.5116 8.9126C40.7343 8.52913 41.0312 8.22917 41.4023 8.0127C41.7795 7.79004 42.1877 7.67871 42.6269 7.67871C43.0846 7.67871 43.4989 7.79004 43.87 8.0127C44.2349 8.23535 44.5225 8.53841 44.7328 8.92188C44.9493 9.29915 45.0575 9.71354 45.0575 10.165V11.5195C45.0575 11.971 44.9493 12.3854 44.7328 12.7627C44.5102 13.1338 44.2133 13.4338 43.8422 13.6626C43.4773 13.8914 43.0722 14.0059 42.6269 14.0059ZM43.4804 21.0938H41.2631C41.2013 21.0938 41.1827 21.0628 41.2074 21.001L48.787 7.94775C48.8241 7.89827 48.8613 7.87354 48.8984 7.87354H51.1064C51.1744 7.87354 51.193 7.89827 51.162 7.94775L43.601 21.001C43.5763 21.0628 43.5361 21.0938 43.4804 21.0938ZM42.5898 12.4658C42.8433 12.4658 43.0505 12.3761 43.2113 12.1968C43.3783 12.0112 43.4618 11.7855 43.4618 11.5195V10.2021C43.4618 9.95475 43.3783 9.73828 43.2113 9.55273C43.0505 9.36719 42.8433 9.27441 42.5898 9.27441C42.3362 9.27441 42.1228 9.36719 41.9496 9.55273C41.7826 9.73828 41.6991 9.95475 41.6991 10.2021V11.5195C41.6991 11.7731 41.7857 11.9958 41.9589 12.1875C42.1383 12.373 42.3486 12.4658 42.5898 12.4658ZM49.9467 21.2793C49.4952 21.2793 49.087 21.1649 48.7221 20.936C48.3448 20.7134 48.0448 20.4134 47.8222 20.0361C47.5995 19.6527 47.4882 19.2383 47.4882 18.793V17.4478C47.4882 16.9839 47.5995 16.5633 47.8222 16.186C48.0448 15.8026 48.3417 15.5026 48.7128 15.2861C49.0901 15.0635 49.5014 14.9521 49.9467 14.9521C50.3982 14.9521 50.8095 15.0635 51.1806 15.2861C51.5455 15.5088 51.8362 15.8118 52.0527 16.1953C52.2691 16.5726 52.3774 16.9901 52.3774 17.4478V18.793C52.3774 19.2507 52.266 19.665 52.0434 20.0361C51.8207 20.4134 51.5238 20.7165 51.1528 20.9453C50.7878 21.168 50.3858 21.2793 49.9467 21.2793ZM49.9281 19.7485C50.1817 19.7485 50.3889 19.6558 50.5497 19.4702C50.7167 19.2847 50.8002 19.0589 50.8002 18.793V17.4849C50.8002 17.2313 50.7167 17.0148 50.5497 16.8354C50.3889 16.6499 50.1817 16.5571 49.9281 16.5571C49.6746 16.5571 49.4612 16.6499 49.288 16.8354C49.1148 17.0148 49.0282 17.2313 49.0282 17.4849V18.793C49.0282 19.0465 49.1179 19.2692 49.2973 19.4609C49.4766 19.6527 49.6869 19.7485 49.9281 19.7485Z" fill="white"/>
<path d="M16 0L0 20H16V0Z" fill="#A33848"/>
</svg>
