<svg width="242" height="50" viewBox="0 0 242 50" fill="none" xmlns="http://www.w3.org/2000/svg">
<path d="M61.7415 21.5137H59.7515L59.7314 20.4717H61.4514C61.7414 20.4717 61.9914 20.4307 62.1814 20.3487C62.3814 20.2657 62.5313 20.1457 62.6313 19.9887C62.7313 19.8307 62.7915 19.6397 62.7915 19.4137C62.7915 19.1627 62.7414 18.9587 62.6414 18.8017C62.5514 18.6437 62.4014 18.5297 62.2014 18.4577C62.0014 18.3827 61.7514 18.3447 61.4414 18.3447H60.2214V24.9997H58.7515V17.1797H61.4414C61.8814 17.1797 62.2816 17.2227 62.6216 17.3087C62.9816 17.3907 63.2715 17.5197 63.5215 17.6947C63.7615 17.8707 63.9415 18.0907 64.0715 18.3557C64.2015 18.6207 64.2615 18.9357 64.2615 19.3007C64.2615 19.6237 64.1915 19.9207 64.0415 20.1927C63.8915 20.4607 63.6616 20.6797 63.3516 20.8477C63.0516 21.0157 62.6614 21.1127 62.1914 21.1377L61.7415 21.5137ZM61.6814 24.9997H59.3115L59.9314 23.8397H61.6814C61.9714 23.8397 62.2114 23.7917 62.4014 23.6947C62.6014 23.5977 62.7415 23.4657 62.8315 23.2967C62.9315 23.1247 62.9814 22.9287 62.9814 22.7067C62.9814 22.4627 62.9416 22.2517 62.8516 22.0727C62.7716 21.8937 62.6414 21.7557 62.4514 21.6587C62.2714 21.5617 62.0415 21.5137 61.7415 21.5137H60.2114L60.2214 20.4717H62.1714L62.5115 20.8747C62.9615 20.8787 63.3316 20.9677 63.6116 21.1437C63.9016 21.3187 64.1115 21.5447 64.2515 21.8197C64.3815 22.0957 64.4514 22.3927 64.4514 22.7117C64.4514 23.2127 64.3416 23.6337 64.1216 23.9737C63.9116 24.3137 63.5914 24.5697 63.1814 24.7417C62.7714 24.9137 62.2714 24.9997 61.6814 24.9997ZM67.2114 17.1797V24.9997H65.7314V17.1797H67.2114ZM70.3616 20.5577V21.7237H66.8215V20.5577H70.3616ZM70.7715 17.1797V18.3447H66.8215V17.1797H70.7715ZM76.3516 22.4267H77.8315C77.7915 22.9497 77.6514 23.4137 77.4014 23.8177C77.1414 24.2187 76.8016 24.5347 76.3516 24.7637C75.9016 24.9927 75.3614 25.1067 74.7214 25.1067C74.2314 25.1067 73.7914 25.0207 73.3914 24.8497C73.0014 24.6737 72.6714 24.4247 72.3914 24.1027C72.1114 23.7767 71.9015 23.3867 71.7615 22.9317C71.6115 22.4737 71.5415 21.9597 71.5415 21.3907V20.7937C71.5415 20.2247 71.6115 19.7107 71.7615 19.2527C71.9115 18.7947 72.1314 18.4037 72.4114 18.0817C72.6914 17.7557 73.0314 17.5057 73.4214 17.3297C73.8214 17.1547 74.2615 17.0667 74.7515 17.0667C75.3915 17.0667 75.9316 17.1847 76.3716 17.4207C76.8116 17.6537 77.1514 17.9747 77.4014 18.3827C77.6414 18.7907 77.7916 19.2597 77.8416 19.7897H76.3616C76.3316 19.4607 76.2614 19.1807 76.1414 18.9517C76.0314 18.7227 75.8614 18.5487 75.6414 18.4307C75.4214 18.3087 75.1215 18.2487 74.7515 18.2487C74.4715 18.2487 74.2115 18.3017 74.0015 18.4097C73.7815 18.5167 73.6014 18.6777 73.4614 18.8927C73.3114 19.1037 73.2114 19.3687 73.1414 19.6877C73.0614 20.0027 73.0315 20.3677 73.0315 20.7837V21.3907C73.0315 21.7877 73.0616 22.1437 73.1216 22.4587C73.1916 22.7747 73.2914 23.0407 73.4314 23.2597C73.5614 23.4777 73.7414 23.6447 73.9514 23.7587C74.1714 23.8737 74.4214 23.9307 74.7214 23.9307C75.0814 23.9307 75.3816 23.8737 75.6016 23.7587C75.8316 23.6447 76.0016 23.4757 76.1216 23.2537C76.2416 23.0317 76.3216 22.7567 76.3516 22.4267ZM79.6216 17.1797H80.9014L83.0315 23.0657L85.1714 17.1797H86.4514L83.5415 24.9997H82.5215L79.6216 17.1797ZM78.9714 17.1797H80.2314L80.4514 22.5877V24.9997H78.9714V17.1797ZM85.8416 17.1797H87.1016V24.9997H85.6216V22.5877L85.8416 17.1797ZM93.6714 24.9997H91.9915L92.0015 23.8397H93.6714C94.1314 23.8397 94.5115 23.7397 94.8215 23.5387C95.1315 23.3347 95.3615 23.0427 95.5215 22.6637C95.6715 22.2797 95.7515 21.8217 95.7515 21.2887V20.8857C95.7515 20.4737 95.7116 20.1107 95.6216 19.7947C95.5316 19.4797 95.4014 19.2147 95.2214 18.9997C95.0514 18.7857 94.8415 18.6227 94.5815 18.5117C94.3315 18.4007 94.0414 18.3447 93.7114 18.3447H91.9614V17.1797H93.7114C94.2314 17.1797 94.7114 17.2667 95.1414 17.4427C95.5714 17.6177 95.9415 17.8707 96.2615 18.1997C96.5815 18.5257 96.8215 18.9157 96.9915 19.3707C97.1615 19.8257 97.2515 20.3337 97.2515 20.8957V21.2887C97.2515 21.8467 97.1615 22.3557 96.9915 22.8137C96.8215 23.2687 96.5815 23.6587 96.2615 23.9847C95.9415 24.3107 95.5713 24.5607 95.1313 24.7367C94.6913 24.9117 94.2114 24.9997 93.6714 24.9997ZM92.8215 17.1797V24.9997H91.3416V17.1797H92.8215ZM101.011 25.1067C100.571 25.1067 100.172 25.0357 99.8215 24.8927C99.4715 24.7487 99.1714 24.5507 98.9214 24.2957C98.6814 24.0387 98.4916 23.7397 98.3616 23.3987C98.2316 23.0557 98.1714 22.6867 98.1714 22.2927V22.0777C98.1714 21.6307 98.2316 21.2237 98.3616 20.8587C98.4916 20.4897 98.6714 20.1727 98.9114 19.9077C99.1414 19.6427 99.4315 19.4387 99.7515 19.2957C100.081 19.1527 100.452 19.0807 100.852 19.0807C101.262 19.0807 101.621 19.1507 101.941 19.2907C102.251 19.4267 102.511 19.6197 102.731 19.8707C102.941 20.1207 103.101 20.4217 103.201 20.7727C103.311 21.1197 103.362 21.5047 103.362 21.9277V22.5237H98.8115V21.5457H101.971V21.4387C101.961 21.2127 101.922 21.0067 101.842 20.8207C101.762 20.6317 101.641 20.4807 101.471 20.3697C101.311 20.2557 101.102 20.1977 100.832 20.1977C100.622 20.1977 100.441 20.2447 100.281 20.3377C100.131 20.4267 100.001 20.5557 99.8914 20.7247C99.7914 20.8887 99.7214 21.0857 99.6714 21.3147C99.6214 21.5447 99.5916 21.7987 99.5916 22.0777V22.2927C99.5916 22.5357 99.6314 22.7617 99.6914 22.9697C99.7614 23.1767 99.8615 23.3577 99.9915 23.5117C100.121 23.6627 100.281 23.7807 100.461 23.8667C100.641 23.9487 100.862 23.9897 101.092 23.9897C101.392 23.9897 101.661 23.9327 101.901 23.8177C102.141 23.6997 102.351 23.5267 102.531 23.2967L103.251 24.0387C103.121 24.2177 102.961 24.3887 102.751 24.5537C102.551 24.7187 102.301 24.8527 102.011 24.9567C101.721 25.0567 101.391 25.1067 101.011 25.1067ZM107.521 23.7647V21.0837C107.521 20.8877 107.481 20.7167 107.411 20.5737C107.351 20.4307 107.242 20.3197 107.102 20.2407C106.962 20.1617 106.792 20.1227 106.572 20.1227C106.382 20.1227 106.212 20.1547 106.072 20.2197C105.932 20.2837 105.821 20.3747 105.751 20.4937C105.671 20.6077 105.641 20.7407 105.641 20.8907H104.211C104.211 20.6507 104.271 20.4237 104.381 20.2087C104.501 19.9907 104.662 19.7967 104.872 19.6287C105.092 19.4567 105.341 19.3227 105.641 19.2257C105.941 19.1287 106.281 19.0807 106.651 19.0807C107.091 19.0807 107.482 19.1557 107.832 19.3067C108.172 19.4527 108.451 19.6747 108.641 19.9727C108.841 20.2697 108.941 20.6437 108.941 21.0947V23.6297C108.941 23.9197 108.961 24.1687 109.001 24.3767C109.041 24.5807 109.101 24.7577 109.171 24.9087V24.9997H107.731C107.661 24.8527 107.612 24.6667 107.572 24.4407C107.532 24.2117 107.521 23.9867 107.521 23.7647ZM107.711 21.4597L107.731 22.3037H106.832C106.612 22.3037 106.411 22.3267 106.241 22.3737C106.071 22.4167 105.942 22.4807 105.832 22.5667C105.722 22.6487 105.642 22.7497 105.592 22.8677C105.532 22.9817 105.511 23.1127 105.511 23.2597C105.511 23.4027 105.542 23.5317 105.602 23.6457C105.672 23.7607 105.771 23.8517 105.891 23.9197C106.021 23.9847 106.172 24.0167 106.352 24.0167C106.602 24.0167 106.811 23.9667 107.001 23.8667C107.191 23.7627 107.331 23.6377 107.441 23.4907C107.541 23.3437 107.592 23.2037 107.602 23.0717L108.011 23.6837C107.961 23.8307 107.881 23.9867 107.781 24.1507C107.681 24.3157 107.561 24.4697 107.401 24.6127C107.241 24.7567 107.052 24.8747 106.832 24.9677C106.612 25.0607 106.352 25.1067 106.062 25.1067C105.682 25.1067 105.342 25.0317 105.052 24.8817C104.752 24.7307 104.512 24.5257 104.342 24.2637C104.172 24.0027 104.082 23.7057 104.082 23.3727C104.082 23.0647 104.141 22.7917 104.261 22.5557C104.371 22.3197 104.541 22.1207 104.771 21.9597C104.991 21.7947 105.272 21.6717 105.602 21.5887C105.942 21.5027 106.331 21.4597 106.761 21.4597H107.711ZM111.731 16.7497V24.9997H110.302V16.7497H111.731ZM115.572 22.1527V22.0407C115.572 21.6137 115.631 21.2217 115.751 20.8637C115.871 20.5027 116.051 20.1887 116.281 19.9237C116.511 19.6587 116.801 19.4527 117.141 19.3067C117.471 19.1557 117.862 19.0807 118.292 19.0807C118.722 19.0807 119.111 19.1557 119.451 19.3067C119.791 19.4527 120.072 19.6587 120.302 19.9237C120.542 20.1887 120.712 20.5027 120.842 20.8637C120.962 21.2217 121.021 21.6137 121.021 22.0407V22.1527C121.021 22.5757 120.962 22.9677 120.842 23.3297C120.712 23.6877 120.542 24.0007 120.302 24.2697C120.072 24.5347 119.791 24.7397 119.451 24.8867C119.111 25.0337 118.732 25.1067 118.302 25.1067C117.872 25.1067 117.481 25.0337 117.141 24.8867C116.801 24.7397 116.511 24.5347 116.281 24.2697C116.051 24.0007 115.871 23.6877 115.751 23.3297C115.631 22.9677 115.572 22.5757 115.572 22.1527ZM116.991 22.0407V22.1527C116.991 22.4077 117.012 22.6457 117.062 22.8677C117.112 23.0897 117.192 23.2847 117.292 23.4527C117.402 23.6207 117.531 23.7537 117.691 23.8507C117.861 23.9437 118.062 23.9897 118.302 23.9897C118.532 23.9897 118.721 23.9437 118.891 23.8507C119.051 23.7537 119.192 23.6207 119.292 23.4527C119.402 23.2847 119.481 23.0897 119.531 22.8677C119.581 22.6457 119.602 22.4077 119.602 22.1527V22.0407C119.602 21.7897 119.581 21.5547 119.531 21.3367C119.481 21.1147 119.402 20.9197 119.292 20.7507C119.192 20.5797 119.051 20.4447 118.881 20.3487C118.721 20.2477 118.522 20.1977 118.292 20.1977C118.062 20.1977 117.861 20.2477 117.691 20.3487C117.531 20.4447 117.402 20.5797 117.292 20.7507C117.192 20.9197 117.112 21.1147 117.062 21.3367C117.012 21.5547 116.991 21.7897 116.991 22.0407ZM123.911 24.9997H122.481V18.6507C122.481 18.2147 122.561 17.8467 122.731 17.5497C122.901 17.2497 123.141 17.0217 123.451 16.8677C123.761 16.7137 124.132 16.6367 124.552 16.6367C124.692 16.6367 124.831 16.6457 124.951 16.6637C125.081 16.6817 125.212 16.7067 125.332 16.7387L125.312 17.8187C125.242 17.8007 125.162 17.7877 125.082 17.7807C125.002 17.7737 124.912 17.7707 124.822 17.7707C124.622 17.7707 124.462 17.8047 124.322 17.8727C124.192 17.9407 124.081 18.0407 124.011 18.1727C123.941 18.3017 123.911 18.4617 123.911 18.6507V24.9997ZM125.082 19.1877V20.2087H121.602V19.1877H125.082ZM131.451 19.1877V20.2087H128.122V19.1877H131.451ZM129.011 17.7597H130.431V23.3237C130.431 23.4957 130.461 23.6287 130.501 23.7217C130.551 23.8147 130.621 23.8767 130.711 23.9097C130.811 23.9417 130.922 23.9577 131.052 23.9577C131.142 23.9577 131.232 23.9527 131.302 23.9417C131.382 23.9307 131.451 23.9197 131.501 23.9097L131.511 24.9727C131.391 25.0127 131.262 25.0447 131.112 25.0697C130.962 25.0947 130.792 25.1067 130.612 25.1067C130.292 25.1067 130.011 25.0537 129.771 24.9457C129.531 24.8347 129.341 24.6577 129.211 24.4147C129.081 24.1667 129.011 23.8417 129.011 23.4367V17.7597ZM133.792 16.7497V24.9997H132.362V16.7497H133.792ZM133.562 21.8847H133.141C133.141 21.4797 133.202 21.1077 133.302 20.7677C133.412 20.4267 133.561 20.1317 133.761 19.8807C133.961 19.6267 134.191 19.4297 134.461 19.2907C134.741 19.1507 135.041 19.0807 135.381 19.0807C135.661 19.0807 135.921 19.1217 136.151 19.2047C136.391 19.2827 136.591 19.4097 136.761 19.5857C136.931 19.7607 137.061 19.9907 137.151 20.2727C137.241 20.5527 137.292 20.8927 137.292 21.2937V24.9997H135.862V21.2827C135.862 21.0147 135.821 20.8027 135.741 20.6487C135.661 20.4917 135.551 20.3787 135.401 20.3107C135.261 20.2427 135.082 20.2087 134.872 20.2087C134.642 20.2087 134.441 20.2537 134.281 20.3427C134.121 20.4287 133.982 20.5487 133.872 20.7027C133.772 20.8567 133.691 21.0337 133.641 21.2347C133.591 21.4347 133.562 21.6517 133.562 21.8847ZM141.151 25.1067C140.711 25.1067 140.311 25.0357 139.961 24.8927C139.611 24.7487 139.312 24.5507 139.072 24.2957C138.822 24.0387 138.631 23.7397 138.501 23.3987C138.371 23.0557 138.312 22.6867 138.312 22.2927V22.0777C138.312 21.6307 138.371 21.2237 138.501 20.8587C138.631 20.4897 138.812 20.1727 139.052 19.9077C139.292 19.6427 139.571 19.4387 139.901 19.2957C140.231 19.1527 140.591 19.0807 140.991 19.0807C141.401 19.0807 141.762 19.1507 142.082 19.2907C142.392 19.4267 142.662 19.6197 142.872 19.8707C143.082 20.1207 143.242 20.4217 143.352 20.7727C143.452 21.1197 143.511 21.5047 143.511 21.9277V22.5237H138.951V21.5457H142.112V21.4387C142.102 21.2127 142.061 21.0067 141.981 20.8207C141.901 20.6317 141.782 20.4807 141.622 20.3697C141.452 20.2557 141.241 20.1977 140.981 20.1977C140.771 20.1977 140.581 20.2447 140.421 20.3377C140.271 20.4267 140.142 20.5557 140.042 20.7247C139.942 20.8887 139.862 21.0857 139.812 21.3147C139.762 21.5447 139.741 21.7987 139.741 22.0777V22.2927C139.741 22.5357 139.772 22.7617 139.832 22.9697C139.902 23.1767 140.001 23.3577 140.131 23.5117C140.261 23.6627 140.422 23.7807 140.602 23.8667C140.792 23.9487 141.001 23.9897 141.241 23.9897C141.531 23.9897 141.802 23.9327 142.042 23.8177C142.282 23.6997 142.501 23.5267 142.681 23.2967L143.391 24.0387C143.271 24.2177 143.101 24.3887 142.901 24.5537C142.691 24.7187 142.441 24.8527 142.151 24.9567C141.861 25.0567 141.531 25.1067 141.151 25.1067ZM148.221 17.1797L149.941 20.8267L151.671 17.1797H153.292L150.691 22.1367V24.9997H149.191V22.1367L146.592 17.1797H148.221ZM156.221 25.1067C155.781 25.1067 155.391 25.0357 155.031 24.8927C154.681 24.7487 154.381 24.5507 154.141 24.2957C153.891 24.0387 153.712 23.7397 153.572 23.3987C153.442 23.0557 153.381 22.6867 153.381 22.2927V22.0777C153.381 21.6307 153.442 21.2237 153.572 20.8587C153.702 20.4897 153.882 20.1727 154.122 19.9077C154.362 19.6427 154.641 19.4387 154.971 19.2957C155.301 19.1527 155.662 19.0807 156.062 19.0807C156.472 19.0807 156.841 19.1507 157.151 19.2907C157.471 19.4267 157.731 19.6197 157.941 19.8707C158.151 20.1207 158.311 20.4217 158.421 20.7727C158.531 21.1197 158.582 21.5047 158.582 21.9277V22.5237H154.021V21.5457H157.181V21.4387C157.181 21.2127 157.132 21.0067 157.052 20.8207C156.972 20.6317 156.851 20.4807 156.691 20.3697C156.521 20.2557 156.312 20.1977 156.052 20.1977C155.842 20.1977 155.651 20.2447 155.501 20.3377C155.341 20.4267 155.212 20.5557 155.112 20.7247C155.012 20.8887 154.931 21.0857 154.881 21.3147C154.831 21.5447 154.812 21.7987 154.812 22.0777V22.2927C154.812 22.5357 154.841 22.7617 154.911 22.9697C154.971 23.1767 155.071 23.3577 155.201 23.5117C155.331 23.6627 155.491 23.7807 155.671 23.8667C155.861 23.9487 156.072 23.9897 156.312 23.9897C156.602 23.9897 156.872 23.9327 157.112 23.8177C157.362 23.6997 157.571 23.5267 157.751 23.2967L158.461 24.0387C158.341 24.2177 158.171 24.3887 157.971 24.5537C157.761 24.7187 157.521 24.8527 157.231 24.9567C156.941 25.0567 156.601 25.1067 156.221 25.1067ZM162.731 23.7647V21.0837C162.731 20.8877 162.701 20.7167 162.631 20.5737C162.561 20.4307 162.462 20.3197 162.322 20.2407C162.182 20.1617 162.002 20.1227 161.792 20.1227C161.602 20.1227 161.432 20.1547 161.292 20.2197C161.152 20.2837 161.041 20.3747 160.961 20.4937C160.891 20.6077 160.852 20.7407 160.852 20.8907H159.431C159.431 20.6507 159.492 20.4237 159.602 20.2087C159.712 19.9907 159.882 19.7967 160.092 19.6287C160.302 19.4567 160.562 19.3227 160.862 19.2257C161.162 19.1287 161.492 19.0807 161.872 19.0807C162.312 19.0807 162.702 19.1557 163.042 19.3067C163.392 19.4527 163.662 19.6747 163.862 19.9727C164.062 20.2697 164.161 20.6437 164.161 21.0947V23.6297C164.161 23.9197 164.181 24.1687 164.211 24.3767C164.251 24.5807 164.311 24.7577 164.391 24.9087V24.9997H162.941C162.871 24.8527 162.821 24.6667 162.781 24.4407C162.751 24.2117 162.731 23.9867 162.731 23.7647ZM162.931 21.4597L162.941 22.3037H162.042C161.822 22.3037 161.631 22.3267 161.461 22.3737C161.291 22.4167 161.152 22.4807 161.042 22.5667C160.942 22.6487 160.862 22.7497 160.802 22.8677C160.752 22.9817 160.721 23.1127 160.721 23.2597C160.721 23.4027 160.752 23.5317 160.822 23.6457C160.892 23.7607 160.982 23.8517 161.112 23.9197C161.242 23.9847 161.392 24.0167 161.562 24.0167C161.812 24.0167 162.031 23.9667 162.221 23.8667C162.401 23.7627 162.551 23.6377 162.651 23.4907C162.751 23.3437 162.812 23.2037 162.822 23.0717L163.231 23.6837C163.171 23.8307 163.101 23.9867 163.001 24.1507C162.901 24.3157 162.772 24.4697 162.612 24.6127C162.462 24.7567 162.272 24.8747 162.042 24.9677C161.822 25.0607 161.561 25.1067 161.271 25.1067C160.891 25.1067 160.561 25.0317 160.261 24.8817C159.961 24.7307 159.732 24.5257 159.562 24.2637C159.382 24.0027 159.302 23.7057 159.302 23.3727C159.302 23.0647 159.361 22.7917 159.471 22.5557C159.591 22.3197 159.761 22.1207 159.981 21.9597C160.211 21.7947 160.492 21.6717 160.822 21.5887C161.162 21.5027 161.541 21.4597 161.971 21.4597H162.931ZM166.862 20.3747V24.9997H165.441V19.1877H166.781L166.862 20.3747ZM168.622 19.1507L168.602 20.4717C168.522 20.4577 168.432 20.4467 168.332 20.4397C168.242 20.4327 168.152 20.4287 168.062 20.4287C167.842 20.4287 167.651 20.4597 167.481 20.5207C167.321 20.5777 167.182 20.6617 167.072 20.7727C166.962 20.8837 166.882 21.0197 166.822 21.1807C166.772 21.3387 166.731 21.5177 166.731 21.7177L166.421 21.6807C166.421 21.3117 166.461 20.9697 166.531 20.6547C166.611 20.3397 166.722 20.0637 166.862 19.8277C167.002 19.5907 167.181 19.4087 167.401 19.2797C167.621 19.1467 167.871 19.0807 168.151 19.0807C168.231 19.0807 168.311 19.0877 168.401 19.1027C168.501 19.1127 168.572 19.1287 168.622 19.1507ZM173.651 19.1877V24.9997H172.221V19.1877H173.651ZM172.122 17.6677C172.122 17.4567 172.202 17.2817 172.342 17.1417C172.492 17.0017 172.681 16.9327 172.931 16.9327C173.181 16.9327 173.371 17.0017 173.521 17.1417C173.661 17.2817 173.741 17.4567 173.741 17.6677C173.741 17.8757 173.661 18.0497 173.521 18.1887C173.371 18.3287 173.181 18.3987 172.931 18.3987C172.681 18.3987 172.492 18.3287 172.342 18.1887C172.202 18.0497 172.122 17.8757 172.122 17.6677ZM178.191 23.4097C178.191 23.2877 178.162 23.1787 178.102 23.0827C178.032 22.9857 177.911 22.8977 177.731 22.8187C177.561 22.7367 177.301 22.6597 176.961 22.5877C176.661 22.5237 176.381 22.4427 176.131 22.3467C175.871 22.2497 175.651 22.1337 175.471 21.9977C175.291 21.8577 175.152 21.6947 175.042 21.5087C174.942 21.3187 174.891 21.1007 174.891 20.8537C174.891 20.6137 174.942 20.3877 175.052 20.1767C175.152 19.9617 175.301 19.7737 175.501 19.6127C175.691 19.4477 175.931 19.3187 176.221 19.2257C176.501 19.1287 176.821 19.0807 177.171 19.0807C177.671 19.0807 178.091 19.1617 178.451 19.3227C178.801 19.4837 179.081 19.7057 179.271 19.9887C179.461 20.2677 179.552 20.5827 179.552 20.9337H178.141C178.141 20.7797 178.101 20.6397 178.031 20.5147C177.961 20.3897 177.851 20.2897 177.711 20.2137C177.571 20.1357 177.391 20.0957 177.171 20.0957C176.971 20.0957 176.811 20.1277 176.671 20.1927C176.541 20.2567 176.442 20.3407 176.372 20.4447C176.302 20.5487 176.271 20.6637 176.271 20.7887C176.271 20.8817 176.282 20.9657 176.322 21.0417C176.362 21.1127 176.421 21.1787 176.511 21.2397C176.591 21.3007 176.712 21.3567 176.862 21.4067C177.012 21.4567 177.191 21.5047 177.411 21.5517C177.841 21.6377 178.222 21.7517 178.542 21.8957C178.872 22.0347 179.122 22.2207 179.312 22.4537C179.492 22.6867 179.582 22.9837 179.582 23.3457C179.582 23.6037 179.521 23.8397 179.411 24.0547C179.301 24.2657 179.141 24.4497 178.931 24.6077C178.721 24.7647 178.471 24.8887 178.171 24.9787C177.881 25.0637 177.551 25.1067 177.181 25.1067C176.651 25.1067 176.192 25.0127 175.832 24.8227C175.462 24.6287 175.181 24.3857 174.991 24.0917C174.801 23.7947 174.701 23.4867 174.701 23.1677H176.062C176.072 23.3937 176.131 23.5747 176.241 23.7107C176.361 23.8467 176.501 23.9447 176.661 24.0057C176.841 24.0637 177.021 24.0917 177.211 24.0917C177.421 24.0917 177.601 24.0637 177.751 24.0057C177.901 23.9447 178.012 23.8647 178.082 23.7647C178.162 23.6607 178.191 23.5427 178.191 23.4097ZM188.691 20.4077V21.5677H184.582V20.4077H188.691ZM184.981 17.1797V24.9997H183.511V17.1797H184.981ZM189.792 17.1797V24.9997H188.312V17.1797H189.792ZM193.802 25.1067C193.362 25.1067 192.962 25.0357 192.612 24.8927C192.262 24.7487 191.961 24.5507 191.711 24.2957C191.471 24.0387 191.281 23.7397 191.151 23.3987C191.021 23.0557 190.961 22.6867 190.961 22.2927V22.0777C190.961 21.6307 191.021 21.2237 191.151 20.8587C191.281 20.4897 191.461 20.1727 191.701 19.9077C191.931 19.6427 192.222 19.4387 192.552 19.2957C192.882 19.1527 193.241 19.0807 193.641 19.0807C194.051 19.0807 194.411 19.1507 194.731 19.2907C195.041 19.4267 195.301 19.6197 195.521 19.8707C195.731 20.1207 195.891 20.4217 195.991 20.7727C196.101 21.1197 196.161 21.5047 196.161 21.9277V22.5237H191.602V21.5457H194.761V21.4387C194.751 21.2127 194.711 21.0067 194.631 20.8207C194.551 20.6317 194.431 20.4807 194.261 20.3697C194.101 20.2557 193.891 20.1977 193.631 20.1977C193.411 20.1977 193.232 20.2447 193.072 20.3377C192.922 20.4267 192.791 20.5557 192.691 20.7247C192.591 20.8887 192.511 21.0857 192.461 21.3147C192.411 21.5447 192.381 21.7987 192.381 22.0777V22.2927C192.381 22.5357 192.421 22.7617 192.481 22.9697C192.551 23.1767 192.651 23.3577 192.781 23.5117C192.911 23.6627 193.071 23.7807 193.251 23.8667C193.441 23.9487 193.651 23.9897 193.881 23.9897C194.181 23.9897 194.451 23.9327 194.691 23.8177C194.931 23.6997 195.142 23.5267 195.322 23.2967L196.042 24.0387C195.922 24.2177 195.752 24.3887 195.542 24.5537C195.342 24.7187 195.092 24.8527 194.802 24.9567C194.512 25.0567 194.182 25.1067 193.802 25.1067ZM198.521 20.3747V24.9997H197.112V19.1877H198.451L198.521 20.3747ZM200.292 19.1507L200.271 20.4717C200.191 20.4577 200.101 20.4467 200.001 20.4397C199.901 20.4327 199.811 20.4287 199.731 20.4287C199.511 20.4287 199.321 20.4597 199.151 20.5207C198.991 20.5777 198.851 20.6617 198.741 20.7727C198.631 20.8837 198.551 21.0197 198.491 21.1807C198.431 21.3387 198.401 21.5177 198.401 21.7177L198.092 21.6807C198.092 21.3117 198.131 20.9697 198.201 20.6547C198.281 20.3397 198.391 20.0637 198.531 19.8277C198.671 19.5907 198.852 19.4087 199.072 19.2797C199.282 19.1467 199.542 19.0807 199.822 19.0807C199.902 19.0807 199.982 19.0877 200.072 19.1027C200.162 19.1127 200.242 19.1287 200.292 19.1507ZM203.572 25.1067C203.132 25.1067 202.741 25.0357 202.391 24.8927C202.031 24.7487 201.741 24.5507 201.491 24.2957C201.251 24.0387 201.061 23.7397 200.921 23.3987C200.801 23.0557 200.731 22.6867 200.731 22.2927V22.0777C200.731 21.6307 200.801 21.2237 200.921 20.8587C201.051 20.4897 201.241 20.1727 201.471 19.9077C201.711 19.6427 201.992 19.4387 202.322 19.2957C202.652 19.1527 203.011 19.0807 203.411 19.0807C203.821 19.0807 204.191 19.1507 204.501 19.2907C204.821 19.4267 205.081 19.6197 205.292 19.8707C205.502 20.1207 205.661 20.4217 205.771 20.7727C205.881 21.1197 205.931 21.5047 205.931 21.9277V22.5237H201.381V21.5457H204.531V21.4387C204.531 21.2127 204.481 21.0067 204.411 20.8207C204.331 20.6317 204.202 20.4807 204.042 20.3697C203.882 20.2557 203.661 20.1977 203.401 20.1977C203.191 20.1977 203.012 20.2447 202.852 20.3377C202.692 20.4267 202.561 20.5557 202.461 20.7247C202.361 20.8887 202.291 21.0857 202.241 21.3147C202.191 21.5447 202.161 21.7987 202.161 22.0777V22.2927C202.161 22.5357 202.191 22.7617 202.261 22.9697C202.321 23.1767 202.422 23.3577 202.552 23.5117C202.682 23.6627 202.841 23.7807 203.021 23.8667C203.211 23.9487 203.421 23.9897 203.661 23.9897C203.961 23.9897 204.221 23.9327 204.461 23.8177C204.711 23.6997 204.922 23.5267 205.102 23.2967L205.812 24.0387C205.692 24.2177 205.532 24.3887 205.322 24.5537C205.112 24.7187 204.872 24.8527 204.582 24.9567C204.292 25.0567 203.952 25.1067 203.572 25.1067ZM208.501 17.1797L208.342 22.6527H207.141L206.991 17.1797H208.501ZM206.951 24.3387C206.951 24.1277 207.021 23.9507 207.161 23.8077C207.311 23.6607 207.501 23.5867 207.751 23.5867C208.001 23.5867 208.192 23.6607 208.342 23.8077C208.482 23.9507 208.562 24.1277 208.562 24.3387C208.562 24.5467 208.482 24.7217 208.342 24.8657C208.192 25.0087 208.001 25.0807 207.751 25.0807C207.501 25.0807 207.311 25.0087 207.161 24.8657C207.021 24.7217 206.951 24.5467 206.951 24.3387ZM64.0815 38.4597V41.0617C63.9915 41.1927 63.8514 41.3387 63.6614 41.5017C63.4714 41.6607 63.2016 41.8007 62.8616 41.9217C62.5316 42.0387 62.1015 42.0977 61.5615 42.0977C61.1315 42.0977 60.7316 42.0227 60.3716 41.8727C60.0116 41.7197 59.6914 41.4987 59.4314 41.2087C59.1614 40.9157 58.9615 40.5607 58.8115 40.1447C58.6715 39.7247 58.6016 39.2487 58.6016 38.7187V38.1667C58.6016 37.6357 58.6615 37.1627 58.7815 36.7457C58.9115 36.3287 59.0916 35.9757 59.3416 35.6867C59.5816 35.3937 59.8815 35.1717 60.2415 35.0217C60.5915 34.8687 61.0014 34.7927 61.4614 34.7927C62.0014 34.7927 62.4515 34.8867 62.8215 35.0757C63.1915 35.2617 63.4714 35.5187 63.6814 35.8477C63.8914 36.1757 64.0215 36.5507 64.0815 36.9707H63.1414C63.0914 36.7137 63.0113 36.4787 62.8813 36.2677C62.7613 36.0557 62.5816 35.8867 62.3516 35.7597C62.1216 35.6297 61.8214 35.5637 61.4614 35.5637C61.1314 35.5637 60.8416 35.6247 60.6016 35.7447C60.3616 35.8657 60.1615 36.0377 60.0115 36.2627C59.8515 36.4867 59.7314 36.7587 59.6614 37.0777C59.5814 37.3967 59.5415 37.7567 59.5415 38.1567V38.7187C59.5415 39.1287 59.5914 39.4947 59.6814 39.8167C59.7814 40.1397 59.9216 40.4147 60.1016 40.6427C60.2816 40.8667 60.4915 41.0377 60.7415 41.1547C60.9915 41.2717 61.2715 41.3307 61.5715 41.3307C61.9015 41.3307 62.1813 41.3027 62.3813 41.2477C62.5913 41.1887 62.7616 41.1207 62.8716 41.0427C62.9916 40.9617 63.0814 40.8847 63.1414 40.8127V39.2217H61.5015V38.4597H64.0815ZM66.4114 37.5467V41.9997H65.5015V36.7167H66.3813L66.4114 37.5467ZM68.0615 36.6877L68.0515 37.5267C67.9815 37.5107 67.9116 37.5007 67.8416 37.4977C67.7716 37.4917 67.7016 37.4877 67.6116 37.4877C67.4116 37.4877 67.2215 37.5207 67.0615 37.5857C66.9015 37.6507 66.7714 37.7417 66.6614 37.8587C66.5514 37.9767 66.4614 38.1167 66.3914 38.2787C66.3314 38.4387 66.2915 38.6147 66.2715 38.8067L66.0215 38.9527C66.0215 38.6337 66.0516 38.3347 66.1116 38.0547C66.1816 37.7747 66.2714 37.5267 66.4114 37.3117C66.5414 37.0937 66.7114 36.9247 66.9214 36.8047C67.1214 36.6807 67.3714 36.6187 67.6614 36.6187C67.7214 36.6187 67.8013 36.6267 67.8813 36.6437C67.9713 36.6567 68.0315 36.6707 68.0615 36.6877ZM71.8115 41.0967V38.3767C71.8115 38.1687 71.7714 37.9877 71.6914 37.8347C71.6114 37.6787 71.4815 37.5577 71.3215 37.4737C71.1515 37.3887 70.9414 37.3467 70.7014 37.3467C70.4714 37.3467 70.2716 37.3857 70.1016 37.4637C69.9316 37.5417 69.8014 37.6447 69.7014 37.7707C69.6014 37.8977 69.5615 38.0347 69.5615 38.1817H68.6514C68.6514 37.9927 68.7015 37.8057 68.8015 37.6197C68.9015 37.4347 69.0414 37.2667 69.2214 37.1167C69.4114 36.9637 69.6313 36.8437 69.8813 36.7557C70.1513 36.6647 70.4315 36.6187 70.7515 36.6187C71.1415 36.6187 71.4815 36.6837 71.7715 36.8137C72.0715 36.9447 72.3014 37.1417 72.4614 37.4047C72.6314 37.6657 72.7214 37.9927 72.7214 38.3867V40.8477C72.7214 41.0227 72.7315 41.2107 72.7615 41.4087C72.7915 41.6077 72.8414 41.7787 72.9014 41.9217V41.9997H71.9614C71.9114 41.8957 71.8816 41.7567 71.8516 41.5847C71.8316 41.4087 71.8115 41.2457 71.8115 41.0967ZM71.9714 38.7967L71.9814 39.4317H71.0715C70.8115 39.4317 70.5813 39.4527 70.3813 39.4947C70.1813 39.5337 70.0116 39.5937 69.8716 39.6757C69.7316 39.7567 69.6315 39.8597 69.5615 39.9827C69.4915 40.1037 69.4514 40.2447 69.4514 40.4077C69.4514 40.5737 69.4915 40.7257 69.5615 40.8617C69.6415 40.9987 69.7514 41.1077 69.9014 41.1887C70.0514 41.2677 70.2414 41.3067 70.4614 41.3067C70.7414 41.3067 70.9814 41.2477 71.1914 41.1307C71.4014 41.0137 71.5714 40.8697 71.7014 40.7007C71.8214 40.5317 71.8914 40.3677 71.9014 40.2077L72.2915 40.6427C72.2615 40.7787 72.2016 40.9307 72.1016 41.0967C72.0016 41.2627 71.8714 41.4217 71.7014 41.5747C71.5314 41.7247 71.3316 41.8497 71.1016 41.9507C70.8716 42.0487 70.6215 42.0977 70.3315 42.0977C69.9715 42.0977 69.6614 42.0277 69.3914 41.8877C69.1214 41.7477 68.9115 41.5607 68.7615 41.3257C68.6215 41.0887 68.5415 40.8227 68.5415 40.5297C68.5415 40.2467 68.6014 39.9977 68.7114 39.7827C68.8214 39.5647 68.9814 39.3837 69.1914 39.2407C69.3914 39.0947 69.6514 38.9837 69.9414 38.9087C70.2314 38.8337 70.5614 38.7967 70.9214 38.7967H71.9714ZM74.1313 34.4997H75.0415V40.9747L74.9614 41.9997H74.1313V34.4997ZM78.6116 39.3137V39.4167C78.6116 39.8007 78.5614 40.1577 78.4714 40.4857C78.3814 40.8117 78.2515 41.0947 78.0715 41.3357C77.9015 41.5767 77.6814 41.7637 77.4314 41.8967C77.1714 42.0307 76.8815 42.0977 76.5515 42.0977C76.2215 42.0977 75.9214 42.0407 75.6714 41.9267C75.4214 41.8097 75.2115 41.6417 75.0415 41.4237C74.8615 41.2057 74.7316 40.9417 74.6216 40.6327C74.5216 40.3237 74.4514 39.9747 74.4114 39.5877V39.1387C74.4514 38.7477 74.5216 38.3977 74.6216 38.0887C74.7316 37.7797 74.8615 37.5157 75.0415 37.2977C75.2115 37.0757 75.4214 36.9087 75.6714 36.7947C75.9214 36.6777 76.2115 36.6187 76.5415 36.6187C76.8815 36.6187 77.1714 36.6837 77.4314 36.8137C77.6914 36.9407 77.9015 37.1237 78.0715 37.3607C78.2515 37.5987 78.3814 37.8837 78.4714 38.2157C78.5614 38.5447 78.6116 38.9107 78.6116 39.3137ZM77.7014 39.4167V39.3137C77.7014 39.0507 77.6813 38.8027 77.6313 38.5717C77.5813 38.3377 77.5014 38.1327 77.3914 37.9567C77.2914 37.7777 77.1514 37.6377 76.9714 37.5367C76.7914 37.4327 76.5815 37.3807 76.3215 37.3807C76.0915 37.3807 75.8914 37.4197 75.7214 37.4977C75.5614 37.5757 75.4215 37.6817 75.3015 37.8147C75.1815 37.9457 75.0915 38.0947 75.0115 38.2647C74.9415 38.4307 74.8916 38.6027 74.8516 38.7817V39.9587C74.9016 40.1867 74.9916 40.4067 75.1016 40.6177C75.2216 40.8257 75.3815 40.9967 75.5815 41.1307C75.7815 41.2637 76.0315 41.3307 76.3315 41.3307C76.5715 41.3307 76.7814 41.2817 76.9614 41.1847C77.1314 41.0837 77.2713 40.9447 77.3813 40.7697C77.4913 40.5937 77.5716 40.3897 77.6216 40.1587C77.6816 39.9277 77.7014 39.6807 77.7014 39.4167ZM83.1414 34.4997V41.9997H82.2314V34.4997H83.1414ZM82.9214 39.1577L82.5515 39.1437C82.5515 38.7817 82.6014 38.4487 82.7114 38.1427C82.8114 37.8327 82.9614 37.5647 83.1514 37.3367C83.3414 37.1087 83.5615 36.9327 83.8215 36.8097C84.0815 36.6827 84.3814 36.6187 84.6914 36.6187C84.9514 36.6187 85.1914 36.6547 85.4014 36.7267C85.6114 36.7947 85.7814 36.9057 85.9314 37.0587C86.0814 37.2117 86.1915 37.4097 86.2715 37.6537C86.3515 37.8947 86.3914 38.1897 86.3914 38.5377V41.9997H85.4814V38.5277C85.4814 38.2517 85.4416 38.0297 85.3616 37.8637C85.2816 37.6947 85.1615 37.5727 85.0015 37.4977C84.8515 37.4197 84.6514 37.3807 84.4314 37.3807C84.2014 37.3807 84.0015 37.4277 83.8115 37.5217C83.6315 37.6167 83.4716 37.7467 83.3416 37.9127C83.2116 38.0787 83.1015 38.2697 83.0315 38.4837C82.9615 38.6957 82.9214 38.9207 82.9214 39.1577ZM90.9714 40.7787V36.7167H91.8813V41.9997H91.0215L90.9714 40.7787ZM91.1414 39.6657L91.5215 39.6557C91.5215 40.0077 91.4814 40.3327 91.4114 40.6327C91.3414 40.9287 91.2215 41.1857 91.0615 41.4037C90.8915 41.6217 90.6814 41.7927 90.4214 41.9167C90.1514 42.0367 89.8314 42.0977 89.4614 42.0977C89.2014 42.0977 88.9615 42.0597 88.7515 41.9847C88.5415 41.9097 88.3514 41.7947 88.2014 41.6387C88.0514 41.4817 87.9316 41.2787 87.8416 41.0277C87.7616 40.7777 87.7214 40.4767 87.7214 40.1247V36.7167H88.6216V40.1347C88.6216 40.3717 88.6514 40.5687 88.7014 40.7257C88.7614 40.8787 88.8314 41.0007 88.9214 41.0917C89.0214 41.1797 89.1215 41.2417 89.2415 41.2767C89.3515 41.3127 89.4716 41.3307 89.6016 41.3307C89.9816 41.3307 90.2915 41.2577 90.5115 41.1107C90.7315 40.9617 90.9015 40.7607 90.9915 40.5107C91.0915 40.2567 91.1414 39.9747 91.1414 39.6657ZM96.6814 36.7167H97.5015V41.8877C97.5015 42.3527 97.4114 42.7497 97.2214 43.0787C97.0314 43.4077 96.7714 43.6567 96.4314 43.8257C96.0914 43.9987 95.7115 44.0847 95.2715 44.0847C95.0815 44.0847 94.8716 44.0557 94.6216 43.9967C94.3816 43.9417 94.1414 43.8457 93.9014 43.7087C93.6614 43.5757 93.4715 43.3947 93.3115 43.1667L93.7815 42.6297C94.0015 42.8967 94.2314 43.0817 94.4714 43.1867C94.7214 43.2907 94.9614 43.3427 95.2014 43.3427C95.4814 43.3427 95.7314 43.2887 95.9414 43.1817C96.1514 43.0737 96.3114 42.9147 96.4214 42.7027C96.5414 42.4947 96.6016 42.2377 96.6016 41.9317V37.8787L96.6814 36.7167ZM93.0415 39.4167V39.3137C93.0415 38.9107 93.0914 38.5447 93.1914 38.2157C93.2814 37.8837 93.4216 37.5987 93.6016 37.3607C93.7816 37.1237 94.0015 36.9407 94.2615 36.8137C94.5215 36.6837 94.8113 36.6187 95.1313 36.6187C95.4613 36.6187 95.7515 36.6777 96.0015 36.7947C96.2515 36.9087 96.4613 37.0757 96.6313 37.2977C96.8113 37.5157 96.9515 37.7797 97.0515 38.0887C97.1515 38.3977 97.2215 38.7477 97.2615 39.1387V39.5877C97.2215 39.9747 97.1515 40.3237 97.0515 40.6327C96.9515 40.9417 96.8113 41.2057 96.6313 41.4237C96.4613 41.6417 96.2515 41.8097 96.0015 41.9267C95.7515 42.0407 95.4516 42.0977 95.1216 42.0977C94.8016 42.0977 94.5215 42.0307 94.2615 41.8967C94.0115 41.7637 93.7916 41.5767 93.6116 41.3357C93.4216 41.0947 93.2814 40.8117 93.1914 40.4857C93.0914 40.1577 93.0415 39.8007 93.0415 39.4167ZM93.9514 39.3137V39.4167C93.9514 39.6807 93.9715 39.9277 94.0315 40.1587C94.0815 40.3897 94.1615 40.5937 94.2715 40.7697C94.3915 40.9447 94.5314 41.0837 94.7114 41.1847C94.8814 41.2817 95.0916 41.3307 95.3416 41.3307C95.6416 41.3307 95.8915 41.2677 96.0815 41.1407C96.2815 41.0137 96.4315 40.8457 96.5415 40.6377C96.6615 40.4287 96.7515 40.2027 96.8215 39.9587V38.7817C96.7815 38.6027 96.7314 38.4307 96.6514 38.2647C96.5814 38.0947 96.4916 37.9457 96.3716 37.8147C96.2616 37.6817 96.1114 37.5757 95.9414 37.4977C95.7814 37.4197 95.5816 37.3807 95.3516 37.3807C95.1016 37.3807 94.8914 37.4327 94.7114 37.5367C94.5314 37.6377 94.3915 37.7777 94.2715 37.9567C94.1615 38.1327 94.0815 38.3377 94.0315 38.5717C93.9715 38.8027 93.9514 39.0507 93.9514 39.3137ZM101.072 42.0977C100.702 42.0977 100.362 42.0357 100.072 41.9117C99.7715 41.7847 99.5115 41.6077 99.3015 41.3797C99.0915 41.1517 98.9215 40.8817 98.8115 40.5687C98.7015 40.2567 98.6414 39.9147 98.6414 39.5437V39.3387C98.6414 38.9087 98.7015 38.5267 98.8315 38.1907C98.9615 37.8527 99.1316 37.5657 99.3516 37.3317C99.5716 37.0977 99.8116 36.9197 100.092 36.7997C100.372 36.6787 100.651 36.6187 100.951 36.6187C101.331 36.6187 101.651 36.6837 101.931 36.8137C102.201 36.9447 102.432 37.1267 102.602 37.3607C102.782 37.5917 102.911 37.8657 103.001 38.1817C103.081 38.4937 103.122 38.8357 103.122 39.2067V39.6117H99.1814V38.8747H102.221V38.8067C102.211 38.5717 102.162 38.3437 102.072 38.1227C101.992 37.9017 101.861 37.7187 101.681 37.5757C101.501 37.4327 101.261 37.3607 100.951 37.3607C100.741 37.3607 100.561 37.4047 100.381 37.4927C100.211 37.5777 100.061 37.7047 99.9414 37.8737C99.8114 38.0427 99.7214 38.2497 99.6514 38.4937C99.5814 38.7377 99.5515 39.0197 99.5515 39.3387V39.5437C99.5515 39.7947 99.5814 40.0307 99.6514 40.2517C99.7214 40.4697 99.8214 40.6617 99.9614 40.8277C100.091 40.9937 100.261 41.1237 100.451 41.2187C100.651 41.3127 100.872 41.3597 101.122 41.3597C101.432 41.3597 101.701 41.2947 101.931 41.1647C102.151 41.0347 102.341 40.8607 102.511 40.6427L103.052 41.0767C102.942 41.2497 102.792 41.4137 102.622 41.5697C102.442 41.7267 102.231 41.8537 101.971 41.9507C101.721 42.0487 101.412 42.0977 101.072 42.0977ZM106.421 39.4167V39.3047C106.421 38.9237 106.472 38.5707 106.582 38.2447C106.692 37.9157 106.852 37.6317 107.062 37.3907C107.272 37.1457 107.522 36.9577 107.822 36.8237C108.122 36.6877 108.452 36.6187 108.822 36.6187C109.192 36.6187 109.522 36.6877 109.822 36.8237C110.122 36.9577 110.372 37.1457 110.582 37.3907C110.792 37.6317 110.952 37.9157 111.062 38.2447C111.172 38.5707 111.231 38.9237 111.231 39.3047V39.4167C111.231 39.7977 111.172 40.1507 111.062 40.4767C110.952 40.8017 110.792 41.0867 110.582 41.3307C110.372 41.5717 110.122 41.7607 109.822 41.8967C109.532 42.0307 109.202 42.0977 108.832 42.0977C108.452 42.0977 108.122 42.0307 107.822 41.8967C107.532 41.7607 107.272 41.5717 107.062 41.3307C106.852 41.0867 106.692 40.8017 106.582 40.4767C106.472 40.1507 106.421 39.7977 106.421 39.4167ZM107.322 39.3047V39.4167C107.322 39.6807 107.351 39.9297 107.411 40.1637C107.481 40.3947 107.571 40.5997 107.691 40.7787C107.821 40.9577 107.981 41.0997 108.171 41.2037C108.351 41.3047 108.572 41.3547 108.832 41.3547C109.072 41.3547 109.291 41.3047 109.471 41.2037C109.661 41.0997 109.821 40.9577 109.941 40.7787C110.071 40.5997 110.161 40.3947 110.221 40.1637C110.291 39.9297 110.322 39.6807 110.322 39.4167V39.3047C110.322 39.0437 110.291 38.7987 110.221 38.5667C110.161 38.3327 110.071 38.1257 109.941 37.9467C109.811 37.7647 109.661 37.6217 109.471 37.5177C109.281 37.4127 109.072 37.3607 108.822 37.3607C108.572 37.3607 108.351 37.4127 108.161 37.5177C107.981 37.6217 107.821 37.7647 107.691 37.9467C107.571 38.1257 107.481 38.3327 107.411 38.5667C107.351 38.7987 107.322 39.0437 107.322 39.3047ZM113.711 41.9997H112.802V36.1597C112.802 35.7787 112.871 35.4587 113.011 35.1977C113.151 34.9347 113.352 34.7357 113.612 34.6027C113.872 34.4657 114.182 34.3967 114.542 34.3967C114.642 34.3967 114.752 34.4037 114.852 34.4167C114.962 34.4297 115.061 34.4497 115.161 34.4757L115.112 35.2127C115.052 35.1967 114.971 35.1847 114.881 35.1787C114.801 35.1717 114.711 35.1687 114.631 35.1687C114.431 35.1687 114.271 35.2077 114.131 35.2857C113.991 35.3607 113.892 35.4717 113.822 35.6177C113.742 35.7647 113.711 35.9447 113.711 36.1597V41.9997ZM114.832 36.7167V37.4097H111.971V36.7167H114.832ZM117.181 41.9997H116.281V36.1597C116.281 35.7787 116.351 35.4587 116.491 35.1977C116.631 34.9347 116.832 34.7357 117.092 34.6027C117.352 34.4657 117.661 34.3967 118.011 34.3967C118.121 34.3967 118.222 34.4037 118.332 34.4167C118.432 34.4297 118.541 34.4497 118.641 34.4757L118.592 35.2127C118.522 35.1967 118.442 35.1847 118.362 35.1787C118.272 35.1717 118.192 35.1687 118.102 35.1687C117.912 35.1687 117.742 35.2077 117.602 35.2857C117.472 35.3607 117.362 35.4717 117.292 35.6177C117.222 35.7647 117.181 35.9447 117.181 36.1597V41.9997ZM118.312 36.7167V37.4097H115.451V36.7167H118.312ZM121.391 42.0977C121.021 42.0977 120.691 42.0357 120.391 41.9117C120.091 41.7847 119.842 41.6077 119.622 41.3797C119.412 41.1517 119.251 40.8817 119.131 40.5687C119.021 40.2567 118.961 39.9147 118.961 39.5437V39.3387C118.961 38.9087 119.031 38.5267 119.151 38.1907C119.281 37.8527 119.451 37.5657 119.671 37.3317C119.891 37.0977 120.141 36.9197 120.411 36.7997C120.691 36.6787 120.981 36.6187 121.271 36.6187C121.651 36.6187 121.971 36.6837 122.251 36.8137C122.521 36.9447 122.751 37.1267 122.931 37.3607C123.101 37.5917 123.232 37.8657 123.322 38.1817C123.402 38.4937 123.441 38.8357 123.441 39.2067V39.6117H119.501V38.8747H122.542V38.8067C122.532 38.5717 122.481 38.3437 122.391 38.1227C122.311 37.9017 122.181 37.7187 122.001 37.5757C121.821 37.4327 121.581 37.3607 121.271 37.3607C121.071 37.3607 120.881 37.4047 120.711 37.4927C120.531 37.5777 120.381 37.7047 120.261 37.8737C120.141 38.0427 120.041 38.2497 119.971 38.4937C119.901 38.7377 119.872 39.0197 119.872 39.3387V39.5437C119.872 39.7947 119.901 40.0307 119.971 40.2517C120.041 40.4697 120.151 40.6617 120.281 40.8277C120.421 40.9937 120.581 41.1237 120.771 41.2187C120.971 41.3127 121.191 41.3597 121.441 41.3597C121.761 41.3597 122.031 41.2947 122.251 41.1647C122.471 41.0347 122.662 40.8607 122.832 40.6427L123.381 41.0767C123.261 41.2497 123.121 41.4137 122.941 41.5697C122.771 41.7267 122.552 41.8537 122.292 41.9507C122.042 42.0487 121.741 42.0977 121.391 42.0977ZM125.401 37.5467V41.9997H124.501V36.7167H125.381L125.401 37.5467ZM127.052 36.6877V37.5267C126.972 37.5107 126.902 37.5007 126.832 37.4977C126.772 37.4917 126.692 37.4877 126.612 37.4877C126.402 37.4877 126.222 37.5207 126.062 37.5857C125.902 37.6507 125.761 37.7417 125.651 37.8587C125.541 37.9767 125.451 38.1167 125.391 38.2787C125.331 38.4387 125.291 38.6147 125.271 38.8067L125.011 38.9527C125.011 38.6337 125.042 38.3347 125.102 38.0547C125.172 37.7747 125.271 37.5267 125.401 37.3117C125.541 37.0937 125.711 36.9247 125.911 36.8047C126.121 36.6807 126.371 36.6187 126.651 36.6187C126.721 36.6187 126.791 36.6267 126.881 36.6437C126.961 36.6567 127.022 36.6707 127.052 36.6877ZM130.961 40.5987C130.961 40.4677 130.931 40.3477 130.881 40.2367C130.821 40.1227 130.711 40.0207 130.531 39.9297C130.361 39.8347 130.101 39.7537 129.751 39.6857C129.461 39.6237 129.191 39.5497 128.951 39.4657C128.721 39.3807 128.522 39.2787 128.352 39.1577C128.192 39.0377 128.061 38.8957 127.981 38.7327C127.891 38.5707 127.842 38.3797 127.842 38.1617C127.842 37.9537 127.891 37.7567 127.981 37.5707C128.071 37.3857 128.211 37.2207 128.381 37.0777C128.551 36.9347 128.761 36.8227 129.001 36.7407C129.241 36.6597 129.512 36.6187 129.802 36.6187C130.222 36.6187 130.591 36.6937 130.891 36.8437C131.191 36.9927 131.412 37.1937 131.572 37.4437C131.732 37.6917 131.812 37.9667 131.812 38.2697H130.911C130.911 38.1227 130.871 37.9807 130.781 37.8447C130.691 37.7047 130.571 37.5887 130.401 37.4977C130.241 37.4067 130.042 37.3607 129.802 37.3607C129.552 37.3607 129.351 37.3997 129.191 37.4787C129.041 37.5527 128.932 37.6487 128.852 37.7667C128.792 37.8837 128.751 38.0067 128.751 38.1377C128.751 38.2347 128.772 38.3227 128.802 38.4007C128.842 38.4757 128.901 38.5457 128.991 38.6107C129.071 38.6727 129.202 38.7317 129.362 38.7867C129.522 38.8417 129.721 38.8977 129.971 38.9527C130.401 39.0507 130.762 39.1677 131.042 39.3047C131.322 39.4407 131.531 39.6087 131.661 39.8077C131.801 40.0057 131.872 40.2467 131.872 40.5297C131.872 40.7607 131.821 40.9727 131.721 41.1647C131.631 41.3567 131.492 41.5227 131.312 41.6627C131.132 41.7997 130.911 41.9067 130.661 41.9847C130.411 42.0597 130.142 42.0977 129.832 42.0977C129.362 42.0977 128.971 42.0147 128.641 41.8487C128.321 41.6827 128.081 41.4677 127.911 41.2037C127.751 40.9397 127.661 40.6617 127.661 40.3687H128.572C128.582 40.6167 128.662 40.8127 128.792 40.9597C128.922 41.1027 129.081 41.2057 129.261 41.2677C129.451 41.3257 129.642 41.3547 129.832 41.3547C130.072 41.3547 130.281 41.3227 130.451 41.2577C130.621 41.1927 130.742 41.1027 130.832 40.9887C130.922 40.8747 130.961 40.7447 130.961 40.5987ZM135.292 39.4167V39.3047C135.292 38.9237 135.351 38.5707 135.461 38.2447C135.571 37.9157 135.731 37.6317 135.941 37.3907C136.151 37.1457 136.401 36.9577 136.701 36.8237C136.991 36.6877 137.321 36.6187 137.691 36.6187C138.061 36.6187 138.401 36.6877 138.691 36.8237C138.991 36.9577 139.251 37.1457 139.461 37.3907C139.671 37.6317 139.831 37.9157 139.941 38.2447C140.051 38.5707 140.102 38.9237 140.102 39.3047V39.4167C140.102 39.7977 140.051 40.1507 139.941 40.4767C139.831 40.8017 139.671 41.0867 139.461 41.3307C139.251 41.5717 138.991 41.7607 138.701 41.8967C138.411 42.0307 138.071 42.0977 137.701 42.0977C137.331 42.0977 137.001 42.0307 136.701 41.8967C136.401 41.7607 136.151 41.5717 135.941 41.3307C135.731 41.0867 135.571 40.8017 135.461 40.4767C135.351 40.1507 135.292 39.7977 135.292 39.4167ZM136.201 39.3047V39.4167C136.201 39.6807 136.232 39.9297 136.292 40.1637C136.352 40.3947 136.452 40.5997 136.572 40.7787C136.702 40.9577 136.852 41.0997 137.042 41.2037C137.232 41.3047 137.451 41.3547 137.701 41.3547C137.951 41.3547 138.172 41.3047 138.352 41.2037C138.542 41.0997 138.702 40.9577 138.822 40.7787C138.942 40.5997 139.042 40.3947 139.102 40.1637C139.162 39.9297 139.201 39.6807 139.201 39.4167V39.3047C139.201 39.0437 139.162 38.7987 139.102 38.5667C139.042 38.3327 138.942 38.1257 138.822 37.9467C138.692 37.7647 138.542 37.6217 138.352 37.5177C138.162 37.4127 137.941 37.3607 137.691 37.3607C137.441 37.3607 137.232 37.4127 137.042 37.5177C136.852 37.6217 136.702 37.7647 136.572 37.9467C136.452 38.1257 136.352 38.3327 136.292 38.5667C136.232 38.7987 136.201 39.0437 136.201 39.3047ZM142.141 37.8447V41.9997H141.241V36.7167H142.092L142.141 37.8447ZM141.931 39.1577L141.552 39.1437C141.552 38.7817 141.611 38.4487 141.711 38.1427C141.821 37.8327 141.961 37.5647 142.151 37.3367C142.341 37.1087 142.562 36.9327 142.822 36.8097C143.092 36.6827 143.381 36.6187 143.701 36.6187C143.961 36.6187 144.191 36.6547 144.401 36.7267C144.611 36.7947 144.791 36.9057 144.931 37.0587C145.081 37.2117 145.201 37.4097 145.281 37.6537C145.351 37.8947 145.391 38.1897 145.391 38.5377V41.9997H144.481V38.5277C144.481 38.2517 144.442 38.0297 144.362 37.8637C144.282 37.6947 144.161 37.5727 144.011 37.4977C143.851 37.4197 143.661 37.3807 143.431 37.3807C143.211 37.3807 143.002 37.4277 142.812 37.5217C142.632 37.6167 142.472 37.7467 142.342 37.9127C142.212 38.0787 142.111 38.2697 142.031 38.4837C141.961 38.6957 141.931 38.9207 141.931 39.1577ZM149.011 39.4167V39.3047C149.011 38.9237 149.061 38.5707 149.171 38.2447C149.281 37.9157 149.441 37.6317 149.651 37.3907C149.861 37.1457 150.111 36.9577 150.411 36.8237C150.701 36.6877 151.041 36.6187 151.401 36.6187C151.771 36.6187 152.111 36.6877 152.401 36.8237C152.701 36.9577 152.961 37.1457 153.171 37.3907C153.381 37.6317 153.541 37.9157 153.651 38.2447C153.761 38.5707 153.822 38.9237 153.822 39.3047V39.4167C153.822 39.7977 153.761 40.1507 153.651 40.4767C153.541 40.8017 153.381 41.0867 153.171 41.3307C152.961 41.5717 152.711 41.7607 152.411 41.8967C152.121 42.0307 151.781 42.0977 151.411 42.0977C151.041 42.0977 150.711 42.0307 150.411 41.8967C150.121 41.7607 149.861 41.5717 149.651 41.3307C149.441 41.0867 149.281 40.8017 149.171 40.4767C149.061 40.1507 149.011 39.7977 149.011 39.4167ZM149.911 39.3047V39.4167C149.911 39.6807 149.941 39.9297 150.001 40.1637C150.061 40.3947 150.161 40.5997 150.281 40.7787C150.411 40.9577 150.571 41.0997 150.751 41.2037C150.941 41.3047 151.161 41.3547 151.411 41.3547C151.661 41.3547 151.882 41.3047 152.062 41.2037C152.252 41.0997 152.411 40.9577 152.531 40.7787C152.651 40.5997 152.752 40.3947 152.812 40.1637C152.872 39.9297 152.911 39.6807 152.911 39.4167V39.3047C152.911 39.0437 152.872 38.7987 152.812 38.5667C152.752 38.3327 152.651 38.1257 152.531 37.9467C152.401 37.7647 152.252 37.6217 152.062 37.5177C151.872 37.4127 151.651 37.3607 151.401 37.3607C151.161 37.3607 150.941 37.4127 150.751 37.5177C150.561 37.6217 150.411 37.7647 150.281 37.9467C150.161 38.1257 150.061 38.3327 150.001 38.5667C149.941 38.7987 149.911 39.0437 149.911 39.3047ZM158.181 40.7787V36.7167H159.092V41.9997H158.221L158.181 40.7787ZM158.352 39.6657L158.731 39.6557C158.731 40.0077 158.692 40.3327 158.622 40.6327C158.542 40.9287 158.431 41.1857 158.261 41.4037C158.101 41.6217 157.892 41.7927 157.622 41.9167C157.362 42.0367 157.041 42.0977 156.661 42.0977C156.401 42.0977 156.171 42.0597 155.951 41.9847C155.741 41.9097 155.561 41.7947 155.411 41.6387C155.251 41.4817 155.142 41.2787 155.052 41.0277C154.972 40.7777 154.931 40.4767 154.931 40.1247V36.7167H155.832V40.1347C155.832 40.3717 155.861 40.5687 155.911 40.7257C155.971 40.8787 156.041 41.0007 156.131 41.0917C156.221 41.1797 156.331 41.2417 156.441 41.2767C156.561 41.3127 156.682 41.3307 156.802 41.3307C157.192 41.3307 157.491 41.2577 157.721 41.1107C157.941 40.9617 158.101 40.7607 158.201 40.5107C158.301 40.2567 158.352 39.9747 158.352 39.6657ZM161.372 37.5467V41.9997H160.471V36.7167H161.342L161.372 37.5467ZM163.021 36.6877L163.011 37.5267C162.941 37.5107 162.872 37.5007 162.802 37.4977C162.732 37.4917 162.662 37.4877 162.582 37.4877C162.372 37.4877 162.181 37.5207 162.021 37.5857C161.861 37.6507 161.732 37.7417 161.622 37.8587C161.512 37.9767 161.422 38.1167 161.352 38.2787C161.292 38.4387 161.251 38.6147 161.231 38.8067L160.981 38.9527C160.981 38.6337 161.012 38.3347 161.072 38.0547C161.142 37.7747 161.242 37.5267 161.372 37.3117C161.502 37.0937 161.671 36.9247 161.881 36.8047C162.091 36.6807 162.332 36.6187 162.622 36.6187C162.682 36.6187 162.762 36.6267 162.842 36.6437C162.932 36.6567 162.991 36.6707 163.021 36.6877ZM167.241 37.7317V44.0307H166.332V36.7167H167.161L167.241 37.7317ZM170.802 39.3137V39.4167C170.802 39.8007 170.751 40.1577 170.661 40.4857C170.571 40.8117 170.441 41.0947 170.261 41.3357C170.091 41.5767 169.882 41.7637 169.622 41.8967C169.372 42.0307 169.081 42.0977 168.751 42.0977C168.411 42.0977 168.122 42.0417 167.862 41.9317C167.602 41.8207 167.381 41.6597 167.201 41.4477C167.031 41.2367 166.881 40.9827 166.771 40.6867C166.671 40.3897 166.602 40.0567 166.562 39.6857V39.1387C166.602 38.7477 166.671 38.3977 166.781 38.0887C166.891 37.7797 167.031 37.5157 167.201 37.2977C167.381 37.0757 167.602 36.9087 167.852 36.7947C168.112 36.6777 168.401 36.6187 168.731 36.6187C169.061 36.6187 169.362 36.6837 169.622 36.8137C169.872 36.9407 170.091 37.1237 170.271 37.3607C170.441 37.5987 170.571 37.8837 170.661 38.2157C170.751 38.5447 170.802 38.9107 170.802 39.3137ZM169.891 39.4167V39.3137C169.891 39.0507 169.862 38.8027 169.812 38.5717C169.752 38.3377 169.672 38.1327 169.552 37.9567C169.432 37.7777 169.292 37.6377 169.112 37.5367C168.932 37.4327 168.721 37.3807 168.471 37.3807C168.241 37.3807 168.042 37.4197 167.872 37.4977C167.712 37.5757 167.571 37.6817 167.451 37.8147C167.331 37.9457 167.241 38.0947 167.161 38.2647C167.091 38.4307 167.031 38.6027 167.001 38.7817V40.0467C167.061 40.2747 167.161 40.4897 167.271 40.6907C167.391 40.8897 167.551 41.0507 167.741 41.1747C167.941 41.2947 168.181 41.3547 168.481 41.3547C168.721 41.3547 168.932 41.3047 169.112 41.2037C169.292 41.0997 169.432 40.9577 169.552 40.7787C169.672 40.5997 169.752 40.3947 169.812 40.1637C169.862 39.9297 169.891 39.6807 169.891 39.4167ZM172.852 37.5467V41.9997H171.951V36.7167H172.832L172.852 37.5467ZM174.501 36.6877V37.5267C174.421 37.5107 174.351 37.5007 174.281 37.4977C174.221 37.4917 174.142 37.4877 174.062 37.4877C173.852 37.4877 173.671 37.5207 173.511 37.5857C173.351 37.6507 173.212 37.7417 173.102 37.8587C172.992 37.9767 172.902 38.1167 172.842 38.2787C172.782 38.4387 172.741 38.6147 172.721 38.8067L172.461 38.9527C172.461 38.6337 172.492 38.3347 172.562 38.0547C172.622 37.7747 172.722 37.5267 172.852 37.3117C172.992 37.0937 173.162 36.9247 173.362 36.8047C173.572 36.6807 173.822 36.6187 174.102 36.6187C174.172 36.6187 174.242 36.6267 174.332 36.6437C174.412 36.6567 174.471 36.6707 174.501 36.6877ZM177.431 42.0977C177.071 42.0977 176.731 42.0357 176.431 41.9117C176.141 41.7847 175.881 41.6077 175.671 41.3797C175.451 41.1517 175.291 40.8817 175.181 40.5687C175.061 40.2567 175.011 39.9147 175.011 39.5437V39.3387C175.011 38.9087 175.071 38.5267 175.201 38.1907C175.321 37.8527 175.501 37.5657 175.711 37.3317C175.931 37.0977 176.181 36.9197 176.461 36.7997C176.731 36.6787 177.022 36.6187 177.322 36.6187C177.692 36.6187 178.022 36.6837 178.292 36.8137C178.572 36.9447 178.801 37.1267 178.971 37.3607C179.151 37.5917 179.282 37.8657 179.362 38.1817C179.452 38.4937 179.491 38.8357 179.491 39.2067V39.6117H175.542V38.8747H178.592V38.8067C178.572 38.5717 178.521 38.3437 178.441 38.1227C178.361 37.9017 178.232 37.7187 178.052 37.5757C177.872 37.4327 177.632 37.3607 177.322 37.3607C177.112 37.3607 176.921 37.4047 176.751 37.4927C176.581 37.5777 176.432 37.7047 176.312 37.8737C176.182 38.0427 176.091 38.2497 176.021 38.4937C175.951 38.7377 175.921 39.0197 175.921 39.3387V39.5437C175.921 39.7947 175.951 40.0307 176.021 40.2517C176.091 40.4697 176.192 40.6617 176.332 40.8277C176.462 40.9937 176.632 41.1237 176.822 41.2187C177.012 41.3127 177.241 41.3597 177.481 41.3597C177.801 41.3597 178.072 41.2947 178.292 41.1647C178.512 41.0347 178.712 40.8607 178.872 40.6427L179.421 41.0767C179.311 41.2497 179.161 41.4137 178.991 41.5697C178.811 41.7267 178.592 41.8537 178.342 41.9507C178.082 42.0487 177.781 42.0977 177.431 42.0977ZM181.441 37.7667V41.9997H180.531V36.7167H181.391L181.441 37.7667ZM181.261 39.1577L180.842 39.1437C180.842 38.7817 180.891 38.4487 180.981 38.1427C181.071 37.8327 181.201 37.5647 181.381 37.3367C181.561 37.1087 181.792 36.9327 182.052 36.8097C182.322 36.6827 182.631 36.6187 182.981 36.6187C183.231 36.6187 183.461 36.6547 183.661 36.7267C183.871 36.7947 184.051 36.9037 184.211 37.0537C184.361 37.2027 184.482 37.3957 184.562 37.6297C184.652 37.8637 184.691 38.1467 184.691 38.4787V41.9997H183.792V38.5227C183.792 38.2467 183.741 38.0247 183.641 37.8587C183.551 37.6927 183.421 37.5727 183.251 37.4977C183.081 37.4197 182.891 37.3807 182.661 37.3807C182.391 37.3807 182.171 37.4277 181.991 37.5217C181.811 37.6167 181.672 37.7467 181.562 37.9127C181.452 38.0787 181.372 38.2697 181.332 38.4837C181.282 38.6957 181.261 38.9207 181.261 39.1577ZM184.681 38.6597L184.072 38.8457C184.082 38.5557 184.121 38.2777 184.221 38.0107C184.311 37.7437 184.452 37.5057 184.622 37.2977C184.802 37.0897 185.021 36.9247 185.281 36.8047C185.541 36.6807 185.841 36.6187 186.171 36.6187C186.461 36.6187 186.711 36.6567 186.931 36.7307C187.151 36.8057 187.331 36.9217 187.481 37.0777C187.641 37.2307 187.752 37.4277 187.832 37.6687C187.912 37.9097 187.951 38.1957 187.951 38.5277V41.9997H187.042V38.5187C187.042 38.2217 186.991 37.9927 186.901 37.8297C186.811 37.6637 186.681 37.5487 186.511 37.4827C186.341 37.4147 186.141 37.3807 185.911 37.3807C185.711 37.3807 185.541 37.4147 185.381 37.4827C185.231 37.5517 185.101 37.6457 185.001 37.7667C184.891 37.8837 184.811 38.0187 184.761 38.1717C184.711 38.3247 184.681 38.4877 184.681 38.6597ZM190.292 36.7167V41.9997H189.391V36.7167H190.292ZM189.322 35.3147C189.322 35.1687 189.361 35.0447 189.451 34.9437C189.541 34.8427 189.672 34.7927 189.852 34.7927C190.022 34.7927 190.151 34.8427 190.251 34.9437C190.341 35.0447 190.391 35.1687 190.391 35.3147C190.391 35.4547 190.341 35.5757 190.251 35.6767C190.151 35.7737 190.022 35.8227 189.852 35.8227C189.672 35.8227 189.541 35.7737 189.451 35.6767C189.361 35.5757 189.322 35.4547 189.322 35.3147ZM194.981 40.7787V36.7167H195.891V41.9997H195.021L194.981 40.7787ZM195.151 39.6657L195.521 39.6557C195.521 40.0077 195.491 40.3327 195.411 40.6327C195.341 40.9287 195.222 41.1857 195.062 41.4037C194.902 41.6217 194.681 41.7927 194.421 41.9167C194.161 42.0367 193.841 42.0977 193.461 42.0977C193.201 42.0977 192.971 42.0597 192.751 41.9847C192.541 41.9097 192.361 41.7947 192.201 41.6387C192.051 41.4817 191.932 41.2787 191.852 41.0277C191.772 40.7777 191.731 40.4767 191.731 40.1247V36.7167H192.631V40.1347C192.631 40.3717 192.651 40.5687 192.711 40.7257C192.761 40.8787 192.841 41.0007 192.931 41.0917C193.021 41.1797 193.131 41.2417 193.241 41.2767C193.361 41.3127 193.482 41.3307 193.602 41.3307C193.982 41.3307 194.291 41.2577 194.511 41.1107C194.741 40.9617 194.901 40.7607 195.001 40.5107C195.101 40.2567 195.151 39.9747 195.151 39.6657ZM198.161 37.7667V41.9997H197.251V36.7167H198.112L198.161 37.7667ZM197.981 39.1577L197.562 39.1437C197.562 38.7817 197.611 38.4487 197.701 38.1427C197.791 37.8327 197.922 37.5647 198.102 37.3367C198.282 37.1087 198.501 36.9327 198.771 36.8097C199.041 36.6827 199.351 36.6187 199.701 36.6187C199.951 36.6187 200.171 36.6547 200.381 36.7267C200.591 36.7947 200.771 36.9037 200.921 37.0537C201.081 37.2027 201.201 37.3957 201.281 37.6297C201.371 37.8637 201.411 38.1467 201.411 38.4787V41.9997H200.501V38.5227C200.501 38.2467 200.462 38.0247 200.362 37.8587C200.272 37.6927 200.141 37.5727 199.971 37.4977C199.801 37.4197 199.601 37.3807 199.381 37.3807C199.111 37.3807 198.891 37.4277 198.711 37.5217C198.531 37.6167 198.391 37.7467 198.281 37.9127C198.171 38.0787 198.092 38.2697 198.042 38.4837C198.002 38.6957 197.981 38.9207 197.981 39.1577ZM201.401 38.6597L200.792 38.8457C200.801 38.5557 200.841 38.2777 200.931 38.0107C201.031 37.7437 201.162 37.5057 201.342 37.2977C201.522 37.0897 201.741 36.9247 202.001 36.8047C202.261 36.6807 202.561 36.6187 202.891 36.6187C203.181 36.6187 203.431 36.6567 203.641 36.7307C203.871 36.8057 204.051 36.9217 204.201 37.0777C204.351 37.2307 204.472 37.4277 204.552 37.6687C204.632 37.9097 204.671 38.1957 204.671 38.5277V41.9997H203.761V38.5187C203.761 38.2217 203.712 37.9927 203.622 37.8297C203.522 37.6637 203.391 37.5487 203.221 37.4827C203.061 37.4147 202.861 37.3807 202.631 37.3807C202.431 37.3807 202.252 37.4147 202.102 37.4827C201.952 37.5517 201.821 37.6457 201.721 37.7667C201.611 37.8837 201.531 38.0187 201.481 38.1717C201.421 38.3247 201.401 38.4877 201.401 38.6597ZM209.421 37.7317V44.0307H208.511V36.7167H209.342L209.421 37.7317ZM212.981 39.3137V39.4167C212.981 39.8007 212.932 40.1577 212.842 40.4857C212.752 40.8117 212.611 41.0947 212.441 41.3357C212.271 41.5767 212.052 41.7637 211.802 41.8967C211.542 42.0307 211.251 42.0977 210.921 42.0977C210.591 42.0977 210.292 42.0417 210.042 41.9317C209.782 41.8207 209.561 41.6597 209.381 41.4477C209.201 41.2367 209.061 40.9827 208.951 40.6867C208.851 40.3897 208.781 40.0567 208.741 39.6857V39.1387C208.781 38.7477 208.851 38.3977 208.961 38.0887C209.061 37.7797 209.211 37.5157 209.381 37.2977C209.561 37.0757 209.781 36.9087 210.031 36.7947C210.291 36.6777 210.581 36.6187 210.911 36.6187C211.241 36.6187 211.542 36.6837 211.792 36.8137C212.051 36.9407 212.271 37.1237 212.441 37.3607C212.621 37.5987 212.752 37.8837 212.842 38.2157C212.932 38.5447 212.981 38.9107 212.981 39.3137ZM212.072 39.4167V39.3137C212.072 39.0507 212.041 38.8027 211.981 38.5717C211.931 38.3377 211.841 38.1327 211.731 37.9567C211.611 37.7777 211.471 37.6377 211.292 37.5367C211.112 37.4327 210.891 37.3807 210.651 37.3807C210.421 37.3807 210.222 37.4197 210.052 37.4977C209.882 37.5757 209.741 37.6817 209.631 37.8147C209.511 37.9457 209.412 38.0947 209.342 38.2647C209.272 38.4307 209.211 38.6027 209.181 38.7817V40.0467C209.241 40.2747 209.331 40.4897 209.451 40.6907C209.571 40.8897 209.721 41.0507 209.921 41.1747C210.111 41.2947 210.361 41.3547 210.661 41.3547C210.901 41.3547 211.112 41.3047 211.292 41.2037C211.471 41.0997 211.611 40.9577 211.731 40.7787C211.841 40.5997 211.931 40.3947 211.981 40.1637C212.041 39.9297 212.072 39.6807 212.072 39.4167ZM215.112 34.4997V41.9997H214.201V34.4997H215.112ZM219.792 40.7787V36.7167H220.701V41.9997H219.842L219.792 40.7787ZM219.961 39.6657L220.342 39.6557C220.342 40.0077 220.301 40.3327 220.231 40.6327C220.151 40.9287 220.041 41.1857 219.881 41.4037C219.711 41.6217 219.501 41.7927 219.241 41.9167C218.971 42.0367 218.651 42.0977 218.271 42.0977C218.021 42.0977 217.782 42.0597 217.572 41.9847C217.352 41.9097 217.171 41.7947 217.021 41.6387C216.871 41.4817 216.751 41.2787 216.661 41.0277C216.581 40.7777 216.542 40.4767 216.542 40.1247V36.7167H217.441V40.1347C217.441 40.3717 217.471 40.5687 217.521 40.7257C217.581 40.8787 217.651 41.0007 217.741 41.0917C217.841 41.1797 217.942 41.2417 218.052 41.2767C218.172 41.3127 218.291 41.3307 218.421 41.3307C218.801 41.3307 219.102 41.2577 219.332 41.1107C219.552 40.9617 219.712 40.7607 219.812 40.5107C219.912 40.2567 219.961 39.9747 219.961 39.6657ZM225.501 36.7167H226.322V41.8877C226.322 42.3527 226.232 42.7497 226.042 43.0787C225.852 43.4077 225.581 43.6567 225.251 43.8257C224.911 43.9987 224.522 44.0847 224.082 44.0847C223.902 44.0847 223.691 44.0557 223.441 43.9967C223.201 43.9417 222.951 43.8457 222.721 43.7087C222.481 43.5757 222.291 43.3947 222.131 43.1667L222.602 42.6297C222.822 42.8967 223.051 43.0817 223.292 43.1867C223.542 43.2907 223.781 43.3427 224.021 43.3427C224.301 43.3427 224.551 43.2887 224.761 43.1817C224.971 43.0737 225.131 42.9147 225.241 42.7027C225.361 42.4947 225.421 42.2377 225.421 41.9317V37.8787L225.501 36.7167ZM221.862 39.4167V39.3137C221.862 38.9107 221.911 38.5447 222.001 38.2157C222.101 37.8837 222.241 37.5987 222.421 37.3607C222.601 37.1237 222.822 36.9407 223.082 36.8137C223.342 36.6837 223.621 36.6187 223.951 36.6187C224.281 36.6187 224.572 36.6777 224.822 36.7947C225.072 36.9087 225.281 37.0757 225.451 37.2977C225.631 37.5157 225.772 37.7797 225.872 38.0887C225.972 38.3977 226.042 38.7477 226.082 39.1387V39.5877C226.042 39.9747 225.972 40.3237 225.872 40.6327C225.772 40.9417 225.631 41.2057 225.451 41.4237C225.281 41.6417 225.072 41.8097 224.822 41.9267C224.572 42.0407 224.271 42.0977 223.941 42.0977C223.621 42.0977 223.342 42.0307 223.082 41.8967C222.822 41.7637 222.611 41.5767 222.421 41.3357C222.241 41.0947 222.101 40.8117 222.001 40.4857C221.911 40.1577 221.862 39.8007 221.862 39.4167ZM222.771 39.3137V39.4167C222.771 39.6807 222.792 39.9277 222.842 40.1587C222.902 40.3897 222.982 40.5937 223.092 40.7697C223.212 40.9447 223.352 41.0837 223.531 41.1847C223.701 41.2817 223.911 41.3307 224.161 41.3307C224.461 41.3307 224.701 41.2677 224.901 41.1407C225.091 41.0137 225.252 40.8457 225.362 40.6377C225.482 40.4287 225.571 40.2027 225.641 39.9587V38.7817C225.601 38.6027 225.551 38.4307 225.471 38.2647C225.401 38.0947 225.301 37.9457 225.191 37.8147C225.071 37.6817 224.931 37.5757 224.761 37.4977C224.591 37.4197 224.391 37.3807 224.171 37.3807C223.921 37.3807 223.711 37.4327 223.531 37.5367C223.352 37.6377 223.212 37.7777 223.092 37.9567C222.982 38.1327 222.902 38.3377 222.842 38.5717C222.792 38.8027 222.771 39.0507 222.771 39.3137ZM228.671 36.7167V41.9997H227.771V36.7167H228.671ZM227.701 35.3147C227.701 35.1687 227.742 35.0447 227.832 34.9437C227.922 34.8427 228.051 34.7927 228.231 34.7927C228.401 34.7927 228.532 34.8427 228.622 34.9437C228.722 35.0447 228.771 35.1687 228.771 35.3147C228.771 35.4547 228.722 35.5757 228.622 35.6767C228.532 35.7737 228.401 35.8227 228.231 35.8227C228.051 35.8227 227.922 35.7737 227.832 35.6767C227.742 35.5757 227.701 35.4547 227.701 35.3147ZM231.031 37.8447V41.9997H230.122V36.7167H230.981L231.031 37.8447ZM230.812 39.1577L230.441 39.1437C230.441 38.7817 230.492 38.4487 230.602 38.1427C230.702 37.8327 230.852 37.5647 231.042 37.3367C231.232 37.1087 231.451 36.9327 231.711 36.8097C231.971 36.6827 232.272 36.6187 232.582 36.6187C232.852 36.6187 233.081 36.6547 233.292 36.7267C233.502 36.7947 233.672 36.9057 233.822 37.0587C233.972 37.2117 234.081 37.4097 234.161 37.6537C234.241 37.8947 234.281 38.1897 234.281 38.5377V41.9997H233.372V38.5277C233.372 38.2517 233.331 38.0297 233.251 37.8637C233.171 37.6947 233.051 37.5727 232.891 37.4977C232.741 37.4197 232.542 37.3807 232.322 37.3807C232.092 37.3807 231.891 37.4277 231.701 37.5217C231.521 37.6167 231.361 37.7467 231.231 37.9127C231.101 38.0787 230.991 38.2697 230.921 38.4837C230.851 38.6957 230.812 38.9207 230.812 39.1577ZM238.731 40.5987C238.731 40.4677 238.701 40.3477 238.641 40.2367C238.581 40.1227 238.471 40.0207 238.292 39.9297C238.122 39.8347 237.861 39.7537 237.511 39.6857C237.221 39.6237 236.951 39.5497 236.721 39.4657C236.481 39.3807 236.282 39.2787 236.122 39.1577C235.952 39.0377 235.831 38.8957 235.741 38.7327C235.651 38.5707 235.612 38.3797 235.612 38.1617C235.612 37.9537 235.651 37.7567 235.741 37.5707C235.841 37.3857 235.971 37.2207 236.141 37.0777C236.311 36.9347 236.521 36.8227 236.761 36.7407C237.001 36.6597 237.272 36.6187 237.572 36.6187C237.992 36.6187 238.351 36.6937 238.651 36.8437C238.951 36.9927 239.182 37.1937 239.342 37.4437C239.502 37.6917 239.582 37.9667 239.582 38.2697H238.671C238.671 38.1227 238.632 37.9807 238.542 37.8447C238.462 37.7047 238.331 37.5887 238.171 37.4977C238.001 37.4067 237.802 37.3607 237.572 37.3607C237.312 37.3607 237.111 37.3997 236.961 37.4787C236.801 37.5527 236.692 37.6487 236.622 37.7667C236.552 37.8837 236.521 38.0067 236.521 38.1377C236.521 38.2347 236.532 38.3227 236.562 38.4007C236.602 38.4757 236.661 38.5457 236.751 38.6107C236.841 38.6727 236.962 38.7317 237.122 38.7867C237.282 38.8417 237.481 38.8977 237.731 38.9527C238.161 39.0507 238.522 39.1677 238.802 39.3047C239.082 39.4407 239.291 39.6087 239.431 39.8077C239.561 40.0057 239.631 40.2467 239.631 40.5297C239.631 40.7607 239.581 40.9727 239.481 41.1647C239.391 41.3567 239.252 41.5227 239.072 41.6627C238.892 41.7997 238.681 41.9067 238.421 41.9847C238.181 42.0597 237.902 42.0977 237.592 42.0977C237.122 42.0977 236.731 42.0147 236.411 41.8487C236.091 41.6827 235.841 41.4677 235.681 41.2037C235.511 40.9397 235.431 40.6617 235.431 40.3687H236.332C236.352 40.6167 236.422 40.8127 236.552 40.9597C236.682 41.1027 236.841 41.2057 237.031 41.2677C237.221 41.3257 237.402 41.3547 237.592 41.3547C237.842 41.3547 238.041 41.3227 238.211 41.2577C238.381 41.1927 238.512 41.1027 238.602 40.9887C238.682 40.8747 238.731 40.7447 238.731 40.5987ZM240.832 41.5207C240.832 41.3677 240.881 41.2397 240.971 41.1357C241.071 41.0277 241.211 40.9747 241.391 40.9747C241.581 40.9747 241.712 41.0277 241.812 41.1357C241.912 41.2397 241.961 41.3677 241.961 41.5207C241.961 41.6707 241.912 41.7977 241.812 41.9017C241.712 42.0067 241.581 42.0587 241.391 42.0587C241.211 42.0587 241.071 42.0067 240.971 41.9017C240.881 41.7977 240.832 41.6707 240.832 41.5207Z" fill="black"/>
<path d="M0 0H38V50L19 41.981L0 50V0Z" fill="#FC4762"/>
<path d="M12.6812 34.967C12.1112 34.967 11.5913 34.8211 11.1113 34.5291C10.6313 34.2381 10.2512 33.8501 9.96118 33.3651C9.67118 32.8761 9.53125 32.339 9.53125 31.756L9.54126 26.686C9.54126 26.092 9.69119 25.558 9.97119 25.084C10.2612 24.605 10.6413 24.222 11.1213 23.936C11.5913 23.644 12.1212 23.498 12.6812 23.498C13.2612 23.498 13.7812 23.641 14.2512 23.928C14.7212 24.214 15.0913 24.6 15.3713 25.084C15.6613 25.563 15.8013 26.097 15.8013 26.686L15.8213 31.756C15.8213 32.339 15.6811 32.8731 15.4011 33.3571C15.1111 33.8471 14.7312 34.2381 14.2612 34.5291C13.7812 34.8211 13.2612 34.967 12.6812 34.967ZM12.6812 33.037C13.0012 33.037 13.2812 32.9071 13.5212 32.6461C13.7612 32.3811 13.8811 32.084 13.8811 31.756L13.8713 26.686C13.8713 26.331 13.7512 26.032 13.5312 25.787C13.3112 25.542 13.0212 25.42 12.6812 25.42C12.3512 25.42 12.0713 25.5401 11.8313 25.7791C11.6013 26.0191 11.4812 26.321 11.4812 26.686V31.756C11.4812 32.105 11.6013 32.407 11.8313 32.662C12.0713 32.912 12.3512 33.037 12.6812 33.037ZM18.9011 34.811H17.1113C17.0613 34.811 17.0312 34.7851 17.0312 34.7321L17.0613 23.7401C17.0613 23.6991 17.0813 23.678 17.1213 23.678H22.2512C22.3012 23.678 22.3313 23.6991 22.3313 23.7401V25.545C22.3313 25.587 22.3112 25.6071 22.2612 25.6071H18.9812V28.092H22.2612C22.3112 28.092 22.3313 28.118 22.3313 28.17L22.3413 29.9821C22.3413 30.0241 22.3212 30.045 22.2612 30.045H18.9812V34.7321C18.9812 34.7851 18.9611 34.811 18.9011 34.811ZM25.6411 34.811H23.8413C23.7913 34.811 23.7612 34.7851 23.7612 34.7321L23.7913 23.7401C23.7913 23.6991 23.8213 23.678 23.8613 23.678H28.9812C29.0312 23.678 29.0613 23.6991 29.0613 23.7401V25.545C29.0613 25.587 29.0412 25.6071 29.0012 25.6071H25.7212V28.092H29.0012C29.0412 28.092 29.0613 28.118 29.0613 28.17L29.0813 29.9821C29.0813 30.0241 29.0512 30.045 29.0012 30.045H25.7212V34.7321C25.7212 34.7851 25.6911 34.811 25.6411 34.811Z" fill="white"/>
<path d="M9.45972 19.8397C8.89972 19.8397 8.38967 19.6907 7.90967 19.3947C7.42967 19.1027 7.04978 18.7117 6.76978 18.2227C6.47978 17.7277 6.33984 17.1886 6.33984 16.6046V15.8867C6.33984 15.8287 6.35967 15.8007 6.40967 15.8007H8.19971C8.25971 15.8007 8.27979 15.8287 8.27979 15.8867V16.6046C8.27979 16.9536 8.38987 17.2567 8.61987 17.5117C8.83987 17.7617 9.11972 17.8867 9.45972 17.8867C9.83972 17.8867 10.1298 17.7566 10.3398 17.4956C10.5598 17.2296 10.6597 16.9336 10.6597 16.6046V16.1757C10.6597 15.8417 10.5599 15.5426 10.3499 15.2766C10.1399 15.0116 9.87981 14.8787 9.55981 14.8787H8.9397C8.8897 14.8787 8.85986 14.8497 8.85986 14.7927L8.87964 13.0037C8.87964 12.9617 8.8997 12.9406 8.9397 12.9406H9.55981C9.84981 12.9406 10.0998 12.8286 10.3298 12.6046C10.5498 12.3816 10.6597 12.0867 10.6597 11.7227V11.5037C10.6597 11.1597 10.5498 10.8677 10.3198 10.6287C10.0898 10.3887 9.80972 10.2697 9.45972 10.2697C9.12972 10.2697 8.84964 10.3887 8.62964 10.6287C8.39964 10.8677 8.27979 11.1597 8.27979 11.5037V12.2697C8.27979 12.3217 8.25973 12.3477 8.21973 12.3477H6.41968C6.37968 12.3477 6.35986 12.3217 6.35986 12.2697V11.4177C6.35986 10.8347 6.50981 10.3136 6.80981 9.85461C7.09981 9.39661 7.47971 9.03266 7.94971 8.76166C8.42971 8.48566 8.92972 8.34766 9.45972 8.34766C10.0397 8.34766 10.5698 8.48765 11.0398 8.76965C11.5098 9.05565 11.8897 9.43361 12.1597 9.90161C12.4497 10.3706 12.5898 10.8866 12.5898 11.4486V11.7066C12.5898 12.1756 12.5099 12.5817 12.3499 12.9257C12.1999 13.2637 11.9797 13.5896 11.6997 13.9016C11.9797 14.2196 12.1999 14.5686 12.3599 14.9486C12.5199 15.3286 12.5999 15.7196 12.5999 16.1206V16.6046C12.5999 17.1986 12.4597 17.7426 12.1797 18.2376C11.8897 18.7276 11.5098 19.1176 11.0398 19.4096C10.5698 19.6966 10.0397 19.8397 9.45972 19.8397ZM17.0398 19.8156C16.3598 19.8156 15.7597 19.6707 15.2297 19.3787C14.7097 19.0867 14.3098 18.6987 14.0098 18.2147C13.7198 17.7247 13.5698 17.1886 13.5698 16.6046L13.5898 11.5346C13.5898 10.9406 13.7298 10.4077 14.0298 9.93365C14.3198 9.45365 14.7298 9.07161 15.2498 8.78461C15.7698 8.49261 16.3698 8.34766 17.0398 8.34766C17.7298 8.34766 18.3298 8.49061 18.8398 8.77661C19.3498 9.06361 19.7498 9.44865 20.0398 9.93365C20.3398 10.4127 20.4797 10.9466 20.4797 11.5346L20.4998 16.6046C20.4998 17.1836 20.3498 17.7166 20.0598 18.2066C19.7698 18.6966 19.3598 19.0867 18.8398 19.3787C18.3198 19.6707 17.7198 19.8156 17.0398 19.8156ZM18.5598 16.6046L18.5498 11.5346C18.5498 11.1596 18.4096 10.8546 18.1296 10.6206C17.8496 10.3866 17.4898 10.2697 17.0398 10.2697C16.5798 10.2697 16.2097 10.3866 15.9397 10.6206C15.6597 10.8546 15.5198 11.1596 15.5198 11.5346V16.6046C15.5198 17.0006 15.6597 17.3137 15.9397 17.5427C16.2097 17.7717 16.5798 17.8867 17.0398 17.8867C17.4898 17.8867 17.8496 17.7717 18.1296 17.5427C18.4196 17.3137 18.5598 17.0006 18.5598 16.6046ZM23.3896 13.6906C23.0196 13.6906 22.6699 13.5946 22.3699 13.4016C22.0499 13.2096 21.7999 12.9537 21.6099 12.6367C21.4199 12.3137 21.3298 11.9667 21.3298 11.5977V10.4566C21.3298 10.0716 21.4199 9.71961 21.6099 9.40161C21.7999 9.07861 22.0499 8.82665 22.3599 8.64465C22.6799 8.45665 23.0196 8.36261 23.3896 8.36261C23.7796 8.36261 24.1297 8.45665 24.4397 8.64465C24.7497 8.83165 24.9897 9.08661 25.1597 9.40961C25.3497 9.72761 25.4397 10.0766 25.4397 10.4566V11.5977C25.4397 11.9777 25.3497 12.3267 25.1597 12.6447C24.9797 12.9567 24.7297 13.2096 24.4097 13.4016C24.1097 13.5946 23.7696 13.6906 23.3896 13.6906ZM24.1099 19.6596H22.2397C22.1897 19.6596 22.1697 19.6336 22.1997 19.5816L28.5798 8.58966C28.6098 8.54766 28.6397 8.52661 28.6697 8.52661H30.5298C30.5898 8.52661 30.5998 8.54766 30.5798 8.58966L24.2097 19.5816C24.1897 19.6336 24.1599 19.6596 24.1099 19.6596ZM23.3599 12.3947C23.5699 12.3947 23.7496 12.3187 23.8796 12.1677C24.0196 12.0117 24.0898 11.8217 24.0898 11.5977V10.4876C24.0898 10.2796 24.0196 10.0976 23.8796 9.94061C23.7496 9.78461 23.5699 9.7066 23.3599 9.7066C23.1499 9.7066 22.9698 9.78461 22.8198 9.94061C22.6798 10.0976 22.6099 10.2796 22.6099 10.4876V11.5977C22.6099 11.8107 22.6798 11.9986 22.8298 12.1596C22.9798 12.3156 23.1599 12.3947 23.3599 12.3947ZM29.5598 19.8156C29.1698 19.8156 28.8298 19.7196 28.5198 19.5266C28.2098 19.3396 27.9498 19.0867 27.7698 18.7697C27.5798 18.4467 27.4797 18.0977 27.4797 17.7227V16.5897C27.4797 16.1987 27.5798 15.8446 27.7698 15.5266C27.9498 15.2036 28.1998 14.9517 28.5198 14.7697C28.8298 14.5817 29.1798 14.4876 29.5598 14.4876C29.9398 14.4876 30.2798 14.5817 30.5898 14.7697C30.8998 14.9567 31.1498 15.2116 31.3298 15.5346C31.5098 15.8526 31.5999 16.2037 31.5999 16.5897V17.7227C31.5999 18.1077 31.5098 18.4567 31.3198 18.7697C31.1298 19.0867 30.8798 19.3416 30.5698 19.5346C30.2598 19.7226 29.9198 19.8156 29.5598 19.8156ZM29.5398 18.5266C29.7498 18.5266 29.9298 18.4487 30.0598 18.2927C30.1998 18.1367 30.2698 17.9467 30.2698 17.7227V16.6206C30.2698 16.4076 30.1998 16.2246 30.0598 16.0736C29.9298 15.9176 29.7498 15.8397 29.5398 15.8397C29.3298 15.8397 29.1498 15.9176 28.9998 16.0736C28.8498 16.2246 28.7798 16.4076 28.7798 16.6206V17.7227C28.7798 17.9357 28.8598 18.1236 29.0098 18.2846C29.1598 18.4466 29.3398 18.5266 29.5398 18.5266Z" fill="white"/>
</svg>
