<svg xmlns="http://www.w3.org/2000/svg" viewBox="0 0 24 24" width="24" height="24">
  <path d="M7.99999 0H9.58729V3.72093H7.99999V0Z" fill="#2F2F2F"/>
  <path d="M7.99999 6.69767H9.58729V5.2093H7.99999V6.69767Z" fill="#2F2F2F"/>
  <path d="M3.18254 14.5116C3.18254 13.693 3.88889 13.0233 4.7619 13.0233C5.63492 13.0233 6.34921 13.693 6.34921 14.5116C6.34921 15.3302 5.63492 16 4.7619 16C3.88889 16 3.18254 15.3302 3.18254 14.5116Z" fill="#2F2F2F"/>
  <path d="M11.119 14.5116C11.119 13.693 11.8254 13.0233 12.6984 13.0233C13.5714 13.0233 14.2857 13.693 14.2857 14.5116C14.2857 15.3302 13.5714 16 12.6984 16C11.8254 16 11.119 15.3302 11.119 14.5116Z" fill="#2F2F2F"/>
  <path d="M11.5476 9.30233H5.63492L4.7619 10.7907H14.2857V12.2791H4.7619C3.55556 12.2791 2.79365 11.066 3.37302 10.0688L4.44444 8.25302L1.5873 2.60465H0V1.11628H2.59524L5.97619 7.81395H11.5476L14.619 2.60465L16 3.31907L12.9365 8.53581C12.6667 8.99721 12.1429 9.30233 11.5476 9.30233Z" fill="#2F2F2F"/>
</svg>
