<?xml version="1.0" encoding="UTF-8"?>
<svg xmlns="http://www.w3.org/2000/svg" xmlns:xlink="http://www.w3.org/1999/xlink" width="12px" height="12px" viewBox="0 0 12 12" version="1.1">
<g id="surface1">
<path style=" stroke:none;fill-rule:nonzero;fill:rgb(80.000001%,2.352941%,1.960784%);fill-opacity:1;" d="M 5.554688 1.472656 C 5.554688 2.441406 5.546875 2.574219 5.457031 2.75 C 5.394531 2.875 5.238281 3.039062 5.113281 3.109375 C 4.917969 3.226562 4.820312 3.234375 3.804688 3.234375 L 2.859375 3.234375 L 2.859375 4.6875 L 5.445312 4.6875 C 6.867188 4.6875 8.09375 4.695312 8.175781 4.707031 C 8.453125 4.75 8.667969 4.910156 8.785156 5.15625 L 8.847656 5.285156 L 8.847656 8.402344 L 8.792969 8.511719 C 8.707031 8.6875 8.589844 8.804688 8.417969 8.886719 L 8.261719 8.964844 L 5.5625 8.972656 L 2.859375 8.976562 L 2.859375 9.523438 C 2.859375 10 2.867188 10.078125 2.902344 10.164062 C 2.957031 10.28125 3.113281 10.414062 3.242188 10.449219 C 3.3125 10.472656 4.195312 10.476562 6.621094 10.472656 C 10.292969 10.464844 9.957031 10.480469 10.136719 10.296875 C 10.300781 10.128906 10.289062 10.464844 10.285156 5.445312 L 10.277344 0.921875 L 10.207031 0.808594 C 10.167969 0.746094 10.089844 0.660156 10.035156 0.621094 L 9.933594 0.550781 L 7.742188 0.542969 L 5.554688 0.539062 Z M 5.554688 1.472656 "/>
<path style=" stroke:none;fill-rule:nonzero;fill:rgb(80.000001%,2.352941%,1.960784%);fill-opacity:1;" d="M 4.148438 1.839844 L 3.082031 2.90625 L 3.949219 2.90625 C 4.914062 2.90625 4.921875 2.902344 5.078125 2.742188 C 5.222656 2.59375 5.230469 2.5625 5.222656 1.621094 L 5.214844 0.773438 Z M 4.148438 1.839844 "/>
<path style=" stroke:none;fill-rule:nonzero;fill:rgb(23.921569%,16.862746%,12.156863%);fill-opacity:1;" d="M 10.589844 5.839844 L 10.582031 10.160156 L 10.519531 10.292969 C 10.433594 10.460938 10.273438 10.621094 10.105469 10.703125 L 9.972656 10.769531 L 6.910156 10.777344 L 3.84375 10.78125 L 3.84375 10.890625 C 3.84375 11.121094 3.96875 11.328125 4.15625 11.417969 C 4.25 11.457031 4.398438 11.460938 7.558594 11.460938 C 10.71875 11.460938 10.867188 11.457031 10.960938 11.417969 C 11.074219 11.363281 11.21875 11.199219 11.25 11.089844 C 11.265625 11.035156 11.273438 9.394531 11.273438 6.480469 L 11.273438 1.957031 L 11.21875 1.839844 C 11.1875 1.773438 11.136719 1.699219 11.105469 1.671875 C 11.015625 1.585938 10.847656 1.523438 10.71875 1.523438 L 10.59375 1.523438 Z M 10.589844 5.839844 "/>
<path style=" stroke:none;fill-rule:nonzero;fill:rgb(85.09804%,14.117648%,14.117648%);fill-opacity:1;" d="M 0.984375 5.066406 C 0.921875 5.101562 0.851562 5.164062 0.808594 5.222656 L 0.738281 5.324219 L 0.730469 6.78125 C 0.726562 7.789062 0.730469 8.265625 0.75 8.328125 C 0.78125 8.429688 0.890625 8.5625 0.992188 8.621094 C 1.0625 8.65625 1.324219 8.660156 4.558594 8.667969 C 7.140625 8.671875 8.082031 8.667969 8.175781 8.648438 C 8.335938 8.613281 8.484375 8.476562 8.527344 8.320312 C 8.550781 8.242188 8.554688 7.867188 8.550781 6.785156 L 8.542969 5.355469 L 8.488281 5.257812 C 8.453125 5.199219 8.386719 5.128906 8.335938 5.09375 L 8.242188 5.027344 L 4.667969 5.019531 L 1.089844 5.015625 Z M 2.320312 6.15625 C 2.46875 6.355469 2.601562 6.523438 2.617188 6.539062 C 2.632812 6.558594 2.710938 6.472656 2.898438 6.21875 C 3.203125 5.804688 3.214844 5.789062 3.300781 5.789062 C 3.382812 5.789062 3.4375 5.832031 3.457031 5.910156 C 3.46875 5.960938 3.417969 6.039062 3.132812 6.429688 L 2.789062 6.894531 L 2.789062 7.800781 L 2.726562 7.847656 C 2.652344 7.90625 2.605469 7.910156 2.535156 7.859375 C 2.488281 7.824219 2.484375 7.8125 2.484375 7.363281 L 2.484375 6.898438 L 2.144531 6.445312 C 1.917969 6.144531 1.804688 5.972656 1.804688 5.933594 C 1.804688 5.84375 1.871094 5.785156 1.964844 5.792969 C 2.046875 5.800781 2.070312 5.828125 2.320312 6.15625 Z M 3.972656 5.84375 C 3.992188 5.875 4.152344 6.214844 4.324219 6.601562 C 4.5 6.984375 4.648438 7.308594 4.660156 7.316406 C 4.671875 7.328125 4.832031 7 5.011719 6.59375 C 5.199219 6.183594 5.363281 5.832031 5.386719 5.816406 C 5.441406 5.773438 5.625 5.78125 5.675781 5.828125 C 5.714844 5.863281 5.71875 5.925781 5.71875 6.835938 C 5.71875 7.773438 5.714844 7.808594 5.671875 7.851562 C 5.609375 7.914062 5.535156 7.910156 5.46875 7.847656 C 5.414062 7.796875 5.414062 7.796875 5.414062 7.152344 C 5.414062 6.796875 5.40625 6.511719 5.398438 6.523438 C 5.390625 6.53125 5.253906 6.828125 5.089844 7.1875 C 4.65625 8.136719 4.675781 8.136719 4.25 7.195312 C 4.089844 6.839844 3.949219 6.542969 3.9375 6.53125 C 3.921875 6.511719 3.914062 6.738281 3.914062 7.164062 C 3.914062 7.820312 3.914062 7.824219 3.863281 7.859375 C 3.792969 7.910156 3.746094 7.90625 3.671875 7.847656 L 3.609375 7.800781 L 3.609375 6.847656 C 3.609375 5.738281 3.601562 5.789062 3.808594 5.789062 C 3.917969 5.789062 3.941406 5.796875 3.972656 5.84375 Z M 6.226562 5.859375 C 6.25 5.902344 6.257812 6.128906 6.257812 6.753906 L 6.257812 7.59375 L 6.828125 7.59375 C 7.441406 7.59375 7.433594 7.589844 7.464844 7.714844 C 7.476562 7.765625 7.46875 7.792969 7.421875 7.835938 L 7.363281 7.898438 L 6.707031 7.898438 C 6.097656 7.898438 6.050781 7.894531 5.996094 7.855469 L 5.941406 7.808594 L 5.933594 6.886719 C 5.933594 6.378906 5.933594 5.941406 5.941406 5.914062 C 5.960938 5.828125 6.019531 5.785156 6.113281 5.792969 C 6.175781 5.796875 6.207031 5.816406 6.226562 5.859375 Z M 6.226562 5.859375 "/>
</g>
</svg>
