<?xml version="1.0" encoding="UTF-8"?>
<svg xmlns="http://www.w3.org/2000/svg" xmlns:xlink="http://www.w3.org/1999/xlink" width="18px" height="18px" viewBox="0 0 18 18" version="1.1">
<g id="surface1">
<path style=" stroke:none;fill-rule:nonzero;fill:rgb(100%,100%,100%);fill-opacity:1;" d="M 8.332031 2.210938 C 8.332031 3.664062 8.316406 3.863281 8.183594 4.125 C 8.089844 4.308594 7.859375 4.554688 7.671875 4.664062 C 7.378906 4.835938 7.230469 4.851562 5.707031 4.851562 L 4.289062 4.851562 L 4.289062 7.03125 L 8.167969 7.03125 C 10.300781 7.03125 12.140625 7.046875 12.261719 7.0625 C 12.675781 7.125 13.003906 7.363281 13.179688 7.734375 L 13.269531 7.925781 L 13.269531 12.605469 L 13.191406 12.765625 C 13.0625 13.027344 12.886719 13.203125 12.628906 13.332031 L 12.390625 13.449219 L 8.34375 13.457031 L 4.289062 13.464844 L 4.289062 14.285156 C 4.289062 15 4.300781 15.117188 4.355469 15.242188 C 4.4375 15.421875 4.671875 15.625 4.863281 15.675781 C 4.972656 15.707031 6.292969 15.714844 9.933594 15.707031 C 15.4375 15.699219 14.933594 15.722656 15.203125 15.445312 C 15.453125 15.191406 15.433594 15.699219 15.425781 8.171875 L 15.417969 1.382812 L 15.3125 1.214844 C 15.25 1.117188 15.136719 0.992188 15.050781 0.933594 L 14.898438 0.828125 L 11.617188 0.816406 L 8.332031 0.808594 Z M 8.332031 2.210938 "/>
<path style=" stroke:none;fill-rule:nonzero;fill:rgb(100%,100%,100%);fill-opacity:1;" d="M 6.222656 2.761719 L 4.625 4.359375 L 5.921875 4.359375 C 7.371094 4.359375 7.382812 4.355469 7.617188 4.113281 C 7.835938 3.886719 7.84375 3.847656 7.832031 2.433594 L 7.824219 1.160156 Z M 6.222656 2.761719 "/>
<path style=" stroke:none;fill-rule:nonzero;fill:rgb(100%,100%,100%);fill-opacity:1;" d="M 15.882812 8.761719 L 15.875 15.238281 L 15.777344 15.4375 C 15.652344 15.691406 15.410156 15.933594 15.160156 16.054688 L 14.957031 16.15625 L 10.363281 16.164062 L 5.765625 16.171875 L 5.765625 16.332031 C 5.765625 16.683594 5.957031 16.996094 6.238281 17.125 C 6.375 17.1875 6.597656 17.191406 11.339844 17.191406 C 16.078125 17.191406 16.300781 17.1875 16.4375 17.125 C 16.609375 17.046875 16.828125 16.800781 16.875 16.632812 C 16.894531 16.550781 16.910156 14.09375 16.910156 9.71875 L 16.910156 2.9375 L 16.824219 2.761719 C 16.78125 2.660156 16.707031 2.546875 16.660156 2.507812 C 16.523438 2.378906 16.273438 2.285156 16.078125 2.285156 L 15.890625 2.285156 Z M 15.882812 8.761719 "/>
<path style=" stroke:none;fill-rule:nonzero;fill:rgb(100%,100%,100%);fill-opacity:1;" d="M 1.476562 7.601562 C 1.386719 7.648438 1.277344 7.746094 1.214844 7.832031 L 1.109375 7.988281 L 1.097656 10.171875 C 1.089844 11.683594 1.097656 12.398438 1.125 12.492188 C 1.171875 12.644531 1.335938 12.847656 1.492188 12.929688 C 1.59375 12.988281 1.984375 12.988281 6.839844 13 C 10.710938 13.007812 12.125 13 12.265625 12.972656 C 12.503906 12.921875 12.726562 12.710938 12.792969 12.480469 C 12.824219 12.359375 12.832031 11.796875 12.824219 10.175781 L 12.8125 8.03125 L 12.730469 7.886719 C 12.679688 7.800781 12.582031 7.691406 12.503906 7.640625 L 12.363281 7.542969 L 7 7.53125 L 1.636719 7.523438 Z M 3.480469 9.234375 C 3.703125 9.53125 3.902344 9.789062 3.921875 9.808594 C 3.953125 9.835938 4.0625 9.710938 4.34375 9.328125 C 4.800781 8.703125 4.824219 8.683594 4.949219 8.683594 C 5.078125 8.683594 5.15625 8.746094 5.1875 8.863281 C 5.203125 8.941406 5.128906 9.054688 4.695312 9.648438 L 4.183594 10.339844 L 4.183594 11.703125 L 4.09375 11.773438 C 3.980469 11.863281 3.910156 11.863281 3.804688 11.792969 C 3.730469 11.738281 3.726562 11.722656 3.726562 11.042969 L 3.726562 10.347656 L 3.21875 9.667969 C 2.878906 9.214844 2.707031 8.957031 2.707031 8.902344 C 2.707031 8.765625 2.804688 8.679688 2.949219 8.691406 C 3.070312 8.703125 3.105469 8.738281 3.480469 9.234375 Z M 5.957031 8.765625 C 5.988281 8.808594 6.226562 9.320312 6.484375 9.898438 C 6.75 10.476562 6.976562 10.960938 6.988281 10.976562 C 7.007812 10.992188 7.246094 10.5 7.519531 9.890625 C 7.796875 9.273438 8.046875 8.75 8.078125 8.726562 C 8.160156 8.664062 8.4375 8.671875 8.515625 8.742188 C 8.574219 8.796875 8.578125 8.890625 8.578125 10.253906 C 8.578125 11.660156 8.574219 11.710938 8.507812 11.777344 C 8.417969 11.867188 8.304688 11.863281 8.203125 11.769531 C 8.121094 11.695312 8.121094 11.691406 8.121094 10.730469 C 8.121094 10.195312 8.109375 9.769531 8.101562 9.785156 C 8.085938 9.792969 7.878906 10.246094 7.632812 10.78125 C 6.984375 12.207031 7.015625 12.207031 6.375 10.792969 C 6.136719 10.261719 5.921875 9.8125 5.90625 9.792969 C 5.882812 9.769531 5.871094 10.109375 5.871094 10.746094 C 5.871094 11.730469 5.871094 11.738281 5.792969 11.792969 C 5.6875 11.863281 5.617188 11.863281 5.503906 11.773438 L 5.414062 11.703125 L 5.414062 10.269531 C 5.414062 8.609375 5.398438 8.683594 5.714844 8.683594 C 5.875 8.683594 5.914062 8.699219 5.957031 8.765625 Z M 9.339844 8.789062 C 9.375 8.855469 9.386719 9.191406 9.386719 10.132812 L 9.386719 11.390625 L 10.246094 11.390625 C 11.160156 11.390625 11.152344 11.386719 11.199219 11.574219 C 11.214844 11.648438 11.199219 11.6875 11.128906 11.757812 L 11.042969 11.847656 L 10.0625 11.847656 C 9.144531 11.847656 9.074219 11.84375 8.996094 11.78125 L 8.910156 11.714844 L 8.902344 10.328125 C 8.898438 9.570312 8.902344 8.910156 8.910156 8.871094 C 8.945312 8.738281 9.03125 8.679688 9.171875 8.691406 C 9.265625 8.699219 9.308594 8.722656 9.339844 8.789062 Z M 9.339844 8.789062 "/>
</g>
</svg>
