<?xml version="1.0" encoding="UTF-8"?>
<svg xmlns="http://www.w3.org/2000/svg" xmlns:xlink="http://www.w3.org/1999/xlink" width="13px" height="13px" viewBox="0 0 13 13" version="1.1">
<g id="surface1">
<path style=" stroke:none;fill-rule:nonzero;fill:rgb(80.000001%,2.352941%,1.960784%);fill-opacity:1;" d="M 6.019531 1.597656 C 6.019531 2.644531 6.007812 2.789062 5.910156 2.976562 C 5.84375 3.113281 5.675781 3.289062 5.539062 3.371094 C 5.328125 3.492188 5.222656 3.503906 4.121094 3.503906 L 3.097656 3.503906 L 3.097656 5.078125 L 5.898438 5.078125 C 7.441406 5.078125 8.765625 5.089844 8.855469 5.101562 C 9.15625 5.148438 9.390625 5.320312 9.519531 5.585938 L 9.585938 5.726562 L 9.585938 9.101562 L 9.527344 9.21875 C 9.433594 9.410156 9.304688 9.535156 9.121094 9.628906 L 8.949219 9.710938 L 6.023438 9.71875 L 3.097656 9.722656 L 3.097656 10.316406 C 3.097656 10.835938 3.105469 10.917969 3.144531 11.007812 C 3.203125 11.140625 3.375 11.285156 3.511719 11.320312 C 3.589844 11.34375 4.546875 11.347656 7.171875 11.34375 C 11.148438 11.335938 10.785156 11.355469 10.980469 11.152344 C 11.160156 10.972656 11.148438 11.335938 11.140625 5.902344 L 11.132812 0.996094 L 11.058594 0.875 C 11.015625 0.808594 10.929688 0.714844 10.871094 0.671875 L 10.761719 0.597656 L 6.019531 0.582031 Z M 6.019531 1.597656 "/>
<path style=" stroke:none;fill-rule:nonzero;fill:rgb(80.000001%,2.352941%,1.960784%);fill-opacity:1;" d="M 4.496094 1.992188 L 3.339844 3.148438 L 4.277344 3.148438 C 5.324219 3.148438 5.332031 3.144531 5.503906 2.96875 C 5.660156 2.808594 5.664062 2.777344 5.65625 1.757812 L 5.648438 0.835938 Z M 4.496094 1.992188 "/>
<path style=" stroke:none;fill-rule:nonzero;fill:rgb(23.921569%,16.862746%,12.156863%);fill-opacity:1;" d="M 11.472656 6.328125 L 11.464844 11.007812 L 11.394531 11.148438 C 11.304688 11.332031 11.128906 11.507812 10.949219 11.597656 L 10.804688 11.667969 L 7.484375 11.675781 L 4.164062 11.679688 L 4.164062 11.796875 C 4.164062 12.046875 4.300781 12.273438 4.503906 12.367188 C 4.601562 12.414062 4.765625 12.414062 8.1875 12.414062 C 11.609375 12.414062 11.773438 12.414062 11.871094 12.367188 C 11.996094 12.3125 12.15625 12.132812 12.1875 12.011719 C 12.203125 11.953125 12.214844 10.179688 12.214844 7.019531 L 12.214844 2.121094 L 12.152344 1.992188 C 12.117188 1.921875 12.066406 1.839844 12.03125 1.808594 C 11.933594 1.71875 11.753906 1.648438 11.609375 1.648438 L 11.476562 1.648438 Z M 11.472656 6.328125 "/>
<path style=" stroke:none;fill-rule:nonzero;fill:rgb(85.09804%,14.117648%,14.117648%);fill-opacity:1;" d="M 1.066406 5.488281 C 1 5.523438 0.921875 5.59375 0.875 5.65625 L 0.800781 5.769531 L 0.792969 7.34375 C 0.789062 8.4375 0.792969 8.957031 0.8125 9.019531 C 0.84375 9.132812 0.964844 9.277344 1.078125 9.339844 C 1.148438 9.378906 1.433594 9.382812 4.9375 9.390625 C 7.738281 9.394531 8.757812 9.390625 8.859375 9.367188 C 9.03125 9.332031 9.191406 9.179688 9.238281 9.011719 C 9.261719 8.925781 9.269531 8.519531 9.261719 7.351562 L 9.253906 5.800781 L 9.195312 5.695312 C 9.160156 5.632812 9.085938 5.554688 9.03125 5.515625 L 8.929688 5.445312 L 5.054688 5.4375 L 1.179688 5.433594 Z M 2.515625 6.671875 C 2.671875 6.882812 2.820312 7.070312 2.832031 7.082031 C 2.855469 7.105469 2.933594 7.011719 3.136719 6.734375 C 3.46875 6.285156 3.484375 6.269531 3.574219 6.269531 C 3.667969 6.269531 3.726562 6.316406 3.746094 6.402344 C 3.757812 6.457031 3.703125 6.539062 3.390625 6.96875 L 3.023438 7.46875 L 3.023438 8.453125 L 2.957031 8.503906 C 2.875 8.566406 2.824219 8.570312 2.746094 8.515625 C 2.695312 8.476562 2.691406 8.464844 2.691406 7.976562 L 2.691406 7.472656 L 2.324219 6.980469 C 2.078125 6.65625 1.957031 6.46875 1.957031 6.429688 C 1.957031 6.328125 2.027344 6.269531 2.128906 6.277344 C 2.214844 6.285156 2.242188 6.3125 2.515625 6.671875 Z M 4.304688 6.328125 C 4.324219 6.363281 4.496094 6.730469 4.683594 7.148438 C 4.875 7.566406 5.039062 7.917969 5.046875 7.925781 C 5.058594 7.941406 5.234375 7.585938 5.429688 7.140625 C 5.632812 6.699219 5.8125 6.320312 5.835938 6.300781 C 5.894531 6.257812 6.09375 6.265625 6.148438 6.316406 C 6.191406 6.351562 6.195312 6.421875 6.195312 7.40625 C 6.195312 8.421875 6.191406 8.457031 6.144531 8.503906 C 6.078125 8.570312 5.996094 8.570312 5.921875 8.5 C 5.867188 8.449219 5.867188 8.445312 5.867188 7.75 C 5.867188 7.363281 5.859375 7.054688 5.851562 7.066406 C 5.839844 7.074219 5.691406 7.398438 5.511719 7.789062 C 5.046875 8.816406 5.066406 8.816406 4.601562 7.792969 C 4.429688 7.410156 4.277344 7.085938 4.265625 7.074219 C 4.246094 7.054688 4.242188 7.300781 4.242188 7.761719 C 4.242188 8.472656 4.242188 8.476562 4.183594 8.515625 C 4.109375 8.570312 4.058594 8.566406 3.976562 8.503906 L 3.910156 8.453125 L 3.910156 7.417969 C 3.910156 6.21875 3.898438 6.269531 4.125 6.269531 C 4.242188 6.269531 4.269531 6.28125 4.304688 6.328125 Z M 6.746094 6.347656 C 6.773438 6.394531 6.78125 6.640625 6.78125 7.316406 L 6.78125 8.226562 L 7.398438 8.226562 C 8.0625 8.226562 8.054688 8.222656 8.085938 8.359375 C 8.101562 8.410156 8.089844 8.441406 8.039062 8.492188 L 7.976562 8.554688 L 7.265625 8.554688 C 6.605469 8.554688 6.554688 8.554688 6.496094 8.507812 L 6.4375 8.460938 L 6.429688 7.460938 C 6.425781 6.910156 6.429688 6.4375 6.4375 6.40625 C 6.460938 6.3125 6.523438 6.269531 6.625 6.277344 C 6.691406 6.28125 6.722656 6.300781 6.746094 6.347656 Z M 6.746094 6.347656 "/>
</g>
</svg>
