<svg width="20" height="20" xmlns="http://www.w3.org/2000/svg">

 <g>
  <title>background</title>
  <rect fill="none" id="canvas_background" height="402" width="582" y="-1" x="-1"/>
 </g>
 <g>
  <title>Layer 1</title>
  <g id="surface1">
   <path id="svg_1" fill-rule="nonzero" fill="#ffffff" d="m9.25781,2.45703c0,1.61328 -0.01562,1.83594 -0.16406,2.125c-0.10547,0.20703 -0.36328,0.48047 -0.57031,0.60156c-0.32422,0.19141 -0.48828,0.20704 -2.1836,0.20704l-1.57421,0l0,2.42187l4.30859,0c2.37109,0 4.41406,0.01563 4.55078,0.03516c0.46094,0.07031 0.82422,0.33593 1.01953,0.74609l0.10156,0.21484l0,5.19532l-0.08984,0.17968c-0.14453,0.29297 -0.33984,0.48829 -0.625,0.62891l-0.26172,0.12891l-4.5,0.01172l-4.5039,0.00781l0,0.91015c0,0.79688 0.01171,0.92579 0.07421,1.06641c0.08985,0.19922 0.35157,0.42188 0.5625,0.48047c0.1211,0.03516 1.58985,0.04297 5.63282,0.03516c6.11718,-0.01172 5.55859,0.01562 5.85937,-0.29297c0.27344,-0.28125 0.25391,0.28125 0.2461,-8.08203l-0.01172,-7.54297l-0.11719,-0.1875c-0.06641,-0.10547 -0.19531,-0.2461 -0.28906,-0.3125l-0.16797,-0.11719l-3.64844,-0.01172l-3.64844,-0.00781l0,1.55859zm0,0"/>
   <path id="svg_2" fill-rule="nonzero" fill="#ffffff" d="m6.91406,3.06641l-1.77734,1.77734l1.44531,0c1.60938,0 1.6211,-0.00391 1.88281,-0.27344c0.24219,-0.25 0.25,-0.29687 0.23829,-1.86718l-0.01172,-1.41407l-1.77735,1.77735zm0,0"/>
   <path id="svg_3" fill-rule="nonzero" fill="#ffffff" d="m17.64844,9.73438l-0.01172,7.19921l-0.10547,0.21875c-0.14062,0.28125 -0.41016,0.55079 -0.6875,0.6875l-0.22266,0.10938l-5.10546,0.01172l-5.10938,0.00781l0,0.17969c0,0.38672 0.21094,0.73437 0.52344,0.8789c0.15234,0.07032 0.40234,0.07422 5.66797,0.07422c5.26562,0 5.51562,-0.0039 5.66797,-0.07422c0.1914,-0.08593 0.43359,-0.35937 0.48437,-0.54687c0.02344,-0.08984 0.03906,-2.82031 0.03906,-7.67969l0,-7.53906l-0.09375,-0.19531c-0.05078,-0.10938 -0.13281,-0.23438 -0.18359,-0.28125c-0.15234,-0.14063 -0.42969,-0.2461 -0.64844,-0.2461l-0.20703,0l-0.00781,7.19532zm0,0"/>
   <path id="svg_4" fill-rule="nonzero" fill="#ffffff" d="m1.64063,8.44531c-0.10157,0.05469 -0.22266,0.16016 -0.29297,0.25782l-0.11719,0.17187l-0.01172,2.42578c-0.00781,1.67969 0,2.47656 0.03125,2.57813c0.05078,0.17187 0.23438,0.39453 0.40625,0.48828c0.11328,0.0625 0.55078,0.0664 5.94141,0.07812c4.30468,0.00782 5.875,0 6.03125,-0.03125c0.26562,-0.05859 0.51172,-0.28906 0.58593,-0.54687c0.03516,-0.13281 0.04297,-0.75781 0.03516,-2.5586l-0.01172,-2.38281l-0.09375,-0.16406c-0.05469,-0.09375 -0.16406,-0.21484 -0.25,-0.27344l-0.15625,-0.10937l-5.96094,-0.01172l-5.96093,-0.00781l-0.17578,0.08593zm2.22656,1.81641c0.24609,0.32812 0.46875,0.61328 0.49219,0.63672c0.03125,0.03125 0.15625,-0.10938 0.46875,-0.53516c0.50781,-0.6914 0.53125,-0.71484 0.67187,-0.71484c0.14063,0 0.23047,0.07031 0.26172,0.19922c0.01953,0.08593 -0.0625,0.21484 -0.54297,0.87109l-0.57031,0.76953l0,1.51563l-0.10156,0.07812c-0.125,0.09766 -0.20313,0.10156 -0.32032,0.01953c-0.08203,-0.05859 -0.08593,-0.07812 -0.08593,-0.83203l0,-0.77344l-0.56641,-0.7539c-0.375,-0.50391 -0.56641,-0.78906 -0.56641,-0.85156c0,-0.15235 0.10938,-0.2461 0.26953,-0.23438c0.13282,0.01172 0.17188,0.05469 0.58985,0.60547zm2.7539,-0.52344c0.03125,0.05078 0.29688,0.61719 0.58594,1.26172c0.29297,0.64063 0.54297,1.17969 0.5586,1.19531c0.01953,0.01953 0.28515,-0.52734 0.58984,-1.20703c0.30859,-0.68359 0.58594,-1.26562 0.62109,-1.29297c0.08985,-0.07031 0.39844,-0.05859 0.48438,0.01953c0.0664,0.0586 0.07031,0.16407 0.07031,1.67969c0,1.5625 -0.00391,1.61719 -0.07812,1.69141c-0.10157,0.10156 -0.22657,0.09765 -0.33985,-0.00781c-0.08984,-0.08204 -0.08984,-0.08594 -0.08984,-1.15625c0,-0.59375 -0.01172,-1.06641 -0.02344,-1.05079c-0.01562,0.01172 -0.24609,0.51172 -0.51953,1.10938c-0.71875,1.58203 -0.6875,1.58203 -1.39844,0.01172c-0.26562,-0.58985 -0.5,-1.08985 -0.51953,-1.10938c-0.02734,-0.02734 -0.03906,0.34766 -0.03906,1.0586c0,1.09375 0,1.10156 -0.08594,1.16015c-0.11719,0.08203 -0.19531,0.07813 -0.32031,-0.01953l-0.10156,-0.07812l0,-1.59375c0,-1.84375 -0.01563,-1.76172 0.33203,-1.76172c0.17968,0 0.22265,0.01562 0.27343,0.08984zm3.75782,0.02735c0.03906,0.07421 0.05078,0.44921 0.05078,1.49218l0,1.39844l0.95312,0c1.01953,0 1.00782,-0.00391 1.0586,0.20313c0.01953,0.08203 0.0039,0.1289 -0.07422,0.20312l-0.09766,0.10156l-1.08984,0c-1.01953,0 -1.09766,-0.0039 -1.1836,-0.07422l-0.09375,-0.07421l-0.01171,-1.53907c-0.00391,-0.84375 0,-1.57422 0.01171,-1.62109c0.03516,-0.14453 0.13282,-0.21094 0.28907,-0.19922c0.10156,0.00781 0.15234,0.03516 0.1875,0.10938zm0,0"/>
  </g>
 </g>
</svg>