<svg width="512" height="512" xmlns="http://www.w3.org/2000/svg" preserveAspectRatio="xMidYMid meet">

 <g>
  <title>background</title>
  <rect fill="none" id="canvas_background" height="402" width="582" y="-1" x="-1"/>
 </g>
 <g>
  <title>Layer 1</title>
  <g id="svg_1" fill="#000000" transform="translate(0,512) scale(0.10000000149011612,-0.10000000149011612) ">
   <path fill="#cc0605" id="svg_2" d="m2370,4491c0,-413 -4,-470 -42,-544c-27,-53 -93,-123 -146,-154c-83,-49 -125,-53 -559,-53l-403,0l0,-310l0,-310l1103,0c607,0 1130,-4 1165,-9c118,-18 211,-86 261,-191l26,-55l0,-665l0,-665l-23,-46c-37,-75 -87,-125 -160,-161l-67,-33l-1152,-3l-1153,-2l0,-233c0,-204 3,-237 19,-273c23,-51 90,-108 144,-123c31,-9 407,-11 1442,-9c1566,3 1423,-4 1500,75c70,72 65,-72 63,2069l-3,1931l-30,48c-17,27 -50,63 -74,80l-43,30l-934,3l-934,2l0,-399z"/>
   <path fill="#cc0605" id="svg_3" d="m1770,4335l-455,-455l370,0c412,0 415,1 482,70c62,64 64,76 61,478l-3,362l-455,-455z"/>
   <path fill="#3d2b1f" id="svg_4" d="m4518,2628l-3,-1843l-27,-56c-36,-72 -105,-141 -176,-176l-57,-28l-1307,-3l-1308,-2l0,-46c0,-99 54,-188 134,-225c39,-18 103,-19 1451,-19c1348,0 1412,1 1451,19c49,22 111,92 124,140c6,23 10,722 10,1966l0,1930l-24,50c-13,28 -34,60 -47,72c-39,36 -110,63 -166,63l-53,0l-2,-1842z"/>
   <path fill="#d92424" id="svg_5" d="m420,2958c-26,-14 -57,-41 -75,-66l-30,-44l-3,-621c-2,-430 0,-634 8,-660c13,-44 60,-101 104,-125c29,-16 141,-17 1521,-20c1102,-2 1504,0 1544,8c68,15 131,74 150,140c9,34 11,194 9,655l-3,610l-24,42c-14,24 -42,55 -64,70l-40,28l-1526,3l-1526,2l-45,-22zm570,-465c63,-84 120,-157 126,-163c8,-8 40,28 120,137c130,177 136,183 172,183c36,0 59,-18 67,-51c5,-22 -16,-55 -139,-223l-146,-197l0,-194l0,-194l-26,-20c-32,-25 -52,-26 -82,-5c-21,15 -22,20 -22,213l0,198l-145,193c-96,129 -145,202 -145,218c0,39 28,63 69,60c34,-3 44,-14 151,-155zm705,134c8,-13 76,-158 150,-323c75,-164 139,-302 143,-306c5,-5 73,135 151,309c79,175 150,324 159,331c23,18 102,15 124,-5c17,-15 18,-42 18,-430c0,-400 -1,-414 -20,-433c-26,-26 -58,-25 -87,2c-23,21 -23,22 -23,296c0,152 -3,273 -6,269c-4,-3 -63,-131 -133,-284c-184,-405 -176,-405 -358,-3c-68,151 -128,279 -133,284c-7,7 -10,-89 -10,-271c0,-280 0,-282 -22,-297c-30,-21 -50,-20 -82,5l-26,20l0,408c0,472 -4,451 85,451c46,0 57,-4 70,-23zm962,-7c10,-19 13,-115 13,-382l0,-358l244,0c261,0 258,1 271,-52c5,-21 1,-33 -19,-52l-25,-26l-279,0c-261,0 -281,1 -303,19l-24,19l-3,394c-1,216 0,403 3,415c9,37 34,54 74,51c26,-2 39,-9 48,-28z"/>
  </g>
 </g>
</svg>