<svg width="38" height="50" viewBox="0 0 38 50" fill="none" xmlns="http://www.w3.org/2000/svg">
<path d="M0 0H38V50L19 41.9811L0 50V0Z" fill="#FC4762"/>
<path d="M12.6777 34.9676C12.11 34.9676 11.5866 34.8217 11.1074 34.5301C10.6335 34.2384 10.2507 33.8504 9.95898 33.366C9.67253 32.8764 9.5293 32.34 9.5293 31.7566L9.54492 26.6863C9.54492 26.0926 9.68815 25.5587 9.97461 25.0848C10.2559 24.6056 10.6361 24.2228 11.1152 23.9363C11.5944 23.6447 12.1152 23.4988 12.6777 23.4988C13.2611 23.4988 13.7845 23.6421 14.248 23.9285C14.7168 24.215 15.0918 24.6004 15.373 25.0848C15.6595 25.5639 15.8027 26.0978 15.8027 26.6863L15.8184 31.7566C15.8184 32.34 15.6777 32.8738 15.3965 33.3582C15.11 33.8478 14.7298 34.2384 14.2559 34.5301C13.7819 34.8217 13.2559 34.9676 12.6777 34.9676ZM12.6777 33.0379C13.0007 33.0379 13.2819 32.9077 13.5215 32.6473C13.7611 32.3816 13.8809 32.0848 13.8809 31.7566L13.8652 26.6863C13.8652 26.3322 13.7533 26.0327 13.5293 25.7879C13.3053 25.5431 13.0215 25.4207 12.6777 25.4207C12.3496 25.4207 12.0684 25.5405 11.834 25.7801C11.5996 26.0197 11.4824 26.3217 11.4824 26.6863V31.7566C11.4824 32.1056 11.5996 32.4077 11.834 32.6629C12.0684 32.9129 12.3496 33.0379 12.6777 33.0379ZM18.9043 34.8113H17.1074C17.0553 34.8113 17.0293 34.7853 17.0293 34.7332L17.0605 23.741C17.0605 23.6993 17.0814 23.6785 17.123 23.6785H22.248C22.3001 23.6785 22.3262 23.6993 22.3262 23.741V25.5457C22.3262 25.5874 22.3053 25.6082 22.2637 25.6082H18.9824V28.0926H22.2637C22.3053 28.0926 22.3262 28.1186 22.3262 28.1707L22.3418 29.9832C22.3418 30.0249 22.3158 30.0457 22.2637 30.0457H18.9824V34.7332C18.9824 34.7853 18.9564 34.8113 18.9043 34.8113ZM25.6387 34.8113H23.8418C23.7897 34.8113 23.7637 34.7853 23.7637 34.7332L23.7949 23.741C23.7949 23.6993 23.8158 23.6785 23.8574 23.6785H28.9824C29.0345 23.6785 29.0605 23.6993 29.0605 23.741V25.5457C29.0605 25.5874 29.0397 25.6082 28.998 25.6082H25.7168V28.0926H28.998C29.0397 28.0926 29.0605 28.1186 29.0605 28.1707L29.0762 29.9832C29.0762 30.0249 29.0501 30.0457 28.998 30.0457H25.7168V34.7332C25.7168 34.7853 25.6908 34.8113 25.6387 34.8113Z" fill="white"/>
<path d="M9.46133 19.8401C8.90404 19.8401 8.38581 19.6916 7.90664 19.3947C7.43268 19.1031 7.05247 18.7125 6.76602 18.2229C6.48477 17.7281 6.34414 17.189 6.34414 16.6057V15.8869C6.34414 15.8296 6.36497 15.801 6.40664 15.801H8.20352C8.2556 15.801 8.28164 15.8296 8.28164 15.8869V16.6057C8.28164 16.9546 8.39362 17.2567 8.61758 17.5119C8.84154 17.7619 9.12279 17.8869 9.46133 17.8869C9.83633 17.8869 10.1306 17.7567 10.3441 17.4963C10.5577 17.2307 10.6645 16.9338 10.6645 16.6057V16.176C10.6645 15.8427 10.5603 15.5432 10.352 15.2776C10.1436 15.0119 9.8806 14.8791 9.56289 14.8791H8.93789C8.88581 14.8791 8.85977 14.8505 8.85977 14.7932L8.87539 13.0041C8.87539 12.9625 8.89622 12.9416 8.93789 12.9416H9.56289C9.84935 12.9416 10.1046 12.8296 10.3285 12.6057C10.5525 12.3817 10.6645 12.0875 10.6645 11.7229V11.5041C10.6645 11.1604 10.5499 10.8687 10.3207 10.6291C10.0915 10.3895 9.80508 10.2697 9.46133 10.2697C9.1332 10.2697 8.85456 10.3895 8.62539 10.6291C8.39622 10.8687 8.28164 11.1604 8.28164 11.5041V12.2697C8.28164 12.3218 8.26081 12.3479 8.21914 12.3479H6.42227C6.3806 12.3479 6.35977 12.3218 6.35977 12.2697V11.4182C6.35977 10.8348 6.5082 10.314 6.80508 9.85568C7.09675 9.39735 7.47956 9.03277 7.95352 8.76193C8.42747 8.48589 8.93008 8.34787 9.46133 8.34787C10.0395 8.34787 10.5655 8.48849 11.0395 8.76974C11.5134 9.0562 11.8884 9.43381 12.1645 9.90256C12.4457 10.3713 12.5863 10.8869 12.5863 11.4494V11.7072C12.5863 12.176 12.5082 12.5822 12.352 12.926C12.1957 13.2645 11.9796 13.5901 11.7035 13.9026C11.9796 14.2203 12.1983 14.5692 12.3598 14.9494C12.5212 15.3296 12.602 15.7203 12.602 16.1213V16.6057C12.602 17.1994 12.4613 17.7437 12.1801 18.2385C11.8936 18.7281 11.5134 19.1187 11.0395 19.4104C10.5655 19.6968 10.0395 19.8401 9.46133 19.8401ZM17.0395 19.8166C16.3624 19.8166 15.7608 19.6708 15.2348 19.3791C14.7139 19.0875 14.3051 18.6994 14.0082 18.2151C13.7165 17.7255 13.5707 17.189 13.5707 16.6057L13.5863 11.5354C13.5863 10.9416 13.7348 10.4078 14.0316 9.93381C14.3233 9.45464 14.7296 9.07183 15.2504 8.78537C15.7712 8.4937 16.3676 8.34787 17.0395 8.34787C17.727 8.34787 18.3259 8.4911 18.8363 8.77756C19.3467 9.06402 19.7478 9.44943 20.0395 9.93381C20.3363 10.413 20.4848 10.9468 20.4848 11.5354L20.5004 16.6057C20.5004 17.1838 20.3546 17.7177 20.0629 18.2072C19.766 18.6968 19.3572 19.0875 18.8363 19.3791C18.3207 19.6708 17.7217 19.8166 17.0395 19.8166ZM18.5629 16.6057L18.5473 11.5354C18.5473 11.1604 18.4066 10.8557 18.1254 10.6213C17.8493 10.3869 17.4874 10.2697 17.0395 10.2697C16.5811 10.2697 16.2139 10.3869 15.9379 10.6213C15.6618 10.8557 15.5238 11.1604 15.5238 11.5354V16.6057C15.5238 17.0015 15.6618 17.314 15.9379 17.5432C16.2139 17.7723 16.5811 17.8869 17.0395 17.8869C17.4874 17.8869 17.852 17.7723 18.1332 17.5432C18.4197 17.314 18.5629 17.0015 18.5629 16.6057ZM23.391 13.6916C23.016 13.6916 22.6749 13.5953 22.3676 13.4026C22.0499 13.2098 21.7973 12.9546 21.6098 12.6369C21.4223 12.314 21.3285 11.9677 21.3285 11.5979V10.4572C21.3285 10.0718 21.4223 9.72027 21.6098 9.40256C21.7973 9.07964 22.0473 8.82704 22.3598 8.64474C22.6775 8.45724 23.0212 8.36349 23.391 8.36349C23.7764 8.36349 24.1254 8.45724 24.4379 8.64474C24.7452 8.83224 24.9874 9.08745 25.1645 9.41037C25.3467 9.72808 25.4379 10.077 25.4379 10.4572V11.5979C25.4379 11.9781 25.3467 12.327 25.1645 12.6447C24.977 12.9572 24.727 13.2098 24.4145 13.4026C24.1072 13.5953 23.766 13.6916 23.391 13.6916ZM24.1098 19.6604H22.2426C22.1905 19.6604 22.1749 19.6343 22.1957 19.5822L28.5785 8.59006C28.6098 8.54839 28.641 8.52756 28.6723 8.52756H30.5316C30.5889 8.52756 30.6046 8.54839 30.5785 8.59006L24.2113 19.5822C24.1905 19.6343 24.1566 19.6604 24.1098 19.6604ZM23.3598 12.3947C23.5733 12.3947 23.7478 12.3192 23.8832 12.1682C24.0238 12.0119 24.0941 11.8218 24.0941 11.5979V10.4885C24.0941 10.2802 24.0238 10.0979 23.8832 9.94162C23.7478 9.78537 23.5733 9.70724 23.3598 9.70724C23.1462 9.70724 22.9665 9.78537 22.8207 9.94162C22.6801 10.0979 22.6098 10.2802 22.6098 10.4885V11.5979C22.6098 11.8114 22.6827 11.9989 22.8285 12.1604C22.9796 12.3166 23.1566 12.3947 23.3598 12.3947ZM29.5551 19.8166C29.1749 19.8166 28.8311 19.7203 28.5238 19.5276C28.2061 19.3401 27.9535 19.0875 27.766 18.7697C27.5785 18.4468 27.4848 18.0979 27.4848 17.7229V16.5901C27.4848 16.1994 27.5785 15.8453 27.766 15.5276C27.9535 15.2046 28.2035 14.952 28.516 14.7697C28.8337 14.5822 29.1801 14.4885 29.5551 14.4885C29.9353 14.4885 30.2816 14.5822 30.5941 14.7697C30.9014 14.9572 31.1462 15.2125 31.3285 15.5354C31.5108 15.8531 31.602 16.2046 31.602 16.5901V17.7229C31.602 18.1083 31.5082 18.4572 31.3207 18.7697C31.1332 19.0875 30.8832 19.3427 30.5707 19.5354C30.2634 19.7229 29.9249 19.8166 29.5551 19.8166ZM29.5395 18.5276C29.753 18.5276 29.9275 18.4494 30.0629 18.2932C30.2035 18.1369 30.2738 17.9468 30.2738 17.7229V16.6213C30.2738 16.4078 30.2035 16.2255 30.0629 16.0744C29.9275 15.9182 29.753 15.8401 29.5395 15.8401C29.3259 15.8401 29.1462 15.9182 29.0004 16.0744C28.8546 16.2255 28.7816 16.4078 28.7816 16.6213V17.7229C28.7816 17.9364 28.8572 18.1239 29.0082 18.2854C29.1592 18.4468 29.3363 18.5276 29.5395 18.5276Z" fill="white"/>
</svg>
